<mxfile host="app.diagrams.net" agent="Mozilla/5.0 (Windows NT 10.0; Win64; x64) AppleWebKit/537.36 (KHTML, like Gecko) Chrome/138.0.0.0 Safari/537.36 Edg/138.0.0.0" version="28.0.5" pages="2">
  <diagram id="prtHgNgQTEPvFCAcTncT" name="Page-1">
    <mxGraphModel dx="2218" dy="1186" grid="0" gridSize="10" guides="1" tooltips="1" connect="1" arrows="1" fold="1" page="0" pageScale="1" pageWidth="827" pageHeight="1169" background="none" math="0" shadow="0">
      <root>
        <mxCell id="0" />
        <mxCell id="1" parent="0" />
        <mxCell id="g9klkTqwANIT1uOpOcKC-8" value="" style="shape=image;verticalLabelPosition=bottom;labelBackgroundColor=default;verticalAlign=top;aspect=fixed;imageAspect=0;image=data:image/png,iVBORw0KGgoAAAANSUhEUgAAAj4AAADiCAYAAABOUc3RAAAAAXNSR0IArs4c6QAAAARnQU1BAACxjwv8YQUAAAAJcEhZcwAAFiUAABYlAUlSJPAAADB+SURBVHhe7d17dBvXYSbwb/gmRVmOHcmWXccGQyUCQ0YGvYn7tNXkHDclTG2lrdY1UMJZcePdOGnXNSHGthRVUhSnpgAfp3WSNjZllyzQ5CiVdskAVVvHz6ZNYplMTEawTQaI3Mi15bcp8QGCuPvHzAAzQ4AYUiAJYL7fOXMkzlwMwOFg8OHeO/dKQggBIiIiIgsoM64gIiIiKlUMPkRERGQZDD5ERERkGZK2j8/WrVvx9NNP60sQERERFbEbb7wRTz31FGAMPpIkgX2diYiIqJRo8w2buoiIiMgyGHyIiIjIMhh8iIiIyDJy9vE5/I2g7udMdn/BZVxFREREVBC0+cZU8Ln9j526dVrf/rsQgw8REREVLHZuJiohYY8ESZq/uAeNJRdp0J2f/eRJ7HCT/Lu1+BEzbiQiMslU8Jmansb09Ez636n0z0RUCFwICQGhLKEOILjNjbCx2GK0ByCEQKDduGE1xHCsLyL/d7QXx8aN24mIzDEXfCancfnll2Hj5ZfL/26U/52aZPAhKkT2FjuAYUTG59fcyDUnTfCr4WHcj6ZMNUW6x8Xgb5FrW/ypGiZtsFK2K/toOqypk8m2f20tzrz9GYwfQ+8oYO9wwY4Ieo/P33+Txy0/j1IjpNu3rpYoDLe2dsyT+VnlmjQ3/Kn9aI4ZERUtU8Hn/PlJjIycmrecPz9pLEpEq06tHXHA3mjcZhSDf7sXkWYfomZqikZ7gX0CYswHO4LwKgEn7GmAd1SpdRpwIdLdkA5M2fY/7oezOwJ7TxRChOBCEM4sISR2vBcR2NG57xA6m4FI37F5zV2R4Vb5+Ue6YBt0o6E7AteAkPc96kWDsu+wx4nhniiEEIj22IF+5wLNeUEMbT6lvL4IvAczvz4iKh6mgs/k5BQmpzSL+vPklLEoEa2KIJypWowGeEcB10AAbcZi2Yx60dDih71PQIiFHqeEqUY7HAAiIxEAYQT6AXS45ce1u+ECMPyiJpossP9IdwOaDtsREAKiL9MzK0GuuRM7Gm3Y4bFnbO6ye3bApvw/fDQIwAV3OwC0wd0BYDiCGIC2PoFTuyNwSxIaupXms6zsaLUr/zan90FExctU8Dk/OYnz56fSi/ozgw9RgdD38Yn22BHcZmhyysiGrvuUuzJHvWiY1yxk0NwKu3HdeATDANDvVIKXE8FUKFpg/41d8HXImyLdDfObyFRqM5cSbGzbO+c3d+nEEBmGLgw6+wGMDiGSapJzAgNy7dTCzNSaEVExMRV8Tv78FZz8+WnNkv6ZiAqPHA5MUjoxy805ckBxZgog2Si1P+gIpYKX0NbeLLD/tj6lrBJAIt3Oef1owge9iGjCkbRJ/XlvliY5G+wOzAuDQgTQpoaonmiBdNomopWWM/js/oIr50JEhUXuEwM4NtsAu1xLIzc9ae6OAtIdfT1hAG0IKAHEsVltNDJDaUrqD8hBRNcpeoH9a8u1BxDqQIYaFqUZTekjpK3RAoIIZOmb07bTpdmueQ26JroY/PfmHqCViEqM0DD8SERFINQBAcxf7D3RDGXswtVhF4Bd+MaUjWM+Ydc+tiMkrx9wCQDCNSCEEFHha4ZAs0/Iew0Jl7asuj3Dc2fdvxAi2mPXvWb5uTSU16Dbn9DssyOU+r+xjG7fqddtXG/P+FiROmYuIb9a4+9PRMUEmnyTc+RmIiIiomKmzTc5m7qIiIiISgWDDxEREVkGgw8RERFZBoMPERERWQaDDxEREVkGgw8RERFZhu529muuuQanT3M0ZiIiIiodV199NX75y18CxuDDcXyIiIio1HAcHyIiIrIkBh8iIiKyDAYfIiIisgwGHyIiIrIMBh8iIiKyDAYfIiIisgwGHyIiIrIMBh8iIiKyDAYfIiIisgwGHyIiIrIMBh8iIiKyDAYfIiIisgwGHyIiIrIMBh8iIiKyDAYfIiIisgxJCCFSP0gSND+uuNV8bquRJMm4ioiIqCRp801BBB/1OY3PbfyZls4YdNSfjeuJiIhKTUEFHyEEysrY4rZS4vE4JEmat5B5PF4rZ6WvRyuJ59HKKeXziMwpmOAjhIAQAuXl5Tmfd6VfW7Exc3wkScK5c+dQVlaG8vJylJeXM/wsgdljnauMlZk5PmbKFDMzv5+ZMlZm5viYKUOlT3serHpVC0/IlTU1NYV4PI5EIoG5uTkefyIispRVCz5qbQ8/eFfW5OQkpqenMTs7mwo+/DsQEZFVrFrwUfEDd2VNTU1hZmYGs7OzSCaTPP5ERGQpDD4Wo23mYvAhIiKrWdXgww/dlTc3Nzcv9PDvQEREVrGqwQf80F1xxv48PP5ERJQvr0wnEXorgdBbCTz77hz+75sJHH8jgSffmcNP3p9LlfvFVFL3uJW0arezCyGQTCaRSCRQU1OT83lX8rUVIzPHR5IkPP/886ivr08t1dXVqKioQFlZGW9pN8nssc5VxsrMHB8zZYqZmd/PTBkrM3N8zJShpZtKAsffmMUT78zh5akk/svactyyoQLXX1RuLDrPf8wIVEjAByok1CxzNUxB3c5ORERExWVOAH99ZhYf/vdzePBXs7jpkgo8eW0dHmisNhV6AOCqagkbq5Y/9Bit8NMRERFRMRt8MwH7j8/jb16N4zsfq8VPrqvDf99QgfIiaTRgU1eJMHN82NSVH2aPda4yVmbm+JgpU8zM/H5myliZmeNjpgyZM5ME/nRsGt9+dRZtl1bg6MdqUJcl7bw5KzB6bg6vxgXenhWYE0B9hYT1lRI+UleGj9SWoSzzQ5eF9jxg8CkRZo4Pg09+mD3WucpYmZnjY6ZMMTPz+5kpY2Vmjo+ZMpRbbDqJ//rCFEbOJ3Hv1VU41FAN4yfGW7MCJ96ewz+9NYsfvJvEqzNyB+bfubgcH6iQMPBmIlV268Xl+NQHKvB7l5Tjkyabxi4Eg08JMnN8GHzyw+yxzlXGyswcHzNlipmZ389MGSszc3zMlKGFDU3M4Xd/OoX3EwJ/fk0V9tuqddunksDfvz6L75xN4F/eTocbAPj9Sytwz4eq8DsXl+Mf3kjgD0endNs/VC1h52WVuHVDJa5bu3y9b7TnwfI9CxERERW1V6aTuOlncui5ZUPFvNDz4mQSd45No/PF6XmhBwCEAM7NyYFjQvlX65UZAf8rcXz+5Wn0vzZr3LwsWONTIswcH9b45IfZY52rjJWZOT5myhQzM7+fmTJWZub4mClDmb2bEPjEyUmMTyXxyYvK8ePr6nTbn3xnDj3/EceJt+YHHq1NtWWoKQNGzi88ds/FFRLuuboK3R+qMm66YKzxISIiogV98eUZjE8lsaZcwnc+VqPb9txEEl/55UzO0AMAY1PJnKEHStDaE53B4Vfixk15xeBDREREOv/4VgKB1+Wmpwcaq2HTDLYTm0ri/tMzePLd9EjM2WyuK0PPh6txtLkWf3xZpXHzPAkB3Hc6jsf+c/mavRh8VON+NEkSJOPiCaeKhD0ZtktN8I+ndxM73KTb7h5MbyNaNlnO36bDsQW3a89vsiAT58WC172Mj9dfE6n4TCWBz700DQCw1ZTh9iv0geXR1xL4hzdy1/RcViXh36+rw+4PVeEP11egv6kGf/pruZux3k0IfPNMHKPncgerpWDw0bHDNybPZSUvIbj6nfrw0hHSbBcQ4hS6GuVNscNNaOh2IKR5PLaVZvgJeyRILX4oH6uFa9BdHK8zL+afv45up+ZDaP72eec3WZCJ82KB6968xw844N3E8FPMvnkmjjMzcn+YfTZ9UHnynQT+1mQn5J0bKnFxhb7v6F1X5a71gdKU9tjrucPVUjD4LKgN7g5g+EUzH5th7O2OwDUQQFtqXRsCAy4E7y21D94wAv0uuBy9OMaLWwGzo7U5gqGIcb1qMec3WccFnhftAYQ6IvAeZG1iMZpKAn9xWu5js7ZcgmuDPqgcfSOBV6Zz99cBgMoM98tULWLUwr/9z1n8WDOxab4w+CwojEA/4NhsM26YbzCAIFxwtxvWtwcgRrpgYg/FYzCAYIcbgZ0O3cUtdrgJkscPf4uhulypdfGrVeZqDcygG1KLG+6WdFltU6HcTBODv0VTazbuR1PGanY3Uq9Es959VF1pQePH0DtqR6vduEG1iPObLOTCz4u2nS5gOFJiX/is4e9fn8Wbs3Jtzx+sr0CVJiX87NycbhDC5famMiBivjH46ETg3aRtq3ZiuCeKgDbM9Dt17dm66uDmVmT9jCkh4aPD8O1rA9rdcPUH0oEDAPp7geMZqstHvRjaKSBEFD544VT7nowOo/W4gOhrAwbdmqbCEBzdDXAP2rDDY0fwqPIskSFEOnzoagzDvakXnUoVe7RnGE5PWA5K271ATxRCCLgRTL200mc4fzd54RjQNkmYOL/JgkycFwtd96ikhDR3ae1YX6Hb9qP3k6kmsJXyg3fyH7QYfHQ0bdUDLgAu+HYbvvUY2rp1F4fRIWRtVSgZYQSGO7GjEUqVeBABXV8An/JBa6gub/bhUDsAyEEmMqIeKQfsah+pF4eBDrfSVJh+vG17J+zKt8fw0SBcO9uA8QiGNRfshu4I0B9AWKnl6Nwu/93adrqU57ECY18Nw/lp5vwmCzJxXix03csg9uKwcRUVgTkBXQ2LcZb1kxPmmrjy6bn3k3ghz52cGXyyaQ8g1BGE02zH2HY3XDCEACjNLmb3UQRih70IjnrRoHzzc/YjXRuzXBp3oBO9ODYu9y1KNye6NB3JBYTQ9q+iBS32/CZryNN5ERmJAA57aTXxW8AP35vDpDK68iWVEjZW6fvj/CzPAcSM6aTAL6byW8vE4LOAtr4QXKNe7DWGmYzacKjHjuA2TV8ThOHe5AU8O0rkAhDDsb4IXAPasBGCq9+bvoMj1fRl6CcwqnaElvdhb5nfKGjb7MjyeBt2eIDe7V4E1RqhRjscCMKrNJnFDjfJfYcad6CzOYLe4/L68FErNXUtzuLOb7KKCz4vBt1w9tvl5nAqKtpg8/E1+ngwK4D/MNmpWZUprtSXy6FqMV5RJjvNFwafBWUKM9nZdp+S+5oY2spPGauNi9X4MfSOGjtwt8HdkQ4aaB6GV/ndgx0hXZV473YJktQAL3wIZTom7QHN8dP3M7Dt9sExGpGbuQD5jrkxH9DdoDR1ORAa6YINNnQdT68PYPFNXX6/HxMTE8bVJWhx5zctTvGeR4s9Lwx9hLYNwzem7VtWyuSbL1LjZS1aGO5c4x4tdkiODOXNnos/14yufJHhNnQhgNfiAp0bK/HPW2pxx5W5b0vPFG/Wlkt48to6rDPs38h1WSWOt9Tis5dX4v08d/PhXF0lwszxkZZ5rq7Y4SY09HUiaryLbdANaRsQKpKmqNraWiSTSXR3d6O7uxtr167VbTd7rHOVsTIzx8dMmULG82j5mTk+ZsosXQz+lgb0epb6BTcMt+RF60JBcdAN6d7W+dfVbDKUz3Uuqj7900k88Y5c6/NHGyrw9x+rTW2bSQrc/MIU/uVaeb6uH743B9ep6QVvbf+zq6rwQKN+UlPV8xNz2Do8lZrAVOvGi8vxlEN+nvBbCZycmMO+azLvxyztecAaHyKDr33ta6ioqMADDzyADRs24Mtf/rKpb0tEWjyPipduBH5N7Yl2FGvdnW0je9NDaKTWh+FO1f5ra3XkWiJJkiB5AqldpJrrU4/NUBO0xCE8zJ6L2gwjGb4IS5KE2jIJTynTVESnkkjkCJTRqeyh6Lq15fjHLbWoK5//hXtWyLfVA8DLk0lclKHMhWDwobyx7T6Vecyi9kBRdTy+8847UVNTg8nJSUxPT8Pv9y94sSDKhOdRsQpjbzeUO93k4Tf2Dqp9l5QbKsZ8GNY0BUaGWxESAtEeuzJgbQz+Fieg9occcMC7XQ41scNOeOFDVAiInVjEgBtLH8LD7LmY1OSY1+L60FIlAWdmkvjd4Ul86qeT+ItX4ng1x63t/+/NBP5kbMa4OuW315XjHz9eC800YACAf1Nqkz74r+fw5VgcVxkLXKD87o0K3nXXXYePfvSjuPLKK7Fu3TrU1NTomroWWkqJ8XczLm+//TbKyuS3x9TUFKanp9HT04Pbb7/duCtaRsa/S7EtPI8Kg/HvstCi9lv0bpIgtRzDjhH59n3dcBuNXTil+TJnV25gsW12KGsiGBoFgtuU/W4LKjd4KDd3qDe8tLvN90JcwhAeiz0XtTHm9fj8ULNlrXx7+5PvzOGUidnWAeChX8UXDD83XFyOf2iuzdgf6K1ZgemkwIdr8xtV8rs3KnjPP/88XnrpJZw5cwbvvfcepqenkUgkkEwm5W8mCyylxPi7GZdLLrkEyaT8xq6trUVNTQ26u7vx7W9/27grWkbGv0uxLTyPCoPx77LQAgBtfSJV29Ognex3UYzjai3Qj8e0xQ3hof29zJyLl2tuX//l9Pxr/nVrlxYZHvpVHF98WZ70NJO2Syvw6Q/oxwxSfWJtOa6tX9rzZpPfvRGVgAcffBDT09Opi0NXVxfOnj2Lr3zlK1k7BRIZ8TwqVmG4JTfCsKFrRCDUIa/VDbehnTonI3mevNSUPoNupU+OMoBr3zFl2p5AqmHKttmRHgRXsz7lAobwMHsuNmhqVibnBJ5V+vOofmNdBTYYxvYx6xtnZnHHAuGnsS5zHPn0JfrRo/Mh8zOVGG2HtPRi9lZNunCaznzaRZ3La7HbF3Nr5xLcc889mJ2dzXpxWG48X0sDz6Ni1YbAAFLDkjiHleE3tMNtbPICPaEFanBs6BqRp+2RJPUWf7l2xrY7lKpJko4i3dSlDILrNK5PWfoQHmbPxYYafah53DBdRGt9GbZ9cOlB5FtnZnH7S/PDz5wAnlbuJtO6qELC730g/zHFErezhz0SnAjJ80EpYoeb0DDi060rZmaOj7TMt7Nnl+GWz3E/mjb1onPsFLoaM2xPCcNtGA8p623zeeL3+3H77bdnvDBgEcc6V5lseL7KzJQpZDyPlp+Z42OmTKnLdS6qnnt/Dp98fjL180fqyvDS9Wt0Zf757TncFpnCaxn6AJnVubESj2yuAZQ7yf5HZArfOTt/sJ4/+bUq/OWmC7uNXaU9D/IfpYqEbbNDmT1YGYCqRb59Ub4VUV/DoJ+QT3uLYubbCfXfqvT7SrcVZ1tvEUr17FCuyc0GAwg26wc8tO0OIXrfDl2xfOrq6sp5gVhpPF+LD8+jTOdLtvW0nMyei5+4qBzrNaMqvzyZxDOG5q6bLimH5/LcgxcupPc/Z/HhH53Hbw9NYv2/nssYerbUl+Ozly+9dmkhlg0+4aNB3VwyEYcPQpl8L+yRRxeOCnnSvuA2tS03prtFMX07oTw1hUNZr53rJnbYCa9DneAvBEf3XoQXWG8Zyp0IrZqZKyJKVa32Imr8O8lssLXblqW2p1AZjwPPV1oKnkeUS7uhKetvXpXH09HatbESN196YaEkOpXED9+byziAYW2ZhDuurESrchdZvlkn+KhtrcriHPYhqqnuTc8dFUNkGHDdpzSjtB+CT+04Zpiywbb7lFxlPBhAEOn1bft8sGecqb0NgYy98LOtLy26YJOhjdyujEMhL/LxyDSnlyXwfKV84HlEi3TLBn2gCb4+ixfO6W9d/2hdGbo/VIXfuGh5IsQ9V1fh9isurFZpIcvzqgtRh/otQ1kM/UNSk2kq4y+k2WBPDc2Q6U2tUjqlKR/qEQwjMi5fJEJIX3zU6uNs60tZKtiM+WBHetyJhaSr5rXk6vKSPmY8XykfeB7RIt10SQU+arjD6k/H5ndI/p2Ly7HPVoMbL85frUx1GXDAVo17rq4ybsor6wQf0+xobdb+LH8Tkje1Imv9Q7NSRZxa0mM2yGNCyFW7SFUfZ19f8hq7cGrAAe8mE3eYtLvhGvXCqekLoI58ekg3WapV8XylfOB5RGn3GoLH0+/O4dsZmrw+c0k5HmisRkeOPj9fvqYKoY/X4uHNNVmbyD62pgx/uakG+66pQo75Sy8Yg8888jcdedhxAIN74VVHxVTGUQgo31JS4ygoH857tevVPioeYwc+B+yN2ddbRntA7hOQ8/baNgRECA5NM9ly3tFVfHi+Uj7wPKI0z+WV2Gyo9flfL03jxNvzOyG3ri3Hg43V+KtN1fitdZlrf/78mmq0XVqB/7mxEmsNqeaDlRL+9xWV+OuP1ixr85aO0DD8uKySyaRIJBJienra1POaKZNNqAMCHSHjakVU+JohXAPz1ykjeOu3jfmEXVkPuERqr7r1duEbUzeEhCu1XruvbOuXxszxASCef/558dJLL4kzZ86I9957T0xPT4tEIiGSyaSxOGVh9lgvFc9XmZkyxczM72emTDY8j2RmytB8P3w3IfDE+7plzdMT4ofvJoxFU05PzYm/PhMX21+YFPVPT6Qe99VfzgghhJhIJIXjJ+cEnnhfXPfcObF7fFo88fascTfLQnseWGIcHyswc3ykVRvHp7SYPda5yliZmeNjpkwxM/P7mSljZWaOj5kylNkdL0/jW2f0TVy1ZcDj19bhN7PU7qhiU0n8fDKJX00n8XZCHqRwTTlwWZWEj9SWYfOaMqzN86zrC9GeBww+JcLM8WHwyQ+zxzpXGSszc3zMlClmZn4/M2WszMzxMVOGMpucE/jNoUn8zHBXV125hH57DXasz9xfR2s6iXmzr68G7XlQAC+HiIiICk1duYQTW+p0k5dCCUT/bXQK/2dsBokcmfLzL00jOmVuJveVwuBDREREGV1eJSG8pQ6XaEZ0Vv3lr+LY/OPz+NvX5t/xpXp9VuA3hibx0mThhB8GHyIiIsrKUV+Gn35iDVrWzI8Mv5hK4rORaXz4R+dx9y9m8IRhslEJwNm4wA3Dk4gUSPiZ/1sQERERaVxVLeHfrquD67LMt5xHp5K4/5U4Pv3TSdQ9PYHf/9kUel6J481ZuS3sbFxg6/AkTp1f/fDD4ENEREQ51ZdLCDTV4J+21GKjod+P1lQSOPF2Al/6xQx+8n66BuhsXODG4Un8fJXDD4MPERERmXbTJRWIXL8GhxqqcdkCASiTN2cF/mBkyrh6RTH4EBER0aKsq5Cw5+oqvPZb9fi7phr80YYKXFGdOwRdVCHhux+rMa5eURzHp0SYOT4cxyc/zB7rXGWszMzxMVOmmJn5/cyUsTIzx8dMGcqflyeTGJtK4q1ZgbdmBb55Zhbjyu3sa8olPHFtLT550cKDHy4HjuNDREREefeRujI4L62A5/JK/NlVVdikzPlVVy7hB6sUeowYfIiIiGjZ1JQB/7SlFtcXQOgBgw8REREtlyoJCH28Dr+dY26vlcTgQ0RERHmzf//+1P//6iM1+NQHCif0gMGHiIiI8unAgQOp/19l4k6vlcbgQ0RERJbB4ENERESWweBjMepYPRyzh4iIrGjVBzCcm5tDdXW1cTMtk+HhYaxZswb19fVYs2YNampqUF5ezgEMF4HHaeWs1PVoNfA8WjmlfB4VopXMEmZpX9OqBh8hBBKJBGZmZjA5OYnz58/j/PnziMfjSCQSSCZXdyKzbCYnJ3Ho0CHs3bsXdXV1xs0FqaysDBUVFaiqqsKaNWuwZs0a1NXVpUZuliSJF+IStpLvbVpd6h012jtrCt3nPvc5AMDDDz9s3ERFqBCvNwUVfObm5hCPxzE1NYXJyUlMTU0hHo9jbm4u9VpW6jWZ9Y1vfAN9fX3weDz4whe+YNxcULRNW+Xl5aiqqkJtbS3q6upQW1uLqqoqlJeXM/iUuJV8b9PqKrbgMzExgQ9+8IMAgDfffBNr1641FqEiU4jXm4IKPslkErOzs4jH45iensbMzAwSiYQu+BSS8+fP49d//dcRj8dRVVWFH/3oR1izZo2xWMFRg09FRQWqq6tRU1ODqqoqVFZWppq5GHxK10q+t2l1FVvw2bNnD3w+HwDA6/Xiq1/9qrEIFZlCvN4URPCBoZ9PIpHA7OwsZmdnMTc3l2rmWsnXY8b999+Pb33rW5idnUVlZSU+//nP40tf+pKxWEFRA01ZWRnKy8tRWVmJyspKVFRUsH+PRaz0e5tWTzEFn4mJCaxfvx4zMzMAgOrqarzxxhus9SlyhXi9Kajgoy5zc3OpwJNMJlf0dZh17tw5NDQ0pN6kUN6o0WgU9fX1urKFSJIklJWVpQKQtomLwae0rfR7m1ZPMQUftbYnHo8DAKqqqljrUwIK8XpTMMEHhvCjXdRthWTfvn148MEHEY/HUV9fj3PnzqGqqgp33nknDh48aCxeUNRgow06DD3WsRrvbVodxRJ8tLU96p296v9Z61PcCvF6U1DBB5qAY3xu48+raWJiAhs2bEB9fT0qKytx9uxZbNiwAbOzszh37hzOnj1b0G9UY7jRBiEqfav13qaVVyzBZ8+ePfD7/aiqqsKll14KAHjrrbcQj8fR1dXFWp8iVojXG+1rKogBDI21D+qiNssUwvLII4+gsrIS+/btw2uvvQYAeO2117Bv3z5UVFTgkUcemfeYQlqMx1ZdiIhW2sTEBI4dO4YbbrgBjz/+OG677TbcdtttePzxx3HDDTfge9/7HiYmJowPI8qLgqjxKUY8VlRMeL5aR7HU+Jw5cwZXXnklkOE1a7dR8SnE6432NRVEjQ8REVnLQsFmoW1EF4rBh4iIiCyDwYeIiIgsg8GHiIiILIPBh4iIiCyDwYeIiIgsg8GHiIiILIPBh4iIiCyDwYeIiIgsg8GHiIiILIPBh4iIiCyDwYeIiIgsg8GHiIiILIPBh4iIiCyDwYeIiIgsg8GHiIiILIPBh4iIiCyDwYeIiIgsg8GHiIiILIPBh4iIiCyDwYeIiIgsg8GHiIiILIPBZ4mEEMZVREREVOAYfIiIiMgyLBB8YvC3SJAk7dIE/7ixnBlhuJf8WCIiIlptFgg+MntPFEIICCEQ7QG8B8PGIia0ISBOoavRuJ6IiIiKgWWCT2ZybVDT4Zj846AbUosfMQAY96NpXg2RWuMjP87tcadqkdyD6b2GPenapdS+M+5PX1byLCWMERERkVmWCT6R7oZUwGjo60S0r81YRCd80AsotUTZaoiCcCvb7QjeKwem2OEmOBFSapdCcHQ74R/Psr9xP7z9LoSUsq5+L5vRiIiIlpFlgo+uqcvTiwa1ZieLtp0uJSw14dj2UxAZgpK9xQ4AsG12pNZFRiJAv1MJWU4EEUHv8Vjm/TXuQGdzEE5JguQBm9GIiIiWmWWCj5Zteyfso0OIGDdotQfStTObpHQTmAnakCWEwKndtiz7s6FrRK3tkcOStsmMiIiI8suSwSd2vBeR5lbYYYPdodTSAAgfDabKhD1yCLHtPgUx4NI8emH2Fjsi3XshN4yF4VbCTMb9jfvR1OJHDG0IiCh8zfp9ERERUX5ZJvjo+vh0A77jXbApTVpq01QA6YDT1hcCtimdjrcNp8rnYtt9CqEOpflKcmK4J4pAe5b9NXYh5OlFgyRBkhrgdYQQaDfukYiIiPJFEpohiCVJ4ojERCWI723r2L9/v+7fYlCMr5myK8TrjfY1WabGh4iIiIjBh4iIiCyDwYeIiIgsg8GHiIiILIPBh4iIiCyDwQdIz+CuG6RQmY8rHwMKaucAIyIiolXD4KM16sXefAQdIiIiKkgMPhr2Hh+wza2Mumygm11dW0YenVlen551XVvefTRVmIiIiFYRg4/ODhzqGYb3sLFRKgz3pl50jimTnPYMw+kJK81hTmBAmZdrwAHvdj9iiMG/PT0buxvpqTCIiIho9TD4GNh2h9DZp861pRiPYBgReXJRSUJDdwToDyCMCIZGgWBqKoogMNqLYz84ht5ROzq3y5NctO00P9cXERERLR8Gn3ls6LoPcHqOGda7ENLMuC5EAG0AADt8Sk2QvJxC19WGhxIREVFBYPDJpD2AELzwjio/N9rhQDDVBBY73KTcpWVHa3ME3oNK/dCgW+7/07gDnc0R9B6Xy2tnfSciIqLVw+CTRds+H+zpnxAY8wHKDO8N3Q6ERrpggw1dIyG4lNndpW3D8I0F0AYbuo6ny2tnfSciIqLVw9nZiSyA723rKMaZzovxNVN2hXi94ezsREREZEkMPkRERGQZDD5LJEmScRUREREVOAYfIiIisgwGHyIiIrIMBh8iIiKyDAYfIiIisgwGHyIiIrIMBh8iIiKyDAYfIiIisgwGHyIiIrIMBh8iIiKyDAYfIiIisgwGHyIiIsqbQpuZ3YjBZxGee+453HbbbVi/fj0qKiqwfv163HbbbXjuueeMRYmIiKgAMfiY9PDDD+Omm27Cli1b8MILL2B2dhYvvPACtmzZgptuugkPP/yw8SFERERFJ+yR0HQ4ZlwNDLohtfiRYUtRYfAx4dlnn8WePXvwzDPP4K677sLGjRsBABs3bsRdd92FZ555Bnv27MGzzz5rfCgREVERiSEybFynaA9AjHTBZlxfZBh8TPj617+OgwcPoqWlxbgJANDS0oKDBw/i61//unETERFR0YgddsI7CkS6nfCPh+GWmuD2NEGS3Ahra3wG3ZAkCZK63ROWdzDuR5MkQZIkuD3aGqIw3Mp6SWqCf1x9viZIHjfcklzLFPaoZaT0PvOMwceEEydO4NZbbzWu1rn11ltx4sQJ42oiIqKiYdsdgq8ZsPeE0NUIABEMt4QgRABtqVJhuLcF4RoQECKE1uGIsj4G/3Yv0BOFEAJuBNPrW5zAgIAQAmLAAe92TZNZP+AWAqe2H4O334WQkPfr6vemAlI+MfjkkEgkEI/HsW7dOuMmnXXr1iEejxtXExERFTXHZkPj1mAAQbjgbgcAG3Z47PL68WPoHbWjc7tcvm2nS3lABEOjQHCbUpOzLQiM9uKYGmqaW2EHgMYd6GwOwilJkDxAQJxSwld+MfjkUFFRgcbGRpw8edK4SefkyZNobFyGvxAREVHRs8M3ptT4CAGRMdTY0DWi1vY45eayQWOZC1cCwScGf8vytQUCQEdHBx544AHjap0HHngAHR0dxtVERESlpd0NF4IIDAJADMf6lKauxh3obI6g97jSq+eo2tRlR2tzBN6Dyuf0oFvuM6RsTRn3o6nFjxjaEBBR+JqNBfJEaBh+LA4DLoEOl3DBJULGbXm0detWceeddxpXCyGEuPPOO8XWrVuNq4kKRlG+t4loVYQ6IAC78I2FhAsQrgFlw4BLoNknour/IZdzddgFOpRP4DGfsAMCgHB1aMoLeV/qY3xjcvFoj11TRvlZLafuMw+010BJWQEAkCSp4EdcNAp7JAR2CriPSvC2RHFqt9IWOeiGdG8rfA4vvP0A4EJIBNCGGPwtDRjy+DDc7UUEgL1H87gszp07hy9+8Yt44okn8JnPfAZXXHEFXn31VZw4cQKf+tSn8NBDD6G+vt74MKKCUIzvbSIqBvJnaq9n/udo2CPBiRBEX7pb9GrRXgOLvKkrjEC/3MGqbZ8P6DumH1hp1IveFrl3eagjCKemOSzYPQSfEBBjPqDbmbPneH19PR577DGEw2Fce+21OHDgAK699lqEw2E89thjDD1EtLouaHA5+bZl/7h6O3KGZgiiFO2t6Q3wwofQblu664myzdnvQqgAQo9Rcdf4DLohHXUraVK5Xe640mFq0A1pG5RaHuXNvGkIPnEIEUM6DXsMtUUmFN2xIkvj+WoBSi139EIHmDNeO4lKQMnU+ISPBgGl57ckNcA7mu5UBWhukctg3u15iu9973umlsWWJSJarEyDucUONxkGhUsPBgcMYa/6jVs70FyLH351Xy1+xDSDz8mPVfcjj88C6GvIs9N/w1efUx6Uzp/epn3tGdbLr9ENt+ZGldjhptR+5ekT5OdK3eUz7keTrpZKfR2srVptkiQZVxWU4g0+4354+w23x435gO696ZN+dAjqsEqIaP4PYPhFNSDph+ceHR3Fd7/73ZwLgHnrMi2jo6PpnRMRmTXuX/xgbqNB4D4BIaLwwQunOt/SqBdDO5X9jHrRcNQtl9HcgSNrQ2DAJfeJNNNEMR6B/bh6DQ7BpR2bpb8XOJ6+NTkVWLKtHx1G63Eh1+APutHQ7Uj97o7uBrgH5fFigkeVK3xkCJEOH7oaw3Bv6kWn8lkQ7Rk2GdrIsjSdnovqzg9jT3CZpge60uNc7Y0e6lB7iEeFrxnpx475hF3Tw9ysYjpWRDxfi5FyrTLc3aK/9oWES71+DbgENHe3RnuUO2106+V9aq+L9p7ogvvJTfM6lX2knluhPk+29cbnzFpuzCfsyu8e6lB+D81dROllMa+f8q0Qrzfa11SkNT7yuAF2zw5DW3Yb3B1A8F6lirfZBdyrdLIa9iGq+QbjcgyhQZIgbfLCMZBpICUiotW0MoO5XZBBNySpAUP3Ka/TuD3fGnegE704Np6+sUWm1oypC/snUXZFGnzkC0KmzshtfUIze2wrDo0obwRjh7+dgdSbJJB68xARFYgsg7nZNjvSzfiDgdRsSDL9oHL2lmy9HPOo2YdD7RleS39A6XYQRqBf068y23oN22ZHlnI27PAAvdu9CHa45XDTaIcDQXiVZj19Hyii+Yo0+BARlbjGLoQ8vXLNtNQAryMkf0lTRs11ShKkozDUsriAo0r51C3Gi2Rvhd1s5+Z2t9xnSJIgHW2FrzmCIbUzZfMwvJIESXIi2KG89oXWa7UH5L46SrnhnmiqnG23D47RCFw71TqdNgTGfEB3AyRJkvsGGb/oEmkU9+3sq4jHiooJz1daSbHDTWjo65x3a3229VRaCvF6o31NrPEhsoBCuwgREa0W1vgsEY8VERHRfIX4+cgaHyJSBpMz0Y+DitL+/fuxf/9+4+qCVEyvlYpf/oOPOiLovAuqOrcHR9UkIiKi1ZH/4AMAzXbYU7ciKgYDCDbbs04hQURLoB2qX3sLb2pKAsOXEM1UBXtH0qs55D8RWcXyBB90orNDHU9CFj4ahMvTqSmTeY6X1HwsnlwXbnnRDuiVntulCW6Pthpf/1zGuV6aWnixp2IUg3+7F+iJQgiBkEOZomDcj6Ztw8p0LlH4hp3KXEfyPEyuAXmwudZh9b5jDvlPRNaxTMEHsLdo5lSBMsrm9vT2sEcel0IeRFCeP2avJsQEh1sRFQJiwAWoc9ToLugC0R57epTmcT+c3VC2+YD+9MxcuucacCG4TTupXwSO+xY30ufc3Bw2btyIubk54yaiFRTB0KgdndvlG4Pb+pRBPSNDiDR3YkcjlAHf7IiMRJQB5tTRbuX1gDzf0jAi8G6Svxg0dEc0g8cREZWW5Qs+2zthH44oswMH0qNsKtr6lMno5NJoVUYlVaWmo2h3pwfoauzCKZGeXsK22ZEqHzveq0xYBwBtONSjNqrJo36mBrtqP6QfZAt2tC6y/W3Xrl249NJLsWvXLuMmoiLFIf+JyBqWLfik51SRm7nmDZ2u61PQAK9hEvNMw5gDQNijaR7blh4gPTKinXt9vuA2/XOlZ2d3wL6Iebruv/9+nD59GiMjIzh9+jTuv/9+YxGiFWJHq2Z27bBHaRa2t8KemiVbM3WBMuKvdkoDgEP+E5G1LF/wUedUOe5HoD9dHS/T900QmnloFjTohrNf8810ID1Y+7xgpWNPNY+pS6Z5vnL5/ve/D7/fj0cffRQA8Oijj8Lv9+P73/++sSjRCrChayQEhzJUv7PfhVBfm1wzOuBQmq7kZl75fG9DYMClfAlwYsihvmc45D8RWccyBh/Atr0T6PYimOpvkMXg3nk1PrnF4L83XeNj294Ju9oXCGHs7VZrgNrg7ojAe1DpsaDUNC12luNoNIpdu3bhyJEjsNnkjwSbzYYjR45g165diEajxocQrYA2BDI1T7WnJ+FNNylr159CoO9UeltjF05l2g8RUYlZ1uAjV6Fr+uuk2NB1nwsR5RumdNSNUIe2+SmL9kPwNSuT80lO4D4f7OosxY1dCPVA+ZYbQGuqjw/Q1iff2SJJEqRNck1TxonxFrBr1y54vV7cfPPNuvU333wzvF4v+/sQEREVgRKdsiIGf0sDej3RJTVpGd1xxx2YnJzEY489ZtyU8tnPfhZ1dXX45je/adxERLTi1JGQi2FE5GJ6rZRbIWYJ7Wta3hqflaQb30fbr+HCPPTQQzh58iSOHDli3KRz5MgRnDx5Eg899JBxE9GqkyTJuIqIyJJKJ/ho+zQY+zUs0ZNPPom7774bR44cQVnZwoeqrKwMR44cwd13340nn3zSuJmIiIgKwMKf5hb2+uuvY9euXejt7UVzs5lbzoDm5mb09vZi165deP31142biYiIaJUx+GSxa9cueDwe3HLLLcZNC7rlllvg8XjY2ZmIiKgAMfhksHv3btTV1eHAgQPGTaYcOHAAdXV12L17t3ETERERrSIGH4NHH30U4XA4Z2fmXI4cOYJwOJwa7JCIiIhWH4OPwenTp3HkyBGsXbvWuGlR1q5diyNHjuD06dPGTURERLRKGHwM9u/fj+uvv964ekmuv/56jktBRERUQBh8iIiIyDIYfIiIiMgyGHyIiIjIMhh8iIiIyDIYfIiIiMgyGHyIiIjIMhh8iIiIyDIkIYRQf9i6dSuefvppfQkiIiKiInbjjTfiqaeeAozBh4hKkyRJ4FvdWtTBU4thENVieq2UW6Ffb/4/A0aONyf6Hs0AAAAASUVORK5CYII=;" vertex="1" parent="1">
          <mxGeometry x="-411.19000000000005" y="-163" width="363.19" height="143" as="geometry" />
        </mxCell>
        <mxCell id="-3kkyh8QbOk5VDmFy2Sz-12" value="DBA" style="swimlane;whiteSpace=wrap;html=1;fontColor=default;labelBackgroundColor=default;fillColor=default;strokeColor=default;" parent="1" vertex="1">
          <mxGeometry x="370" y="70" width="415" height="156" as="geometry" />
        </mxCell>
        <mxCell id="BUa-b0R-d04zGe5AJRKj-13" value="Review and Approve RFD" style="rounded=0;whiteSpace=wrap;html=1;labelBackgroundColor=default;fillColor=default;fontColor=default;strokeColor=default;" parent="-3kkyh8QbOk5VDmFy2Sz-12" vertex="1">
          <mxGeometry x="61" y="42" width="86" height="60" as="geometry" />
        </mxCell>
        <mxCell id="BUa-b0R-d04zGe5AJRKj-31" value="Process Deployment" style="rounded=0;whiteSpace=wrap;html=1;labelBackgroundColor=default;fillColor=default;fontColor=default;strokeColor=default;" parent="-3kkyh8QbOk5VDmFy2Sz-12" vertex="1">
          <mxGeometry x="198" y="66" width="86" height="60" as="geometry" />
        </mxCell>
        <mxCell id="BUa-b0R-d04zGe5AJRKj-32" value="" style="image;aspect=fixed;html=1;points=[];align=center;fontSize=12;image=img/lib/azure2/iot/Time_Series_Data_Sets.svg;" parent="-3kkyh8QbOk5VDmFy2Sz-12" vertex="1">
          <mxGeometry x="350.9300000000001" y="59" width="45.93" height="61" as="geometry" />
        </mxCell>
        <mxCell id="-3kkyh8QbOk5VDmFy2Sz-14" value="execute" style="edgeStyle=orthogonalEdgeStyle;rounded=0;orthogonalLoop=1;jettySize=auto;html=1;entryX=-0.044;entryY=0.59;entryDx=0;entryDy=0;entryPerimeter=0;fontColor=default;labelBackgroundColor=default;strokeColor=default;" parent="-3kkyh8QbOk5VDmFy2Sz-12" source="BUa-b0R-d04zGe5AJRKj-31" target="BUa-b0R-d04zGe5AJRKj-32" edge="1">
          <mxGeometry relative="1" as="geometry" />
        </mxCell>
        <mxCell id="-3kkyh8QbOk5VDmFy2Sz-4" value="Business Area 1" style="swimlane;whiteSpace=wrap;html=1;fillColor=default;fontColor=default;labelBackgroundColor=default;strokeColor=default;" parent="1" vertex="1">
          <mxGeometry x="80" y="-160" width="568" height="220" as="geometry">
            <mxRectangle x="80" y="-160" width="130" height="30" as="alternateBounds" />
          </mxGeometry>
        </mxCell>
        <mxCell id="dNxyNK7c78bLwvsdeMH5-25" value="Business&lt;br&gt;Need" style="edgeStyle=orthogonalEdgeStyle;rounded=0;orthogonalLoop=1;jettySize=auto;html=1;exitX=0.5;exitY=0.5;exitDx=0;exitDy=0;exitPerimeter=0;fontColor=default;labelBackgroundColor=default;strokeColor=default;" parent="-3kkyh8QbOk5VDmFy2Sz-4" source="BUa-b0R-d04zGe5AJRKj-4" target="BUa-b0R-d04zGe5AJRKj-2" edge="1">
          <mxGeometry relative="1" as="geometry">
            <mxPoint x="-65" y="74" as="sourcePoint" />
          </mxGeometry>
        </mxCell>
        <mxCell id="BUa-b0R-d04zGe5AJRKj-3" value="Approved&amp;nbsp;&lt;div&gt;RFC&lt;/div&gt;" style="edgeStyle=orthogonalEdgeStyle;rounded=0;orthogonalLoop=1;jettySize=auto;html=1;entryX=0;entryY=0.5;entryDx=0;entryDy=0;fontColor=default;labelBackgroundColor=default;strokeColor=default;" parent="-3kkyh8QbOk5VDmFy2Sz-4" source="BUa-b0R-d04zGe5AJRKj-2" target="BUa-b0R-d04zGe5AJRKj-27" edge="1">
          <mxGeometry relative="1" as="geometry">
            <mxPoint x="219" y="72" as="targetPoint" />
          </mxGeometry>
        </mxCell>
        <mxCell id="BUa-b0R-d04zGe5AJRKj-2" value="RFC Process" style="shape=process;whiteSpace=wrap;html=1;backgroundOutline=1;labelBackgroundColor=default;shadow=1;fillColor=default;fontColor=default;strokeColor=default;" parent="-3kkyh8QbOk5VDmFy2Sz-4" vertex="1">
          <mxGeometry x="30" y="42" width="90" height="60" as="geometry" />
        </mxCell>
        <mxCell id="BUa-b0R-d04zGe5AJRKj-4" value="App&lt;br&gt;Manager" style="shape=umlActor;verticalLabelPosition=middle;verticalAlign=middle;html=1;outlineConnect=0;labelPosition=left;align=right;fontColor=default;labelBackgroundColor=default;strokeColor=default;fillColor=default;" parent="-3kkyh8QbOk5VDmFy2Sz-4" vertex="1">
          <mxGeometry x="65" y="173" width="20" height="38" as="geometry" />
        </mxCell>
        <mxCell id="BUa-b0R-d04zGe5AJRKj-11" value="" style="edgeStyle=orthogonalEdgeStyle;rounded=0;orthogonalLoop=1;jettySize=auto;html=1;exitX=1;exitY=0.5;exitDx=0;exitDy=0;fontColor=default;labelBackgroundColor=default;strokeColor=default;" parent="-3kkyh8QbOk5VDmFy2Sz-4" source="BUa-b0R-d04zGe5AJRKj-27" target="BUa-b0R-d04zGe5AJRKj-10" edge="1">
          <mxGeometry relative="1" as="geometry">
            <mxPoint x="309" y="72" as="sourcePoint" />
          </mxGeometry>
        </mxCell>
        <mxCell id="BUa-b0R-d04zGe5AJRKj-30" value="scheduled" style="edgeStyle=orthogonalEdgeStyle;rounded=0;orthogonalLoop=1;jettySize=auto;html=1;fontColor=default;labelBackgroundColor=default;strokeColor=default;" parent="-3kkyh8QbOk5VDmFy2Sz-4" source="BUa-b0R-d04zGe5AJRKj-10" target="BUa-b0R-d04zGe5AJRKj-29" edge="1">
          <mxGeometry relative="1" as="geometry" />
        </mxCell>
        <mxCell id="BUa-b0R-d04zGe5AJRKj-10" value="RFD&lt;br&gt;Process" style="shape=process;whiteSpace=wrap;html=1;backgroundOutline=1;labelBackgroundColor=default;fillColor=default;fontColor=default;strokeColor=default;" parent="-3kkyh8QbOk5VDmFy2Sz-4" vertex="1">
          <mxGeometry x="348" y="42" width="90" height="60" as="geometry" />
        </mxCell>
        <mxCell id="BUa-b0R-d04zGe5AJRKj-27" value="PR&lt;br&gt;Process" style="shape=process;whiteSpace=wrap;html=1;backgroundOutline=1;labelBackgroundColor=default;fillColor=default;fontColor=default;strokeColor=default;" parent="-3kkyh8QbOk5VDmFy2Sz-4" vertex="1">
          <mxGeometry x="202" y="42" width="90" height="60" as="geometry" />
        </mxCell>
        <mxCell id="BUa-b0R-d04zGe5AJRKj-29" value="" style="verticalLabelPosition=bottom;html=1;verticalAlign=top;align=center;strokeColor=none;fillColor=#00BEF2;shape=mxgraph.azure.scheduler;pointerEvents=1;" parent="-3kkyh8QbOk5VDmFy2Sz-4" vertex="1">
          <mxGeometry x="511" y="47" width="40" height="50" as="geometry" />
        </mxCell>
        <mxCell id="BUa-b0R-d04zGe5AJRKj-33" value="triggers" style="edgeStyle=orthogonalEdgeStyle;rounded=0;orthogonalLoop=1;jettySize=auto;html=1;fontColor=default;labelBackgroundColor=default;strokeColor=default;" parent="1" source="BUa-b0R-d04zGe5AJRKj-29" target="BUa-b0R-d04zGe5AJRKj-31" edge="1">
          <mxGeometry x="-0.1855" y="1" relative="1" as="geometry">
            <mxPoint as="offset" />
          </mxGeometry>
        </mxCell>
        <mxCell id="-3kkyh8QbOk5VDmFy2Sz-51" value="approve" style="edgeStyle=orthogonalEdgeStyle;rounded=0;orthogonalLoop=1;jettySize=auto;html=1;entryX=0.75;entryY=1;entryDx=0;entryDy=0;exitX=0.75;exitY=0;exitDx=0;exitDy=0;fontColor=default;labelBackgroundColor=default;strokeColor=default;" parent="1" source="BUa-b0R-d04zGe5AJRKj-13" target="BUa-b0R-d04zGe5AJRKj-10" edge="1">
          <mxGeometry relative="1" as="geometry" />
        </mxCell>
        <mxCell id="-3kkyh8QbOk5VDmFy2Sz-52" value="submit" style="edgeStyle=orthogonalEdgeStyle;rounded=0;orthogonalLoop=1;jettySize=auto;html=1;entryX=0.25;entryY=0;entryDx=0;entryDy=0;exitX=0.25;exitY=1;exitDx=0;exitDy=0;fontColor=default;labelBackgroundColor=default;strokeColor=default;" parent="1" source="BUa-b0R-d04zGe5AJRKj-10" target="BUa-b0R-d04zGe5AJRKj-13" edge="1">
          <mxGeometry relative="1" as="geometry" />
        </mxCell>
        <mxCell id="-3kkyh8QbOk5VDmFy2Sz-53" value="Business Area 2" style="swimlane;whiteSpace=wrap;html=1;fontColor=default;labelBackgroundColor=default;fillColor=default;strokeColor=default;" parent="1" vertex="1">
          <mxGeometry x="80" y="235" width="566" height="233" as="geometry" />
        </mxCell>
        <mxCell id="-3kkyh8QbOk5VDmFy2Sz-54" value="Business&lt;br&gt;Need" style="edgeStyle=orthogonalEdgeStyle;rounded=0;orthogonalLoop=1;jettySize=auto;html=1;exitX=0.5;exitY=0.5;exitDx=0;exitDy=0;exitPerimeter=0;fontColor=default;labelBackgroundColor=default;strokeColor=default;" parent="-3kkyh8QbOk5VDmFy2Sz-53" source="-3kkyh8QbOk5VDmFy2Sz-57" target="-3kkyh8QbOk5VDmFy2Sz-56" edge="1">
          <mxGeometry relative="1" as="geometry">
            <mxPoint x="-65" y="135" as="sourcePoint" />
          </mxGeometry>
        </mxCell>
        <mxCell id="-3kkyh8QbOk5VDmFy2Sz-55" value="Approved&amp;nbsp;&lt;div&gt;RFC&lt;/div&gt;" style="edgeStyle=orthogonalEdgeStyle;rounded=0;orthogonalLoop=1;jettySize=auto;html=1;entryX=0;entryY=0.5;entryDx=0;entryDy=0;fontColor=default;labelBackgroundColor=default;strokeColor=default;" parent="-3kkyh8QbOk5VDmFy2Sz-53" source="-3kkyh8QbOk5VDmFy2Sz-56" target="-3kkyh8QbOk5VDmFy2Sz-64" edge="1">
          <mxGeometry relative="1" as="geometry">
            <mxPoint x="219" y="151" as="targetPoint" />
          </mxGeometry>
        </mxCell>
        <mxCell id="-3kkyh8QbOk5VDmFy2Sz-56" value="RFC Process" style="shape=process;whiteSpace=wrap;html=1;backgroundOutline=1;labelBackgroundColor=default;fillColor=default;fontColor=default;strokeColor=default;" parent="-3kkyh8QbOk5VDmFy2Sz-53" vertex="1">
          <mxGeometry x="30" y="121" width="90" height="60" as="geometry" />
        </mxCell>
        <mxCell id="-3kkyh8QbOk5VDmFy2Sz-57" value="App&lt;br&gt;Manager" style="shape=umlActor;verticalLabelPosition=middle;verticalAlign=middle;html=1;outlineConnect=0;labelPosition=left;align=right;fontColor=default;labelBackgroundColor=default;strokeColor=default;fillColor=default;" parent="-3kkyh8QbOk5VDmFy2Sz-53" vertex="1">
          <mxGeometry x="65" y="26" width="20" height="38" as="geometry" />
        </mxCell>
        <mxCell id="-3kkyh8QbOk5VDmFy2Sz-58" value="" style="edgeStyle=orthogonalEdgeStyle;rounded=0;orthogonalLoop=1;jettySize=auto;html=1;exitX=1;exitY=0.5;exitDx=0;exitDy=0;fontColor=default;labelBackgroundColor=default;strokeColor=default;" parent="-3kkyh8QbOk5VDmFy2Sz-53" source="-3kkyh8QbOk5VDmFy2Sz-64" target="-3kkyh8QbOk5VDmFy2Sz-60" edge="1">
          <mxGeometry relative="1" as="geometry">
            <mxPoint x="309" y="151" as="sourcePoint" />
          </mxGeometry>
        </mxCell>
        <mxCell id="-3kkyh8QbOk5VDmFy2Sz-59" value="scheduled" style="edgeStyle=orthogonalEdgeStyle;rounded=0;orthogonalLoop=1;jettySize=auto;html=1;fontColor=default;labelBackgroundColor=default;strokeColor=default;" parent="-3kkyh8QbOk5VDmFy2Sz-53" source="-3kkyh8QbOk5VDmFy2Sz-60" target="-3kkyh8QbOk5VDmFy2Sz-65" edge="1">
          <mxGeometry relative="1" as="geometry" />
        </mxCell>
        <mxCell id="-3kkyh8QbOk5VDmFy2Sz-60" value="RFD&lt;br&gt;Process" style="shape=process;whiteSpace=wrap;html=1;backgroundOutline=1;labelBackgroundColor=default;fillColor=default;fontColor=default;strokeColor=default;" parent="-3kkyh8QbOk5VDmFy2Sz-53" vertex="1">
          <mxGeometry x="350" y="121" width="90" height="60" as="geometry" />
        </mxCell>
        <mxCell id="-3kkyh8QbOk5VDmFy2Sz-64" value="Development&lt;div&gt;Process&lt;/div&gt;" style="shape=process;whiteSpace=wrap;html=1;backgroundOutline=1;labelBackgroundColor=default;fillColor=default;fontColor=default;strokeColor=default;" parent="-3kkyh8QbOk5VDmFy2Sz-53" vertex="1">
          <mxGeometry x="202" y="121" width="90" height="60" as="geometry" />
        </mxCell>
        <mxCell id="-3kkyh8QbOk5VDmFy2Sz-65" value="" style="verticalLabelPosition=bottom;html=1;verticalAlign=top;align=center;strokeColor=none;fillColor=#00BEF2;shape=mxgraph.azure.scheduler;pointerEvents=1;" parent="-3kkyh8QbOk5VDmFy2Sz-53" vertex="1">
          <mxGeometry x="511" y="126" width="40" height="50" as="geometry" />
        </mxCell>
        <mxCell id="-3kkyh8QbOk5VDmFy2Sz-66" value="triggers" style="edgeStyle=orthogonalEdgeStyle;rounded=0;orthogonalLoop=1;jettySize=auto;html=1;entryX=0.5;entryY=1;entryDx=0;entryDy=0;fontColor=default;labelBackgroundColor=default;strokeColor=default;" parent="1" source="-3kkyh8QbOk5VDmFy2Sz-65" target="BUa-b0R-d04zGe5AJRKj-31" edge="1">
          <mxGeometry x="-0.6264" relative="1" as="geometry">
            <mxPoint as="offset" />
          </mxGeometry>
        </mxCell>
        <mxCell id="-3kkyh8QbOk5VDmFy2Sz-67" value="submit" style="edgeStyle=orthogonalEdgeStyle;rounded=0;orthogonalLoop=1;jettySize=auto;html=1;entryX=0.25;entryY=1;entryDx=0;entryDy=0;exitX=0.25;exitY=0;exitDx=0;exitDy=0;fontColor=default;labelBackgroundColor=default;strokeColor=default;" parent="1" source="-3kkyh8QbOk5VDmFy2Sz-60" target="BUa-b0R-d04zGe5AJRKj-13" edge="1">
          <mxGeometry x="-0.2124" y="-2" relative="1" as="geometry">
            <mxPoint x="453" y="286" as="sourcePoint" />
            <mxPoint as="offset" />
          </mxGeometry>
        </mxCell>
        <mxCell id="-3kkyh8QbOk5VDmFy2Sz-68" value="approve" style="edgeStyle=orthogonalEdgeStyle;rounded=0;orthogonalLoop=1;jettySize=auto;html=1;exitX=0.75;exitY=1;exitDx=0;exitDy=0;fontColor=default;labelBackgroundColor=default;strokeColor=default;" parent="1" source="BUa-b0R-d04zGe5AJRKj-13" edge="1">
          <mxGeometry x="0.2042" relative="1" as="geometry">
            <mxPoint x="495" y="357" as="targetPoint" />
            <mxPoint as="offset" />
          </mxGeometry>
        </mxCell>
        <mxCell id="-3kkyh8QbOk5VDmFy2Sz-99" value="pull request" style="edgeStyle=orthogonalEdgeStyle;rounded=0;orthogonalLoop=1;jettySize=auto;html=1;entryX=0;entryY=0.5;entryDx=0;entryDy=0;fontColor=default;labelBackgroundColor=default;strokeColor=default;" parent="1" source="-3kkyh8QbOk5VDmFy2Sz-97" target="BUa-b0R-d04zGe5AJRKj-13" edge="1">
          <mxGeometry relative="1" as="geometry" />
        </mxCell>
        <mxCell id="VeNyo41hU2reCRrZPbLz-1" value="deployment code" style="edgeStyle=orthogonalEdgeStyle;rounded=0;orthogonalLoop=1;jettySize=auto;html=1;fontColor=default;labelBackgroundColor=default;strokeColor=default;" parent="1" source="-3kkyh8QbOk5VDmFy2Sz-97" edge="1">
          <mxGeometry x="-0.2908" relative="1" as="geometry">
            <mxPoint x="562" y="190" as="targetPoint" />
            <Array as="points">
              <mxPoint x="327" y="190" />
              <mxPoint x="562" y="190" />
            </Array>
            <mxPoint as="offset" />
          </mxGeometry>
        </mxCell>
        <mxCell id="-3kkyh8QbOk5VDmFy2Sz-97" value="code&lt;br&gt;versions&lt;br&gt;(common)" style="verticalLabelPosition=bottom;html=1;verticalAlign=top;align=right;strokeColor=none;fillColor=#00BEF2;shape=mxgraph.azure.github_code;pointerEvents=1;labelPosition=left;fontColor=light-dark(#FFFFFF,#FFFFFF);" parent="1" vertex="1">
          <mxGeometry x="310.5" y="125.5" width="33" height="33" as="geometry" />
        </mxCell>
        <mxCell id="-3kkyh8QbOk5VDmFy2Sz-16" style="edgeStyle=orthogonalEdgeStyle;rounded=0;orthogonalLoop=1;jettySize=auto;html=1;entryX=0.5;entryY=0;entryDx=0;entryDy=0;entryPerimeter=0;fontColor=default;labelBackgroundColor=default;strokeColor=default;" parent="1" source="BUa-b0R-d04zGe5AJRKj-27" target="-3kkyh8QbOk5VDmFy2Sz-97" edge="1">
          <mxGeometry relative="1" as="geometry" />
        </mxCell>
        <mxCell id="-3kkyh8QbOk5VDmFy2Sz-17" value="code" style="edgeLabel;html=1;align=center;verticalAlign=middle;resizable=0;points=[];fontColor=default;labelBackgroundColor=default;" parent="-3kkyh8QbOk5VDmFy2Sz-16" vertex="1" connectable="0">
          <mxGeometry x="0.1739" y="2" relative="1" as="geometry">
            <mxPoint x="-2" y="-13" as="offset" />
          </mxGeometry>
        </mxCell>
        <mxCell id="-3kkyh8QbOk5VDmFy2Sz-98" value="code" style="edgeStyle=orthogonalEdgeStyle;rounded=0;orthogonalLoop=1;jettySize=auto;html=1;entryX=0.5;entryY=1;entryDx=0;entryDy=0;entryPerimeter=0;fontColor=default;labelBackgroundColor=default;strokeColor=default;" parent="1" source="-3kkyh8QbOk5VDmFy2Sz-64" target="-3kkyh8QbOk5VDmFy2Sz-97" edge="1">
          <mxGeometry x="-0.2063" relative="1" as="geometry">
            <mxPoint as="offset" />
          </mxGeometry>
        </mxCell>
        <mxCell id="8f0VVaTNczkoUkgkc7wy-2" value="Automations" style="outlineConnect=0;dashed=0;verticalLabelPosition=middle;verticalAlign=middle;align=right;html=1;shape=mxgraph.aws3.automation;fillColor=light-dark(#0089B6,#0089B6);gradientColor=none;labelPosition=left;fontColor=default;" parent="1" vertex="1">
          <mxGeometry x="240" y="70" width="40" height="38.5" as="geometry" />
        </mxCell>
        <mxCell id="8f0VVaTNczkoUkgkc7wy-5" value="" style="endArrow=classic;startArrow=classic;html=1;rounded=0;exitX=0.855;exitY=0.86;exitDx=0;exitDy=0;exitPerimeter=0;entryX=0.145;entryY=0.145;entryDx=0;entryDy=0;entryPerimeter=0;dashed=1;fontColor=default;labelBackgroundColor=default;strokeColor=default;" parent="1" source="8f0VVaTNczkoUkgkc7wy-2" target="-3kkyh8QbOk5VDmFy2Sz-97" edge="1">
          <mxGeometry width="50" height="50" relative="1" as="geometry">
            <mxPoint x="410" y="300" as="sourcePoint" />
            <mxPoint x="460" y="250" as="targetPoint" />
          </mxGeometry>
        </mxCell>
        <mxCell id="8f0VVaTNczkoUkgkc7wy-16" value="" style="endArrow=classic;html=1;rounded=0;fontColor=default;labelBackgroundColor=default;strokeColor=light-dark(#FFFFFF,#FFFFFF);" parent="1" edge="1">
          <mxGeometry width="50" height="50" relative="1" as="geometry">
            <mxPoint x="58" y="146" as="sourcePoint" />
            <mxPoint x="301" y="144" as="targetPoint" />
          </mxGeometry>
        </mxCell>
        <mxCell id="8f0VVaTNczkoUkgkc7wy-17" value="" style="shape=curlyBracket;whiteSpace=wrap;html=1;rounded=1;flipH=1;labelPosition=right;verticalLabelPosition=middle;align=left;verticalAlign=middle;fontColor=default;labelBackgroundColor=default;strokeColor=light-dark(#FFFFFF,#FFFFFF);" parent="1" vertex="1">
          <mxGeometry x="44" y="-92" width="20" height="476" as="geometry" />
        </mxCell>
        <mxCell id="g9klkTqwANIT1uOpOcKC-3" value="" style="shape=image;verticalLabelPosition=bottom;labelBackgroundColor=default;verticalAlign=top;aspect=fixed;imageAspect=0;image=data:image/png,iVBORw0KGgoAAAANSUhEUgAAAj4AAADiCAYAAABOUc3RAAAAAXNSR0IArs4c6QAAAARnQU1BAACxjwv8YQUAAAAJcEhZcwAAFiUAABYlAUlSJPAAADB+SURBVHhe7d17dBvXYSbwb/gmRVmOHcmWXccGQyUCQ0YGvYn7tNXkHDclTG2lrdY1UMJZcePdOGnXNSHGthRVUhSnpgAfp3WSNjZllyzQ5CiVdskAVVvHz6ZNYplMTEawTQaI3Mi15bcp8QGCuPvHzAAzQ4AYUiAJYL7fOXMkzlwMwOFg8OHeO/dKQggBIiIiIgsoM64gIiIiKlUMPkRERGQZDD5ERERkGZK2j8/WrVvx9NNP60sQERERFbEbb7wRTz31FGAMPpIkgX2diYiIqJRo8w2buoiIiMgyGHyIiIjIMhh8iIiIyDJy9vE5/I2g7udMdn/BZVxFREREVBC0+cZU8Ln9j526dVrf/rsQgw8REREVLHZuJiohYY8ESZq/uAeNJRdp0J2f/eRJ7HCT/Lu1+BEzbiQiMslU8Jmansb09Ez636n0z0RUCFwICQGhLKEOILjNjbCx2GK0ByCEQKDduGE1xHCsLyL/d7QXx8aN24mIzDEXfCancfnll2Hj5ZfL/26U/52aZPAhKkT2FjuAYUTG59fcyDUnTfCr4WHcj6ZMNUW6x8Xgb5FrW/ypGiZtsFK2K/toOqypk8m2f20tzrz9GYwfQ+8oYO9wwY4Ieo/P33+Txy0/j1IjpNu3rpYoDLe2dsyT+VnlmjQ3/Kn9aI4ZERUtU8Hn/PlJjIycmrecPz9pLEpEq06tHXHA3mjcZhSDf7sXkWYfomZqikZ7gX0CYswHO4LwKgEn7GmAd1SpdRpwIdLdkA5M2fY/7oezOwJ7TxRChOBCEM4sISR2vBcR2NG57xA6m4FI37F5zV2R4Vb5+Ue6YBt0o6E7AteAkPc96kWDsu+wx4nhniiEEIj22IF+5wLNeUEMbT6lvL4IvAczvz4iKh6mgs/k5BQmpzSL+vPklLEoEa2KIJypWowGeEcB10AAbcZi2Yx60dDih71PQIiFHqeEqUY7HAAiIxEAYQT6AXS45ce1u+ECMPyiJpossP9IdwOaDtsREAKiL9MzK0GuuRM7Gm3Y4bFnbO6ye3bApvw/fDQIwAV3OwC0wd0BYDiCGIC2PoFTuyNwSxIaupXms6zsaLUr/zan90FExctU8Dk/OYnz56fSi/ozgw9RgdD38Yn22BHcZmhyysiGrvuUuzJHvWiY1yxk0NwKu3HdeATDANDvVIKXE8FUKFpg/41d8HXImyLdDfObyFRqM5cSbGzbO+c3d+nEEBmGLgw6+wGMDiGSapJzAgNy7dTCzNSaEVExMRV8Tv78FZz8+WnNkv6ZiAqPHA5MUjoxy805ckBxZgog2Si1P+gIpYKX0NbeLLD/tj6lrBJAIt3Oef1owge9iGjCkbRJ/XlvliY5G+wOzAuDQgTQpoaonmiBdNomopWWM/js/oIr50JEhUXuEwM4NtsAu1xLIzc9ae6OAtIdfT1hAG0IKAHEsVltNDJDaUrqD8hBRNcpeoH9a8u1BxDqQIYaFqUZTekjpK3RAoIIZOmb07bTpdmueQ26JroY/PfmHqCViEqM0DD8SERFINQBAcxf7D3RDGXswtVhF4Bd+MaUjWM+Ydc+tiMkrx9wCQDCNSCEEFHha4ZAs0/Iew0Jl7asuj3Dc2fdvxAi2mPXvWb5uTSU16Dbn9DssyOU+r+xjG7fqddtXG/P+FiROmYuIb9a4+9PRMUEmnyTc+RmIiIiomKmzTc5m7qIiIiISgWDDxEREVkGgw8RERFZBoMPERERWQaDDxEREVkGgw8RERFZhu529muuuQanT3M0ZiIiIiodV199NX75y18CxuDDcXyIiIio1HAcHyIiIrIkBh8iIiKyDAYfIiIisgwGHyIiIrIMBh8iIiKyDAYfIiIisgwGHyIiIrIMBh8iIiKyDAYfIiIisgwGHyIiIrIMBh8iIiKyDAYfIiIisgwGHyIiIrIMBh8iIiKyDAYfIiIisgxJCCFSP0gSND+uuNV8bquRJMm4ioiIqCRp801BBB/1OY3PbfyZls4YdNSfjeuJiIhKTUEFHyEEysrY4rZS4vE4JEmat5B5PF4rZ6WvRyuJ59HKKeXziMwpmOAjhIAQAuXl5Tmfd6VfW7Exc3wkScK5c+dQVlaG8vJylJeXM/wsgdljnauMlZk5PmbKFDMzv5+ZMlZm5viYKUOlT3serHpVC0/IlTU1NYV4PI5EIoG5uTkefyIispRVCz5qbQ8/eFfW5OQkpqenMTs7mwo+/DsQEZFVrFrwUfEDd2VNTU1hZmYGs7OzSCaTPP5ERGQpDD4Wo23mYvAhIiKrWdXgww/dlTc3Nzcv9PDvQEREVrGqwQf80F1xxv48PP5ERJQvr0wnEXorgdBbCTz77hz+75sJHH8jgSffmcNP3p9LlfvFVFL3uJW0arezCyGQTCaRSCRQU1OT83lX8rUVIzPHR5IkPP/886ivr08t1dXVqKioQFlZGW9pN8nssc5VxsrMHB8zZYqZmd/PTBkrM3N8zJShpZtKAsffmMUT78zh5akk/svactyyoQLXX1RuLDrPf8wIVEjAByok1CxzNUxB3c5ORERExWVOAH99ZhYf/vdzePBXs7jpkgo8eW0dHmisNhV6AOCqagkbq5Y/9Bit8NMRERFRMRt8MwH7j8/jb16N4zsfq8VPrqvDf99QgfIiaTRgU1eJMHN82NSVH2aPda4yVmbm+JgpU8zM/H5myliZmeNjpgyZM5ME/nRsGt9+dRZtl1bg6MdqUJcl7bw5KzB6bg6vxgXenhWYE0B9hYT1lRI+UleGj9SWoSzzQ5eF9jxg8CkRZo4Pg09+mD3WucpYmZnjY6ZMMTPz+5kpY2Vmjo+ZMpRbbDqJ//rCFEbOJ3Hv1VU41FAN4yfGW7MCJ96ewz+9NYsfvJvEqzNyB+bfubgcH6iQMPBmIlV268Xl+NQHKvB7l5Tjkyabxi4Eg08JMnN8GHzyw+yxzlXGyswcHzNlipmZ389MGSszc3zMlKGFDU3M4Xd/OoX3EwJ/fk0V9tuqddunksDfvz6L75xN4F/eTocbAPj9Sytwz4eq8DsXl+Mf3kjgD0endNs/VC1h52WVuHVDJa5bu3y9b7TnwfI9CxERERW1V6aTuOlncui5ZUPFvNDz4mQSd45No/PF6XmhBwCEAM7NyYFjQvlX65UZAf8rcXz+5Wn0vzZr3LwsWONTIswcH9b45IfZY52rjJWZOT5myhQzM7+fmTJWZub4mClDmb2bEPjEyUmMTyXxyYvK8ePr6nTbn3xnDj3/EceJt+YHHq1NtWWoKQNGzi88ds/FFRLuuboK3R+qMm66YKzxISIiogV98eUZjE8lsaZcwnc+VqPb9txEEl/55UzO0AMAY1PJnKEHStDaE53B4Vfixk15xeBDREREOv/4VgKB1+Wmpwcaq2HTDLYTm0ri/tMzePLd9EjM2WyuK0PPh6txtLkWf3xZpXHzPAkB3Hc6jsf+c/mavRh8VON+NEkSJOPiCaeKhD0ZtktN8I+ndxM73KTb7h5MbyNaNlnO36bDsQW3a89vsiAT58WC172Mj9dfE6n4TCWBz700DQCw1ZTh9iv0geXR1xL4hzdy1/RcViXh36+rw+4PVeEP11egv6kGf/pruZux3k0IfPNMHKPncgerpWDw0bHDNybPZSUvIbj6nfrw0hHSbBcQ4hS6GuVNscNNaOh2IKR5PLaVZvgJeyRILX4oH6uFa9BdHK8zL+afv45up+ZDaP72eec3WZCJ82KB6968xw844N3E8FPMvnkmjjMzcn+YfTZ9UHnynQT+1mQn5J0bKnFxhb7v6F1X5a71gdKU9tjrucPVUjD4LKgN7g5g+EUzH5th7O2OwDUQQFtqXRsCAy4E7y21D94wAv0uuBy9OMaLWwGzo7U5gqGIcb1qMec3WccFnhftAYQ6IvAeZG1iMZpKAn9xWu5js7ZcgmuDPqgcfSOBV6Zz99cBgMoM98tULWLUwr/9z1n8WDOxab4w+CwojEA/4NhsM26YbzCAIFxwtxvWtwcgRrpgYg/FYzCAYIcbgZ0O3cUtdrgJkscPf4uhulypdfGrVeZqDcygG1KLG+6WdFltU6HcTBODv0VTazbuR1PGanY3Uq9Es959VF1pQePH0DtqR6vduEG1iPObLOTCz4u2nS5gOFJiX/is4e9fn8Wbs3Jtzx+sr0CVJiX87NycbhDC5famMiBivjH46ETg3aRtq3ZiuCeKgDbM9Dt17dm66uDmVmT9jCkh4aPD8O1rA9rdcPUH0oEDAPp7geMZqstHvRjaKSBEFD544VT7nowOo/W4gOhrAwbdmqbCEBzdDXAP2rDDY0fwqPIskSFEOnzoagzDvakXnUoVe7RnGE5PWA5K271ATxRCCLgRTL200mc4fzd54RjQNkmYOL/JgkycFwtd96ikhDR3ae1YX6Hb9qP3k6kmsJXyg3fyH7QYfHQ0bdUDLgAu+HYbvvUY2rp1F4fRIWRtVSgZYQSGO7GjEUqVeBABXV8An/JBa6gub/bhUDsAyEEmMqIeKQfsah+pF4eBDrfSVJh+vG17J+zKt8fw0SBcO9uA8QiGNRfshu4I0B9AWKnl6Nwu/93adrqU57ECY18Nw/lp5vwmCzJxXix03csg9uKwcRUVgTkBXQ2LcZb1kxPmmrjy6bn3k3ghz52cGXyyaQ8g1BGE02zH2HY3XDCEACjNLmb3UQRih70IjnrRoHzzc/YjXRuzXBp3oBO9ODYu9y1KNye6NB3JBYTQ9q+iBS32/CZryNN5ERmJAA57aTXxW8AP35vDpDK68iWVEjZW6fvj/CzPAcSM6aTAL6byW8vE4LOAtr4QXKNe7DWGmYzacKjHjuA2TV8ThOHe5AU8O0rkAhDDsb4IXAPasBGCq9+bvoMj1fRl6CcwqnaElvdhb5nfKGjb7MjyeBt2eIDe7V4E1RqhRjscCMKrNJnFDjfJfYcad6CzOYLe4/L68FErNXUtzuLOb7KKCz4vBt1w9tvl5nAqKtpg8/E1+ngwK4D/MNmpWZUprtSXy6FqMV5RJjvNFwafBWUKM9nZdp+S+5oY2spPGauNi9X4MfSOGjtwt8HdkQ4aaB6GV/ndgx0hXZV473YJktQAL3wIZTom7QHN8dP3M7Dt9sExGpGbuQD5jrkxH9DdoDR1ORAa6YINNnQdT68PYPFNXX6/HxMTE8bVJWhx5zctTvGeR4s9Lwx9hLYNwzem7VtWyuSbL1LjZS1aGO5c4x4tdkiODOXNnos/14yufJHhNnQhgNfiAp0bK/HPW2pxx5W5b0vPFG/Wlkt48to6rDPs38h1WSWOt9Tis5dX4v08d/PhXF0lwszxkZZ5rq7Y4SY09HUiaryLbdANaRsQKpKmqNraWiSTSXR3d6O7uxtr167VbTd7rHOVsTIzx8dMmULG82j5mTk+ZsosXQz+lgb0epb6BTcMt+RF60JBcdAN6d7W+dfVbDKUz3Uuqj7900k88Y5c6/NHGyrw9x+rTW2bSQrc/MIU/uVaeb6uH743B9ep6QVvbf+zq6rwQKN+UlPV8xNz2Do8lZrAVOvGi8vxlEN+nvBbCZycmMO+azLvxyztecAaHyKDr33ta6ioqMADDzyADRs24Mtf/rKpb0tEWjyPipduBH5N7Yl2FGvdnW0je9NDaKTWh+FO1f5ra3XkWiJJkiB5AqldpJrrU4/NUBO0xCE8zJ6L2gwjGb4IS5KE2jIJTynTVESnkkjkCJTRqeyh6Lq15fjHLbWoK5//hXtWyLfVA8DLk0lclKHMhWDwobyx7T6Vecyi9kBRdTy+8847UVNTg8nJSUxPT8Pv9y94sSDKhOdRsQpjbzeUO93k4Tf2Dqp9l5QbKsZ8GNY0BUaGWxESAtEeuzJgbQz+Fieg9occcMC7XQ41scNOeOFDVAiInVjEgBtLH8LD7LmY1OSY1+L60FIlAWdmkvjd4Ul86qeT+ItX4ng1x63t/+/NBP5kbMa4OuW315XjHz9eC800YACAf1Nqkz74r+fw5VgcVxkLXKD87o0K3nXXXYePfvSjuPLKK7Fu3TrU1NTomroWWkqJ8XczLm+//TbKyuS3x9TUFKanp9HT04Pbb7/duCtaRsa/S7EtPI8Kg/HvstCi9lv0bpIgtRzDjhH59n3dcBuNXTil+TJnV25gsW12KGsiGBoFgtuU/W4LKjd4KDd3qDe8tLvN90JcwhAeiz0XtTHm9fj8ULNlrXx7+5PvzOGUidnWAeChX8UXDD83XFyOf2iuzdgf6K1ZgemkwIdr8xtV8rs3KnjPP/88XnrpJZw5cwbvvfcepqenkUgkkEwm5W8mCyylxPi7GZdLLrkEyaT8xq6trUVNTQ26u7vx7W9/27grWkbGv0uxLTyPCoPx77LQAgBtfSJV29Ognex3UYzjai3Qj8e0xQ3hof29zJyLl2tuX//l9Pxr/nVrlxYZHvpVHF98WZ70NJO2Syvw6Q/oxwxSfWJtOa6tX9rzZpPfvRGVgAcffBDT09Opi0NXVxfOnj2Lr3zlK1k7BRIZ8TwqVmG4JTfCsKFrRCDUIa/VDbehnTonI3mevNSUPoNupU+OMoBr3zFl2p5AqmHKttmRHgRXsz7lAobwMHsuNmhqVibnBJ5V+vOofmNdBTYYxvYx6xtnZnHHAuGnsS5zHPn0JfrRo/Mh8zOVGG2HtPRi9lZNunCaznzaRZ3La7HbF3Nr5xLcc889mJ2dzXpxWG48X0sDz6Ni1YbAAFLDkjiHleE3tMNtbPICPaEFanBs6BqRp+2RJPUWf7l2xrY7lKpJko4i3dSlDILrNK5PWfoQHmbPxYYafah53DBdRGt9GbZ9cOlB5FtnZnH7S/PDz5wAnlbuJtO6qELC730g/zHFErezhz0SnAjJ80EpYoeb0DDi060rZmaOj7TMt7Nnl+GWz3E/mjb1onPsFLoaM2xPCcNtGA8p623zeeL3+3H77bdnvDBgEcc6V5lseL7KzJQpZDyPlp+Z42OmTKnLdS6qnnt/Dp98fjL180fqyvDS9Wt0Zf757TncFpnCaxn6AJnVubESj2yuAZQ7yf5HZArfOTt/sJ4/+bUq/OWmC7uNXaU9D/IfpYqEbbNDmT1YGYCqRb59Ub4VUV/DoJ+QT3uLYubbCfXfqvT7SrcVZ1tvEUr17FCuyc0GAwg26wc8tO0OIXrfDl2xfOrq6sp5gVhpPF+LD8+jTOdLtvW0nMyei5+4qBzrNaMqvzyZxDOG5q6bLimH5/LcgxcupPc/Z/HhH53Hbw9NYv2/nssYerbUl+Ozly+9dmkhlg0+4aNB3VwyEYcPQpl8L+yRRxeOCnnSvuA2tS03prtFMX07oTw1hUNZr53rJnbYCa9DneAvBEf3XoQXWG8Zyp0IrZqZKyJKVa32Imr8O8lssLXblqW2p1AZjwPPV1oKnkeUS7uhKetvXpXH09HatbESN196YaEkOpXED9+byziAYW2ZhDuurESrchdZvlkn+KhtrcriHPYhqqnuTc8dFUNkGHDdpzSjtB+CT+04Zpiywbb7lFxlPBhAEOn1bft8sGecqb0NgYy98LOtLy26YJOhjdyujEMhL/LxyDSnlyXwfKV84HlEi3TLBn2gCb4+ixfO6W9d/2hdGbo/VIXfuGh5IsQ9V1fh9isurFZpIcvzqgtRh/otQ1kM/UNSk2kq4y+k2WBPDc2Q6U2tUjqlKR/qEQwjMi5fJEJIX3zU6uNs60tZKtiM+WBHetyJhaSr5rXk6vKSPmY8XykfeB7RIt10SQU+arjD6k/H5ndI/p2Ly7HPVoMbL85frUx1GXDAVo17rq4ybsor6wQf0+xobdb+LH8Tkje1Imv9Q7NSRZxa0mM2yGNCyFW7SFUfZ19f8hq7cGrAAe8mE3eYtLvhGvXCqekLoI58ekg3WapV8XylfOB5RGn3GoLH0+/O4dsZmrw+c0k5HmisRkeOPj9fvqYKoY/X4uHNNVmbyD62pgx/uakG+66pQo75Sy8Yg8888jcdedhxAIN74VVHxVTGUQgo31JS4ygoH857tevVPioeYwc+B+yN2ddbRntA7hOQ8/baNgRECA5NM9ly3tFVfHi+Uj7wPKI0z+WV2Gyo9flfL03jxNvzOyG3ri3Hg43V+KtN1fitdZlrf/78mmq0XVqB/7mxEmsNqeaDlRL+9xWV+OuP1ixr85aO0DD8uKySyaRIJBJienra1POaKZNNqAMCHSHjakVU+JohXAPz1ykjeOu3jfmEXVkPuERqr7r1duEbUzeEhCu1XruvbOuXxszxASCef/558dJLL4kzZ86I9957T0xPT4tEIiGSyaSxOGVh9lgvFc9XmZkyxczM72emTDY8j2RmytB8P3w3IfDE+7plzdMT4ofvJoxFU05PzYm/PhMX21+YFPVPT6Qe99VfzgghhJhIJIXjJ+cEnnhfXPfcObF7fFo88fascTfLQnseWGIcHyswc3ykVRvHp7SYPda5yliZmeNjpkwxM/P7mSljZWaOj5kylNkdL0/jW2f0TVy1ZcDj19bhN7PU7qhiU0n8fDKJX00n8XZCHqRwTTlwWZWEj9SWYfOaMqzN86zrC9GeBww+JcLM8WHwyQ+zxzpXGSszc3zMlClmZn4/M2WszMzxMVOGMpucE/jNoUn8zHBXV125hH57DXasz9xfR2s6iXmzr68G7XlQAC+HiIiICk1duYQTW+p0k5dCCUT/bXQK/2dsBokcmfLzL00jOmVuJveVwuBDREREGV1eJSG8pQ6XaEZ0Vv3lr+LY/OPz+NvX5t/xpXp9VuA3hibx0mThhB8GHyIiIsrKUV+Gn35iDVrWzI8Mv5hK4rORaXz4R+dx9y9m8IRhslEJwNm4wA3Dk4gUSPiZ/1sQERERaVxVLeHfrquD67LMt5xHp5K4/5U4Pv3TSdQ9PYHf/9kUel6J481ZuS3sbFxg6/AkTp1f/fDD4ENEREQ51ZdLCDTV4J+21GKjod+P1lQSOPF2Al/6xQx+8n66BuhsXODG4Un8fJXDD4MPERERmXbTJRWIXL8GhxqqcdkCASiTN2cF/mBkyrh6RTH4EBER0aKsq5Cw5+oqvPZb9fi7phr80YYKXFGdOwRdVCHhux+rMa5eURzHp0SYOT4cxyc/zB7rXGWszMzxMVOmmJn5/cyUsTIzx8dMGcqflyeTGJtK4q1ZgbdmBb55Zhbjyu3sa8olPHFtLT550cKDHy4HjuNDREREefeRujI4L62A5/JK/NlVVdikzPlVVy7hB6sUeowYfIiIiGjZ1JQB/7SlFtcXQOgBgw8REREtlyoJCH28Dr+dY26vlcTgQ0RERHmzf//+1P//6iM1+NQHCif0gMGHiIiI8unAgQOp/19l4k6vlcbgQ0RERJbB4ENERESWweBjMepYPRyzh4iIrGjVBzCcm5tDdXW1cTMtk+HhYaxZswb19fVYs2YNampqUF5ezgEMF4HHaeWs1PVoNfA8WjmlfB4VopXMEmZpX9OqBh8hBBKJBGZmZjA5OYnz58/j/PnziMfjSCQSSCZXdyKzbCYnJ3Ho0CHs3bsXdXV1xs0FqaysDBUVFaiqqsKaNWuwZs0a1NXVpUZuliSJF+IStpLvbVpd6h012jtrCt3nPvc5AMDDDz9s3ERFqBCvNwUVfObm5hCPxzE1NYXJyUlMTU0hHo9jbm4u9VpW6jWZ9Y1vfAN9fX3weDz4whe+YNxcULRNW+Xl5aiqqkJtbS3q6upQW1uLqqoqlJeXM/iUuJV8b9PqKrbgMzExgQ9+8IMAgDfffBNr1641FqEiU4jXm4IKPslkErOzs4jH45iensbMzAwSiYQu+BSS8+fP49d//dcRj8dRVVWFH/3oR1izZo2xWMFRg09FRQWqq6tRU1ODqqoqVFZWppq5GHxK10q+t2l1FVvw2bNnD3w+HwDA6/Xiq1/9qrEIFZlCvN4URPCBoZ9PIpHA7OwsZmdnMTc3l2rmWsnXY8b999+Pb33rW5idnUVlZSU+//nP40tf+pKxWEFRA01ZWRnKy8tRWVmJyspKVFRUsH+PRaz0e5tWTzEFn4mJCaxfvx4zMzMAgOrqarzxxhus9SlyhXi9Kajgoy5zc3OpwJNMJlf0dZh17tw5NDQ0pN6kUN6o0WgU9fX1urKFSJIklJWVpQKQtomLwae0rfR7m1ZPMQUftbYnHo8DAKqqqljrUwIK8XpTMMEHhvCjXdRthWTfvn148MEHEY/HUV9fj3PnzqGqqgp33nknDh48aCxeUNRgow06DD3WsRrvbVodxRJ8tLU96p296v9Z61PcCvF6U1DBB5qAY3xu48+raWJiAhs2bEB9fT0qKytx9uxZbNiwAbOzszh37hzOnj1b0G9UY7jRBiEqfav13qaVVyzBZ8+ePfD7/aiqqsKll14KAHjrrbcQj8fR1dXFWp8iVojXG+1rKogBDI21D+qiNssUwvLII4+gsrIS+/btw2uvvQYAeO2117Bv3z5UVFTgkUcemfeYQlqMx1ZdiIhW2sTEBI4dO4YbbrgBjz/+OG677TbcdtttePzxx3HDDTfge9/7HiYmJowPI8qLgqjxKUY8VlRMeL5aR7HU+Jw5cwZXXnklkOE1a7dR8SnE6432NRVEjQ8REVnLQsFmoW1EF4rBh4iIiCyDwYeIiIgsg8GHiIiILIPBh4iIiCyDwYeIiIgsg8GHiIiILIPBh4iIiCyDwYeIiIgsg8GHiIiILIPBh4iIiCyDwYeIiIgsg8GHiIiILIPBh4iIiCyDwYeIiIgsg8GHiIiILIPBh4iIiCyDwYeIiIgsg8GHiIiILIPBh4iIiCyDwYeIiIgsg8GHiIiILIPBZ4mEEMZVREREVOAYfIiIiMgyLBB8YvC3SJAk7dIE/7ixnBlhuJf8WCIiIlptFgg+MntPFEIICCEQ7QG8B8PGIia0ISBOoavRuJ6IiIiKgWWCT2ZybVDT4Zj846AbUosfMQAY96NpXg2RWuMjP87tcadqkdyD6b2GPenapdS+M+5PX1byLCWMERERkVmWCT6R7oZUwGjo60S0r81YRCd80AsotUTZaoiCcCvb7QjeKwem2OEmOBFSapdCcHQ74R/Psr9xP7z9LoSUsq5+L5vRiIiIlpFlgo+uqcvTiwa1ZieLtp0uJSw14dj2UxAZgpK9xQ4AsG12pNZFRiJAv1MJWU4EEUHv8Vjm/TXuQGdzEE5JguQBm9GIiIiWmWWCj5Zteyfso0OIGDdotQfStTObpHQTmAnakCWEwKndtiz7s6FrRK3tkcOStsmMiIiI8suSwSd2vBeR5lbYYYPdodTSAAgfDabKhD1yCLHtPgUx4NI8emH2Fjsi3XshN4yF4VbCTMb9jfvR1OJHDG0IiCh8zfp9ERERUX5ZJvjo+vh0A77jXbApTVpq01QA6YDT1hcCtimdjrcNp8rnYtt9CqEOpflKcmK4J4pAe5b9NXYh5OlFgyRBkhrgdYQQaDfukYiIiPJFEpohiCVJ4ojERCWI723r2L9/v+7fYlCMr5myK8TrjfY1WabGh4iIiIjBh4iIiCyDwYeIiIgsg8GHiIiILIPBh4iIiCyDwQdIz+CuG6RQmY8rHwMKaucAIyIiolXD4KM16sXefAQdIiIiKkgMPhr2Hh+wza2Mumygm11dW0YenVlen551XVvefTRVmIiIiFYRg4/ODhzqGYb3sLFRKgz3pl50jimTnPYMw+kJK81hTmBAmZdrwAHvdj9iiMG/PT0buxvpqTCIiIho9TD4GNh2h9DZp861pRiPYBgReXJRSUJDdwToDyCMCIZGgWBqKoogMNqLYz84ht5ROzq3y5NctO00P9cXERERLR8Gn3ls6LoPcHqOGda7ENLMuC5EAG0AADt8Sk2QvJxC19WGhxIREVFBYPDJpD2AELzwjio/N9rhQDDVBBY73KTcpWVHa3ME3oNK/dCgW+7/07gDnc0R9B6Xy2tnfSciIqLVw+CTRds+H+zpnxAY8wHKDO8N3Q6ERrpggw1dIyG4lNndpW3D8I0F0AYbuo6ny2tnfSciIqLVw9nZiSyA723rKMaZzovxNVN2hXi94ezsREREZEkMPkRERGQZDD5LJEmScRUREREVOAYfIiIisgwGHyIiIrIMBh8iIiKyDAYfIiIisgwGHyIiIrIMBh8iIiKyDAYfIiIisgwGHyIiIrIMBh8iIiKyDAYfIiIisgwGHyIiIsqbQpuZ3YjBZxGee+453HbbbVi/fj0qKiqwfv163HbbbXjuueeMRYmIiKgAMfiY9PDDD+Omm27Cli1b8MILL2B2dhYvvPACtmzZgptuugkPP/yw8SFERERFJ+yR0HQ4ZlwNDLohtfiRYUtRYfAx4dlnn8WePXvwzDPP4K677sLGjRsBABs3bsRdd92FZ555Bnv27MGzzz5rfCgREVERiSEybFynaA9AjHTBZlxfZBh8TPj617+OgwcPoqWlxbgJANDS0oKDBw/i61//unETERFR0YgddsI7CkS6nfCPh+GWmuD2NEGS3Ahra3wG3ZAkCZK63ROWdzDuR5MkQZIkuD3aGqIw3Mp6SWqCf1x9viZIHjfcklzLFPaoZaT0PvOMwceEEydO4NZbbzWu1rn11ltx4sQJ42oiIqKiYdsdgq8ZsPeE0NUIABEMt4QgRABtqVJhuLcF4RoQECKE1uGIsj4G/3Yv0BOFEAJuBNPrW5zAgIAQAmLAAe92TZNZP+AWAqe2H4O334WQkPfr6vemAlI+MfjkkEgkEI/HsW7dOuMmnXXr1iEejxtXExERFTXHZkPj1mAAQbjgbgcAG3Z47PL68WPoHbWjc7tcvm2nS3lABEOjQHCbUpOzLQiM9uKYGmqaW2EHgMYd6GwOwilJkDxAQJxSwld+MfjkUFFRgcbGRpw8edK4SefkyZNobFyGvxAREVHRs8M3ptT4CAGRMdTY0DWi1vY45eayQWOZC1cCwScGf8vytQUCQEdHBx544AHjap0HHngAHR0dxtVERESlpd0NF4IIDAJADMf6lKauxh3obI6g97jSq+eo2tRlR2tzBN6Dyuf0oFvuM6RsTRn3o6nFjxjaEBBR+JqNBfJEaBh+LA4DLoEOl3DBJULGbXm0detWceeddxpXCyGEuPPOO8XWrVuNq4kKRlG+t4loVYQ6IAC78I2FhAsQrgFlw4BLoNknour/IZdzddgFOpRP4DGfsAMCgHB1aMoLeV/qY3xjcvFoj11TRvlZLafuMw+010BJWQEAkCSp4EdcNAp7JAR2CriPSvC2RHFqt9IWOeiGdG8rfA4vvP0A4EJIBNCGGPwtDRjy+DDc7UUEgL1H87gszp07hy9+8Yt44okn8JnPfAZXXHEFXn31VZw4cQKf+tSn8NBDD6G+vt74MKKCUIzvbSIqBvJnaq9n/udo2CPBiRBEX7pb9GrRXgOLvKkrjEC/3MGqbZ8P6DumH1hp1IveFrl3eagjCKemOSzYPQSfEBBjPqDbmbPneH19PR577DGEw2Fce+21OHDgAK699lqEw2E89thjDD1EtLouaHA5+bZl/7h6O3KGZgiiFO2t6Q3wwofQblu664myzdnvQqgAQo9Rcdf4DLohHXUraVK5Xe640mFq0A1pG5RaHuXNvGkIPnEIEUM6DXsMtUUmFN2xIkvj+WoBSi139EIHmDNeO4lKQMnU+ISPBgGl57ckNcA7mu5UBWhukctg3u15iu9973umlsWWJSJarEyDucUONxkGhUsPBgcMYa/6jVs70FyLH351Xy1+xDSDz8mPVfcjj88C6GvIs9N/w1efUx6Uzp/epn3tGdbLr9ENt+ZGldjhptR+5ekT5OdK3eUz7keTrpZKfR2srVptkiQZVxWU4g0+4354+w23x435gO696ZN+dAjqsEqIaP4PYPhFNSDph+ceHR3Fd7/73ZwLgHnrMi2jo6PpnRMRmTXuX/xgbqNB4D4BIaLwwQunOt/SqBdDO5X9jHrRcNQtl9HcgSNrQ2DAJfeJNNNEMR6B/bh6DQ7BpR2bpb8XOJ6+NTkVWLKtHx1G63Eh1+APutHQ7Uj97o7uBrgH5fFigkeVK3xkCJEOH7oaw3Bv6kWn8lkQ7Rk2GdrIsjSdnovqzg9jT3CZpge60uNc7Y0e6lB7iEeFrxnpx475hF3Tw9ysYjpWRDxfi5FyrTLc3aK/9oWES71+DbgENHe3RnuUO2106+V9aq+L9p7ogvvJTfM6lX2knluhPk+29cbnzFpuzCfsyu8e6lB+D81dROllMa+f8q0Qrzfa11SkNT7yuAF2zw5DW3Yb3B1A8F6lirfZBdyrdLIa9iGq+QbjcgyhQZIgbfLCMZBpICUiotW0MoO5XZBBNySpAUP3Ka/TuD3fGnegE704Np6+sUWm1oypC/snUXZFGnzkC0KmzshtfUIze2wrDo0obwRjh7+dgdSbJJB68xARFYgsg7nZNjvSzfiDgdRsSDL9oHL2lmy9HPOo2YdD7RleS39A6XYQRqBf068y23oN22ZHlnI27PAAvdu9CHa45XDTaIcDQXiVZj19Hyii+Yo0+BARlbjGLoQ8vXLNtNQAryMkf0lTRs11ShKkozDUsriAo0r51C3Gi2Rvhd1s5+Z2t9xnSJIgHW2FrzmCIbUzZfMwvJIESXIi2KG89oXWa7UH5L46SrnhnmiqnG23D47RCFw71TqdNgTGfEB3AyRJkvsGGb/oEmkU9+3sq4jHiooJz1daSbHDTWjo65x3a3229VRaCvF6o31NrPEhsoBCuwgREa0W1vgsEY8VERHRfIX4+cgaHyJSBpMz0Y+DitL+/fuxf/9+4+qCVEyvlYpf/oOPOiLovAuqOrcHR9UkIiKi1ZH/4AMAzXbYU7ciKgYDCDbbs04hQURLoB2qX3sLb2pKAsOXEM1UBXtH0qs55D8RWcXyBB90orNDHU9CFj4ahMvTqSmTeY6X1HwsnlwXbnnRDuiVntulCW6Pthpf/1zGuV6aWnixp2IUg3+7F+iJQgiBkEOZomDcj6Ztw8p0LlH4hp3KXEfyPEyuAXmwudZh9b5jDvlPRNaxTMEHsLdo5lSBMsrm9vT2sEcel0IeRFCeP2avJsQEh1sRFQJiwAWoc9ToLugC0R57epTmcT+c3VC2+YD+9MxcuucacCG4TTupXwSO+xY30ufc3Bw2btyIubk54yaiFRTB0KgdndvlG4Pb+pRBPSNDiDR3YkcjlAHf7IiMRJQB5tTRbuX1gDzf0jAi8G6Svxg0dEc0g8cREZWW5Qs+2zthH44oswMH0qNsKtr6lMno5NJoVUYlVaWmo2h3pwfoauzCKZGeXsK22ZEqHzveq0xYBwBtONSjNqrJo36mBrtqP6QfZAt2tC6y/W3Xrl249NJLsWvXLuMmoiLFIf+JyBqWLfik51SRm7nmDZ2u61PQAK9hEvNMw5gDQNijaR7blh4gPTKinXt9vuA2/XOlZ2d3wL6Iebruv/9+nD59GiMjIzh9+jTuv/9+YxGiFWJHq2Z27bBHaRa2t8KemiVbM3WBMuKvdkoDgEP+E5G1LF/wUedUOe5HoD9dHS/T900QmnloFjTohrNf8810ID1Y+7xgpWNPNY+pS6Z5vnL5/ve/D7/fj0cffRQA8Oijj8Lv9+P73/++sSjRCrChayQEhzJUv7PfhVBfm1wzOuBQmq7kZl75fG9DYMClfAlwYsihvmc45D8RWccyBh/Atr0T6PYimOpvkMXg3nk1PrnF4L83XeNj294Ju9oXCGHs7VZrgNrg7ojAe1DpsaDUNC12luNoNIpdu3bhyJEjsNnkjwSbzYYjR45g165diEajxocQrYA2BDI1T7WnJ+FNNylr159CoO9UeltjF05l2g8RUYlZ1uAjV6Fr+uuk2NB1nwsR5RumdNSNUIe2+SmL9kPwNSuT80lO4D4f7OosxY1dCPVA+ZYbQGuqjw/Q1iff2SJJEqRNck1TxonxFrBr1y54vV7cfPPNuvU333wzvF4v+/sQEREVgRKdsiIGf0sDej3RJTVpGd1xxx2YnJzEY489ZtyU8tnPfhZ1dXX45je/adxERLTi1JGQi2FE5GJ6rZRbIWYJ7Wta3hqflaQb30fbr+HCPPTQQzh58iSOHDli3KRz5MgRnDx5Eg899JBxE9GqkyTJuIqIyJJKJ/ho+zQY+zUs0ZNPPom7774bR44cQVnZwoeqrKwMR44cwd13340nn3zSuJmIiIgKwMKf5hb2+uuvY9euXejt7UVzs5lbzoDm5mb09vZi165deP31142biYiIaJUx+GSxa9cueDwe3HLLLcZNC7rlllvg8XjY2ZmIiKgAMfhksHv3btTV1eHAgQPGTaYcOHAAdXV12L17t3ETERERrSIGH4NHH30U4XA4Z2fmXI4cOYJwOJwa7JCIiIhWH4OPwenTp3HkyBGsXbvWuGlR1q5diyNHjuD06dPGTURERLRKGHwM9u/fj+uvv964ekmuv/56jktBRERUQBh8iIiIyDIYfIiIiMgyGHyIiIjIMhh8iIiIyDIYfIiIiMgyGHyIiIjIMhh8iIiIyDIkIYRQf9i6dSuefvppfQkiIiKiInbjjTfiqaeeAozBh4hKkyRJ4FvdWtTBU4thENVieq2UW6Ffb/4/A0aONyf6Hs0AAAAASUVORK5CYII=;" vertex="1" parent="1">
          <mxGeometry x="-328" y="179" width="363.19" height="143" as="geometry" />
        </mxCell>
        <mxCell id="g9klkTqwANIT1uOpOcKC-4" value="" style="shape=image;verticalLabelPosition=bottom;labelBackgroundColor=default;verticalAlign=top;aspect=fixed;imageAspect=0;image=data:image/png,iVBORw0KGgoAAAANSUhEUgAAAj4AAADiCAYAAABOUc3RAAAAAXNSR0IArs4c6QAAAARnQU1BAACxjwv8YQUAAAAJcEhZcwAAFiUAABYlAUlSJPAAADB+SURBVHhe7d17dBvXYSbwb/gmRVmOHcmWXccGQyUCQ0YGvYn7tNXkHDclTG2lrdY1UMJZcePdOGnXNSHGthRVUhSnpgAfp3WSNjZllyzQ5CiVdskAVVvHz6ZNYplMTEawTQaI3Mi15bcp8QGCuPvHzAAzQ4AYUiAJYL7fOXMkzlwMwOFg8OHeO/dKQggBIiIiIgsoM64gIiIiKlUMPkRERGQZDD5ERERkGZK2j8/WrVvx9NNP60sQERERFbEbb7wRTz31FGAMPpIkgX2diYiIqJRo8w2buoiIiMgyGHyIiIjIMhh8iIiIyDJy9vE5/I2g7udMdn/BZVxFREREVBC0+cZU8Ln9j526dVrf/rsQgw8REREVLHZuJiohYY8ESZq/uAeNJRdp0J2f/eRJ7HCT/Lu1+BEzbiQiMslU8Jmansb09Ez636n0z0RUCFwICQGhLKEOILjNjbCx2GK0ByCEQKDduGE1xHCsLyL/d7QXx8aN24mIzDEXfCancfnll2Hj5ZfL/26U/52aZPAhKkT2FjuAYUTG59fcyDUnTfCr4WHcj6ZMNUW6x8Xgb5FrW/ypGiZtsFK2K/toOqypk8m2f20tzrz9GYwfQ+8oYO9wwY4Ieo/P33+Txy0/j1IjpNu3rpYoDLe2dsyT+VnlmjQ3/Kn9aI4ZERUtU8Hn/PlJjIycmrecPz9pLEpEq06tHXHA3mjcZhSDf7sXkWYfomZqikZ7gX0CYswHO4LwKgEn7GmAd1SpdRpwIdLdkA5M2fY/7oezOwJ7TxRChOBCEM4sISR2vBcR2NG57xA6m4FI37F5zV2R4Vb5+Ue6YBt0o6E7AteAkPc96kWDsu+wx4nhniiEEIj22IF+5wLNeUEMbT6lvL4IvAczvz4iKh6mgs/k5BQmpzSL+vPklLEoEa2KIJypWowGeEcB10AAbcZi2Yx60dDih71PQIiFHqeEqUY7HAAiIxEAYQT6AXS45ce1u+ECMPyiJpossP9IdwOaDtsREAKiL9MzK0GuuRM7Gm3Y4bFnbO6ye3bApvw/fDQIwAV3OwC0wd0BYDiCGIC2PoFTuyNwSxIaupXms6zsaLUr/zan90FExctU8Dk/OYnz56fSi/ozgw9RgdD38Yn22BHcZmhyysiGrvuUuzJHvWiY1yxk0NwKu3HdeATDANDvVIKXE8FUKFpg/41d8HXImyLdDfObyFRqM5cSbGzbO+c3d+nEEBmGLgw6+wGMDiGSapJzAgNy7dTCzNSaEVExMRV8Tv78FZz8+WnNkv6ZiAqPHA5MUjoxy805ckBxZgog2Si1P+gIpYKX0NbeLLD/tj6lrBJAIt3Oef1owge9iGjCkbRJ/XlvliY5G+wOzAuDQgTQpoaonmiBdNomopWWM/js/oIr50JEhUXuEwM4NtsAu1xLIzc9ae6OAtIdfT1hAG0IKAHEsVltNDJDaUrqD8hBRNcpeoH9a8u1BxDqQIYaFqUZTekjpK3RAoIIZOmb07bTpdmueQ26JroY/PfmHqCViEqM0DD8SERFINQBAcxf7D3RDGXswtVhF4Bd+MaUjWM+Ydc+tiMkrx9wCQDCNSCEEFHha4ZAs0/Iew0Jl7asuj3Dc2fdvxAi2mPXvWb5uTSU16Dbn9DssyOU+r+xjG7fqddtXG/P+FiROmYuIb9a4+9PRMUEmnyTc+RmIiIiomKmzTc5m7qIiIiISgWDDxEREVkGgw8RERFZBoMPERERWQaDDxEREVkGgw8RERFZhu529muuuQanT3M0ZiIiIiodV199NX75y18CxuDDcXyIiIio1HAcHyIiIrIkBh8iIiKyDAYfIiIisgwGHyIiIrIMBh8iIiKyDAYfIiIisgwGHyIiIrIMBh8iIiKyDAYfIiIisgwGHyIiIrIMBh8iIiKyDAYfIiIisgwGHyIiIrIMBh8iIiKyDAYfIiIisgxJCCFSP0gSND+uuNV8bquRJMm4ioiIqCRp801BBB/1OY3PbfyZls4YdNSfjeuJiIhKTUEFHyEEysrY4rZS4vE4JEmat5B5PF4rZ6WvRyuJ59HKKeXziMwpmOAjhIAQAuXl5Tmfd6VfW7Exc3wkScK5c+dQVlaG8vJylJeXM/wsgdljnauMlZk5PmbKFDMzv5+ZMlZm5viYKUOlT3serHpVC0/IlTU1NYV4PI5EIoG5uTkefyIispRVCz5qbQ8/eFfW5OQkpqenMTs7mwo+/DsQEZFVrFrwUfEDd2VNTU1hZmYGs7OzSCaTPP5ERGQpDD4Wo23mYvAhIiKrWdXgww/dlTc3Nzcv9PDvQEREVrGqwQf80F1xxv48PP5ERJQvr0wnEXorgdBbCTz77hz+75sJHH8jgSffmcNP3p9LlfvFVFL3uJW0arezCyGQTCaRSCRQU1OT83lX8rUVIzPHR5IkPP/886ivr08t1dXVqKioQFlZGW9pN8nssc5VxsrMHB8zZYqZmd/PTBkrM3N8zJShpZtKAsffmMUT78zh5akk/svactyyoQLXX1RuLDrPf8wIVEjAByok1CxzNUxB3c5ORERExWVOAH99ZhYf/vdzePBXs7jpkgo8eW0dHmisNhV6AOCqagkbq5Y/9Bit8NMRERFRMRt8MwH7j8/jb16N4zsfq8VPrqvDf99QgfIiaTRgU1eJMHN82NSVH2aPda4yVmbm+JgpU8zM/H5myliZmeNjpgyZM5ME/nRsGt9+dRZtl1bg6MdqUJcl7bw5KzB6bg6vxgXenhWYE0B9hYT1lRI+UleGj9SWoSzzQ5eF9jxg8CkRZo4Pg09+mD3WucpYmZnjY6ZMMTPz+5kpY2Vmjo+ZMpRbbDqJ//rCFEbOJ3Hv1VU41FAN4yfGW7MCJ96ewz+9NYsfvJvEqzNyB+bfubgcH6iQMPBmIlV268Xl+NQHKvB7l5Tjkyabxi4Eg08JMnN8GHzyw+yxzlXGyswcHzNlipmZ389MGSszc3zMlKGFDU3M4Xd/OoX3EwJ/fk0V9tuqddunksDfvz6L75xN4F/eTocbAPj9Sytwz4eq8DsXl+Mf3kjgD0endNs/VC1h52WVuHVDJa5bu3y9b7TnwfI9CxERERW1V6aTuOlncui5ZUPFvNDz4mQSd45No/PF6XmhBwCEAM7NyYFjQvlX65UZAf8rcXz+5Wn0vzZr3LwsWONTIswcH9b45IfZY52rjJWZOT5myhQzM7+fmTJWZub4mClDmb2bEPjEyUmMTyXxyYvK8ePr6nTbn3xnDj3/EceJt+YHHq1NtWWoKQNGzi88ds/FFRLuuboK3R+qMm66YKzxISIiogV98eUZjE8lsaZcwnc+VqPb9txEEl/55UzO0AMAY1PJnKEHStDaE53B4Vfixk15xeBDREREOv/4VgKB1+Wmpwcaq2HTDLYTm0ri/tMzePLd9EjM2WyuK0PPh6txtLkWf3xZpXHzPAkB3Hc6jsf+c/mavRh8VON+NEkSJOPiCaeKhD0ZtktN8I+ndxM73KTb7h5MbyNaNlnO36bDsQW3a89vsiAT58WC172Mj9dfE6n4TCWBz700DQCw1ZTh9iv0geXR1xL4hzdy1/RcViXh36+rw+4PVeEP11egv6kGf/pruZux3k0IfPNMHKPncgerpWDw0bHDNybPZSUvIbj6nfrw0hHSbBcQ4hS6GuVNscNNaOh2IKR5PLaVZvgJeyRILX4oH6uFa9BdHK8zL+afv45up+ZDaP72eec3WZCJ82KB6968xw844N3E8FPMvnkmjjMzcn+YfTZ9UHnynQT+1mQn5J0bKnFxhb7v6F1X5a71gdKU9tjrucPVUjD4LKgN7g5g+EUzH5th7O2OwDUQQFtqXRsCAy4E7y21D94wAv0uuBy9OMaLWwGzo7U5gqGIcb1qMec3WccFnhftAYQ6IvAeZG1iMZpKAn9xWu5js7ZcgmuDPqgcfSOBV6Zz99cBgMoM98tULWLUwr/9z1n8WDOxab4w+CwojEA/4NhsM26YbzCAIFxwtxvWtwcgRrpgYg/FYzCAYIcbgZ0O3cUtdrgJkscPf4uhulypdfGrVeZqDcygG1KLG+6WdFltU6HcTBODv0VTazbuR1PGanY3Uq9Es959VF1pQePH0DtqR6vduEG1iPObLOTCz4u2nS5gOFJiX/is4e9fn8Wbs3Jtzx+sr0CVJiX87NycbhDC5famMiBivjH46ETg3aRtq3ZiuCeKgDbM9Dt17dm66uDmVmT9jCkh4aPD8O1rA9rdcPUH0oEDAPp7geMZqstHvRjaKSBEFD544VT7nowOo/W4gOhrAwbdmqbCEBzdDXAP2rDDY0fwqPIskSFEOnzoagzDvakXnUoVe7RnGE5PWA5K271ATxRCCLgRTL200mc4fzd54RjQNkmYOL/JgkycFwtd96ikhDR3ae1YX6Hb9qP3k6kmsJXyg3fyH7QYfHQ0bdUDLgAu+HYbvvUY2rp1F4fRIWRtVSgZYQSGO7GjEUqVeBABXV8An/JBa6gub/bhUDsAyEEmMqIeKQfsah+pF4eBDrfSVJh+vG17J+zKt8fw0SBcO9uA8QiGNRfshu4I0B9AWKnl6Nwu/93adrqU57ECY18Nw/lp5vwmCzJxXix03csg9uKwcRUVgTkBXQ2LcZb1kxPmmrjy6bn3k3ghz52cGXyyaQ8g1BGE02zH2HY3XDCEACjNLmb3UQRih70IjnrRoHzzc/YjXRuzXBp3oBO9ODYu9y1KNye6NB3JBYTQ9q+iBS32/CZryNN5ERmJAA57aTXxW8AP35vDpDK68iWVEjZW6fvj/CzPAcSM6aTAL6byW8vE4LOAtr4QXKNe7DWGmYzacKjHjuA2TV8ThOHe5AU8O0rkAhDDsb4IXAPasBGCq9+bvoMj1fRl6CcwqnaElvdhb5nfKGjb7MjyeBt2eIDe7V4E1RqhRjscCMKrNJnFDjfJfYcad6CzOYLe4/L68FErNXUtzuLOb7KKCz4vBt1w9tvl5nAqKtpg8/E1+ngwK4D/MNmpWZUprtSXy6FqMV5RJjvNFwafBWUKM9nZdp+S+5oY2spPGauNi9X4MfSOGjtwt8HdkQ4aaB6GV/ndgx0hXZV473YJktQAL3wIZTom7QHN8dP3M7Dt9sExGpGbuQD5jrkxH9DdoDR1ORAa6YINNnQdT68PYPFNXX6/HxMTE8bVJWhx5zctTvGeR4s9Lwx9hLYNwzem7VtWyuSbL1LjZS1aGO5c4x4tdkiODOXNnos/14yufJHhNnQhgNfiAp0bK/HPW2pxx5W5b0vPFG/Wlkt48to6rDPs38h1WSWOt9Tis5dX4v08d/PhXF0lwszxkZZ5rq7Y4SY09HUiaryLbdANaRsQKpKmqNraWiSTSXR3d6O7uxtr167VbTd7rHOVsTIzx8dMmULG82j5mTk+ZsosXQz+lgb0epb6BTcMt+RF60JBcdAN6d7W+dfVbDKUz3Uuqj7900k88Y5c6/NHGyrw9x+rTW2bSQrc/MIU/uVaeb6uH743B9ep6QVvbf+zq6rwQKN+UlPV8xNz2Do8lZrAVOvGi8vxlEN+nvBbCZycmMO+azLvxyztecAaHyKDr33ta6ioqMADDzyADRs24Mtf/rKpb0tEWjyPipduBH5N7Yl2FGvdnW0je9NDaKTWh+FO1f5ra3XkWiJJkiB5AqldpJrrU4/NUBO0xCE8zJ6L2gwjGb4IS5KE2jIJTynTVESnkkjkCJTRqeyh6Lq15fjHLbWoK5//hXtWyLfVA8DLk0lclKHMhWDwobyx7T6Vecyi9kBRdTy+8847UVNTg8nJSUxPT8Pv9y94sSDKhOdRsQpjbzeUO93k4Tf2Dqp9l5QbKsZ8GNY0BUaGWxESAtEeuzJgbQz+Fieg9occcMC7XQ41scNOeOFDVAiInVjEgBtLH8LD7LmY1OSY1+L60FIlAWdmkvjd4Ul86qeT+ItX4ng1x63t/+/NBP5kbMa4OuW315XjHz9eC800YACAf1Nqkz74r+fw5VgcVxkLXKD87o0K3nXXXYePfvSjuPLKK7Fu3TrU1NTomroWWkqJ8XczLm+//TbKyuS3x9TUFKanp9HT04Pbb7/duCtaRsa/S7EtPI8Kg/HvstCi9lv0bpIgtRzDjhH59n3dcBuNXTil+TJnV25gsW12KGsiGBoFgtuU/W4LKjd4KDd3qDe8tLvN90JcwhAeiz0XtTHm9fj8ULNlrXx7+5PvzOGUidnWAeChX8UXDD83XFyOf2iuzdgf6K1ZgemkwIdr8xtV8rs3KnjPP/88XnrpJZw5cwbvvfcepqenkUgkkEwm5W8mCyylxPi7GZdLLrkEyaT8xq6trUVNTQ26u7vx7W9/27grWkbGv0uxLTyPCoPx77LQAgBtfSJV29Ognex3UYzjai3Qj8e0xQ3hof29zJyLl2tuX//l9Pxr/nVrlxYZHvpVHF98WZ70NJO2Syvw6Q/oxwxSfWJtOa6tX9rzZpPfvRGVgAcffBDT09Opi0NXVxfOnj2Lr3zlK1k7BRIZ8TwqVmG4JTfCsKFrRCDUIa/VDbehnTonI3mevNSUPoNupU+OMoBr3zFl2p5AqmHKttmRHgRXsz7lAobwMHsuNmhqVibnBJ5V+vOofmNdBTYYxvYx6xtnZnHHAuGnsS5zHPn0JfrRo/Mh8zOVGG2HtPRi9lZNunCaznzaRZ3La7HbF3Nr5xLcc889mJ2dzXpxWG48X0sDz6Ni1YbAAFLDkjiHleE3tMNtbPICPaEFanBs6BqRp+2RJPUWf7l2xrY7lKpJko4i3dSlDILrNK5PWfoQHmbPxYYafah53DBdRGt9GbZ9cOlB5FtnZnH7S/PDz5wAnlbuJtO6qELC730g/zHFErezhz0SnAjJ80EpYoeb0DDi060rZmaOj7TMt7Nnl+GWz3E/mjb1onPsFLoaM2xPCcNtGA8p623zeeL3+3H77bdnvDBgEcc6V5lseL7KzJQpZDyPlp+Z42OmTKnLdS6qnnt/Dp98fjL180fqyvDS9Wt0Zf757TncFpnCaxn6AJnVubESj2yuAZQ7yf5HZArfOTt/sJ4/+bUq/OWmC7uNXaU9D/IfpYqEbbNDmT1YGYCqRb59Ub4VUV/DoJ+QT3uLYubbCfXfqvT7SrcVZ1tvEUr17FCuyc0GAwg26wc8tO0OIXrfDl2xfOrq6sp5gVhpPF+LD8+jTOdLtvW0nMyei5+4qBzrNaMqvzyZxDOG5q6bLimH5/LcgxcupPc/Z/HhH53Hbw9NYv2/nssYerbUl+Ozly+9dmkhlg0+4aNB3VwyEYcPQpl8L+yRRxeOCnnSvuA2tS03prtFMX07oTw1hUNZr53rJnbYCa9DneAvBEf3XoQXWG8Zyp0IrZqZKyJKVa32Imr8O8lssLXblqW2p1AZjwPPV1oKnkeUS7uhKetvXpXH09HatbESN196YaEkOpXED9+byziAYW2ZhDuurESrchdZvlkn+KhtrcriHPYhqqnuTc8dFUNkGHDdpzSjtB+CT+04Zpiywbb7lFxlPBhAEOn1bft8sGecqb0NgYy98LOtLy26YJOhjdyujEMhL/LxyDSnlyXwfKV84HlEi3TLBn2gCb4+ixfO6W9d/2hdGbo/VIXfuGh5IsQ9V1fh9isurFZpIcvzqgtRh/otQ1kM/UNSk2kq4y+k2WBPDc2Q6U2tUjqlKR/qEQwjMi5fJEJIX3zU6uNs60tZKtiM+WBHetyJhaSr5rXk6vKSPmY8XykfeB7RIt10SQU+arjD6k/H5ndI/p2Ly7HPVoMbL85frUx1GXDAVo17rq4ybsor6wQf0+xobdb+LH8Tkje1Imv9Q7NSRZxa0mM2yGNCyFW7SFUfZ19f8hq7cGrAAe8mE3eYtLvhGvXCqekLoI58ekg3WapV8XylfOB5RGn3GoLH0+/O4dsZmrw+c0k5HmisRkeOPj9fvqYKoY/X4uHNNVmbyD62pgx/uakG+66pQo75Sy8Yg8888jcdedhxAIN74VVHxVTGUQgo31JS4ygoH857tevVPioeYwc+B+yN2ddbRntA7hOQ8/baNgRECA5NM9ly3tFVfHi+Uj7wPKI0z+WV2Gyo9flfL03jxNvzOyG3ri3Hg43V+KtN1fitdZlrf/78mmq0XVqB/7mxEmsNqeaDlRL+9xWV+OuP1ixr85aO0DD8uKySyaRIJBJienra1POaKZNNqAMCHSHjakVU+JohXAPz1ykjeOu3jfmEXVkPuERqr7r1duEbUzeEhCu1XruvbOuXxszxASCef/558dJLL4kzZ86I9957T0xPT4tEIiGSyaSxOGVh9lgvFc9XmZkyxczM72emTDY8j2RmytB8P3w3IfDE+7plzdMT4ofvJoxFU05PzYm/PhMX21+YFPVPT6Qe99VfzgghhJhIJIXjJ+cEnnhfXPfcObF7fFo88fascTfLQnseWGIcHyswc3ykVRvHp7SYPda5yliZmeNjpkwxM/P7mSljZWaOj5kylNkdL0/jW2f0TVy1ZcDj19bhN7PU7qhiU0n8fDKJX00n8XZCHqRwTTlwWZWEj9SWYfOaMqzN86zrC9GeBww+JcLM8WHwyQ+zxzpXGSszc3zMlClmZn4/M2WszMzxMVOGMpucE/jNoUn8zHBXV125hH57DXasz9xfR2s6iXmzr68G7XlQAC+HiIiICk1duYQTW+p0k5dCCUT/bXQK/2dsBokcmfLzL00jOmVuJveVwuBDREREGV1eJSG8pQ6XaEZ0Vv3lr+LY/OPz+NvX5t/xpXp9VuA3hibx0mThhB8GHyIiIsrKUV+Gn35iDVrWzI8Mv5hK4rORaXz4R+dx9y9m8IRhslEJwNm4wA3Dk4gUSPiZ/1sQERERaVxVLeHfrquD67LMt5xHp5K4/5U4Pv3TSdQ9PYHf/9kUel6J481ZuS3sbFxg6/AkTp1f/fDD4ENEREQ51ZdLCDTV4J+21GKjod+P1lQSOPF2Al/6xQx+8n66BuhsXODG4Un8fJXDD4MPERERmXbTJRWIXL8GhxqqcdkCASiTN2cF/mBkyrh6RTH4EBER0aKsq5Cw5+oqvPZb9fi7phr80YYKXFGdOwRdVCHhux+rMa5eURzHp0SYOT4cxyc/zB7rXGWszMzxMVOmmJn5/cyUsTIzx8dMGcqflyeTGJtK4q1ZgbdmBb55Zhbjyu3sa8olPHFtLT550cKDHy4HjuNDREREefeRujI4L62A5/JK/NlVVdikzPlVVy7hB6sUeowYfIiIiGjZ1JQB/7SlFtcXQOgBgw8REREtlyoJCH28Dr+dY26vlcTgQ0RERHmzf//+1P//6iM1+NQHCif0gMGHiIiI8unAgQOp/19l4k6vlcbgQ0RERJbB4ENERESWweBjMepYPRyzh4iIrGjVBzCcm5tDdXW1cTMtk+HhYaxZswb19fVYs2YNampqUF5ezgEMF4HHaeWs1PVoNfA8WjmlfB4VopXMEmZpX9OqBh8hBBKJBGZmZjA5OYnz58/j/PnziMfjSCQSSCZXdyKzbCYnJ3Ho0CHs3bsXdXV1xs0FqaysDBUVFaiqqsKaNWuwZs0a1NXVpUZuliSJF+IStpLvbVpd6h012jtrCt3nPvc5AMDDDz9s3ERFqBCvNwUVfObm5hCPxzE1NYXJyUlMTU0hHo9jbm4u9VpW6jWZ9Y1vfAN9fX3weDz4whe+YNxcULRNW+Xl5aiqqkJtbS3q6upQW1uLqqoqlJeXM/iUuJV8b9PqKrbgMzExgQ9+8IMAgDfffBNr1641FqEiU4jXm4IKPslkErOzs4jH45iensbMzAwSiYQu+BSS8+fP49d//dcRj8dRVVWFH/3oR1izZo2xWMFRg09FRQWqq6tRU1ODqqoqVFZWppq5GHxK10q+t2l1FVvw2bNnD3w+HwDA6/Xiq1/9qrEIFZlCvN4URPCBoZ9PIpHA7OwsZmdnMTc3l2rmWsnXY8b999+Pb33rW5idnUVlZSU+//nP40tf+pKxWEFRA01ZWRnKy8tRWVmJyspKVFRUsH+PRaz0e5tWTzEFn4mJCaxfvx4zMzMAgOrqarzxxhus9SlyhXi9Kajgoy5zc3OpwJNMJlf0dZh17tw5NDQ0pN6kUN6o0WgU9fX1urKFSJIklJWVpQKQtomLwae0rfR7m1ZPMQUftbYnHo8DAKqqqljrUwIK8XpTMMEHhvCjXdRthWTfvn148MEHEY/HUV9fj3PnzqGqqgp33nknDh48aCxeUNRgow06DD3WsRrvbVodxRJ8tLU96p296v9Z61PcCvF6U1DBB5qAY3xu48+raWJiAhs2bEB9fT0qKytx9uxZbNiwAbOzszh37hzOnj1b0G9UY7jRBiEqfav13qaVVyzBZ8+ePfD7/aiqqsKll14KAHjrrbcQj8fR1dXFWp8iVojXG+1rKogBDI21D+qiNssUwvLII4+gsrIS+/btw2uvvQYAeO2117Bv3z5UVFTgkUcemfeYQlqMx1ZdiIhW2sTEBI4dO4YbbrgBjz/+OG677TbcdtttePzxx3HDDTfge9/7HiYmJowPI8qLgqjxKUY8VlRMeL5aR7HU+Jw5cwZXXnklkOE1a7dR8SnE6432NRVEjQ8REVnLQsFmoW1EF4rBh4iIiCyDwYeIiIgsg8GHiIiILIPBh4iIiCyDwYeIiIgsg8GHiIiILIPBh4iIiCyDwYeIiIgsg8GHiIiILIPBh4iIiCyDwYeIiIgsg8GHiIiILIPBh4iIiCyDwYeIiIgsg8GHiIiILIPBh4iIiCyDwYeIiIgsg8GHiIiILIPBh4iIiCyDwYeIiIgsg8GHiIiILIPBZ4mEEMZVREREVOAYfIiIiMgyLBB8YvC3SJAk7dIE/7ixnBlhuJf8WCIiIlptFgg+MntPFEIICCEQ7QG8B8PGIia0ISBOoavRuJ6IiIiKgWWCT2ZybVDT4Zj846AbUosfMQAY96NpXg2RWuMjP87tcadqkdyD6b2GPenapdS+M+5PX1byLCWMERERkVmWCT6R7oZUwGjo60S0r81YRCd80AsotUTZaoiCcCvb7QjeKwem2OEmOBFSapdCcHQ74R/Psr9xP7z9LoSUsq5+L5vRiIiIlpFlgo+uqcvTiwa1ZieLtp0uJSw14dj2UxAZgpK9xQ4AsG12pNZFRiJAv1MJWU4EEUHv8Vjm/TXuQGdzEE5JguQBm9GIiIiWmWWCj5Zteyfso0OIGDdotQfStTObpHQTmAnakCWEwKndtiz7s6FrRK3tkcOStsmMiIiI8suSwSd2vBeR5lbYYYPdodTSAAgfDabKhD1yCLHtPgUx4NI8emH2Fjsi3XshN4yF4VbCTMb9jfvR1OJHDG0IiCh8zfp9ERERUX5ZJvjo+vh0A77jXbApTVpq01QA6YDT1hcCtimdjrcNp8rnYtt9CqEOpflKcmK4J4pAe5b9NXYh5OlFgyRBkhrgdYQQaDfukYiIiPJFEpohiCVJ4ojERCWI723r2L9/v+7fYlCMr5myK8TrjfY1WabGh4iIiIjBh4iIiCyDwYeIiIgsg8GHiIiILIPBh4iIiCyDwQdIz+CuG6RQmY8rHwMKaucAIyIiolXD4KM16sXefAQdIiIiKkgMPhr2Hh+wza2Mumygm11dW0YenVlen551XVvefTRVmIiIiFYRg4/ODhzqGYb3sLFRKgz3pl50jimTnPYMw+kJK81hTmBAmZdrwAHvdj9iiMG/PT0buxvpqTCIiIho9TD4GNh2h9DZp861pRiPYBgReXJRSUJDdwToDyCMCIZGgWBqKoogMNqLYz84ht5ROzq3y5NctO00P9cXERERLR8Gn3ls6LoPcHqOGda7ENLMuC5EAG0AADt8Sk2QvJxC19WGhxIREVFBYPDJpD2AELzwjio/N9rhQDDVBBY73KTcpWVHa3ME3oNK/dCgW+7/07gDnc0R9B6Xy2tnfSciIqLVw+CTRds+H+zpnxAY8wHKDO8N3Q6ERrpggw1dIyG4lNndpW3D8I0F0AYbuo6ny2tnfSciIqLVw9nZiSyA723rKMaZzovxNVN2hXi94ezsREREZEkMPkRERGQZDD5LJEmScRUREREVOAYfIiIisgwGHyIiIrIMBh8iIiKyDAYfIiIisgwGHyIiIrIMBh8iIiKyDAYfIiIisgwGHyIiIrIMBh8iIiKyDAYfIiIisgwGHyIiIsqbQpuZ3YjBZxGee+453HbbbVi/fj0qKiqwfv163HbbbXjuueeMRYmIiKgAMfiY9PDDD+Omm27Cli1b8MILL2B2dhYvvPACtmzZgptuugkPP/yw8SFERERFJ+yR0HQ4ZlwNDLohtfiRYUtRYfAx4dlnn8WePXvwzDPP4K677sLGjRsBABs3bsRdd92FZ555Bnv27MGzzz5rfCgREVERiSEybFynaA9AjHTBZlxfZBh8TPj617+OgwcPoqWlxbgJANDS0oKDBw/i61//unETERFR0YgddsI7CkS6nfCPh+GWmuD2NEGS3Ahra3wG3ZAkCZK63ROWdzDuR5MkQZIkuD3aGqIw3Mp6SWqCf1x9viZIHjfcklzLFPaoZaT0PvOMwceEEydO4NZbbzWu1rn11ltx4sQJ42oiIqKiYdsdgq8ZsPeE0NUIABEMt4QgRABtqVJhuLcF4RoQECKE1uGIsj4G/3Yv0BOFEAJuBNPrW5zAgIAQAmLAAe92TZNZP+AWAqe2H4O334WQkPfr6vemAlI+MfjkkEgkEI/HsW7dOuMmnXXr1iEejxtXExERFTXHZkPj1mAAQbjgbgcAG3Z47PL68WPoHbWjc7tcvm2nS3lABEOjQHCbUpOzLQiM9uKYGmqaW2EHgMYd6GwOwilJkDxAQJxSwld+MfjkUFFRgcbGRpw8edK4SefkyZNobFyGvxAREVHRs8M3ptT4CAGRMdTY0DWi1vY45eayQWOZC1cCwScGf8vytQUCQEdHBx544AHjap0HHngAHR0dxtVERESlpd0NF4IIDAJADMf6lKauxh3obI6g97jSq+eo2tRlR2tzBN6Dyuf0oFvuM6RsTRn3o6nFjxjaEBBR+JqNBfJEaBh+LA4DLoEOl3DBJULGbXm0detWceeddxpXCyGEuPPOO8XWrVuNq4kKRlG+t4loVYQ6IAC78I2FhAsQrgFlw4BLoNknour/IZdzddgFOpRP4DGfsAMCgHB1aMoLeV/qY3xjcvFoj11TRvlZLafuMw+010BJWQEAkCSp4EdcNAp7JAR2CriPSvC2RHFqt9IWOeiGdG8rfA4vvP0A4EJIBNCGGPwtDRjy+DDc7UUEgL1H87gszp07hy9+8Yt44okn8JnPfAZXXHEFXn31VZw4cQKf+tSn8NBDD6G+vt74MKKCUIzvbSIqBvJnaq9n/udo2CPBiRBEX7pb9GrRXgOLvKkrjEC/3MGqbZ8P6DumH1hp1IveFrl3eagjCKemOSzYPQSfEBBjPqDbmbPneH19PR577DGEw2Fce+21OHDgAK699lqEw2E89thjDD1EtLouaHA5+bZl/7h6O3KGZgiiFO2t6Q3wwofQblu664myzdnvQqgAQo9Rcdf4DLohHXUraVK5Xe640mFq0A1pG5RaHuXNvGkIPnEIEUM6DXsMtUUmFN2xIkvj+WoBSi139EIHmDNeO4lKQMnU+ISPBgGl57ckNcA7mu5UBWhukctg3u15iu9973umlsWWJSJarEyDucUONxkGhUsPBgcMYa/6jVs70FyLH351Xy1+xDSDz8mPVfcjj88C6GvIs9N/w1efUx6Uzp/epn3tGdbLr9ENt+ZGldjhptR+5ekT5OdK3eUz7keTrpZKfR2srVptkiQZVxWU4g0+4354+w23x435gO696ZN+dAjqsEqIaP4PYPhFNSDph+ceHR3Fd7/73ZwLgHnrMi2jo6PpnRMRmTXuX/xgbqNB4D4BIaLwwQunOt/SqBdDO5X9jHrRcNQtl9HcgSNrQ2DAJfeJNNNEMR6B/bh6DQ7BpR2bpb8XOJ6+NTkVWLKtHx1G63Eh1+APutHQ7Uj97o7uBrgH5fFigkeVK3xkCJEOH7oaw3Bv6kWn8lkQ7Rk2GdrIsjSdnovqzg9jT3CZpge60uNc7Y0e6lB7iEeFrxnpx475hF3Tw9ysYjpWRDxfi5FyrTLc3aK/9oWES71+DbgENHe3RnuUO2106+V9aq+L9p7ogvvJTfM6lX2knluhPk+29cbnzFpuzCfsyu8e6lB+D81dROllMa+f8q0Qrzfa11SkNT7yuAF2zw5DW3Yb3B1A8F6lirfZBdyrdLIa9iGq+QbjcgyhQZIgbfLCMZBpICUiotW0MoO5XZBBNySpAUP3Ka/TuD3fGnegE704Np6+sUWm1oypC/snUXZFGnzkC0KmzshtfUIze2wrDo0obwRjh7+dgdSbJJB68xARFYgsg7nZNjvSzfiDgdRsSDL9oHL2lmy9HPOo2YdD7RleS39A6XYQRqBf068y23oN22ZHlnI27PAAvdu9CHa45XDTaIcDQXiVZj19Hyii+Yo0+BARlbjGLoQ8vXLNtNQAryMkf0lTRs11ShKkozDUsriAo0r51C3Gi2Rvhd1s5+Z2t9xnSJIgHW2FrzmCIbUzZfMwvJIESXIi2KG89oXWa7UH5L46SrnhnmiqnG23D47RCFw71TqdNgTGfEB3AyRJkvsGGb/oEmkU9+3sq4jHiooJz1daSbHDTWjo65x3a3229VRaCvF6o31NrPEhsoBCuwgREa0W1vgsEY8VERHRfIX4+cgaHyJSBpMz0Y+DitL+/fuxf/9+4+qCVEyvlYpf/oOPOiLovAuqOrcHR9UkIiKi1ZH/4AMAzXbYU7ciKgYDCDbbs04hQURLoB2qX3sLb2pKAsOXEM1UBXtH0qs55D8RWcXyBB90orNDHU9CFj4ahMvTqSmTeY6X1HwsnlwXbnnRDuiVntulCW6Pthpf/1zGuV6aWnixp2IUg3+7F+iJQgiBkEOZomDcj6Ztw8p0LlH4hp3KXEfyPEyuAXmwudZh9b5jDvlPRNaxTMEHsLdo5lSBMsrm9vT2sEcel0IeRFCeP2avJsQEh1sRFQJiwAWoc9ToLugC0R57epTmcT+c3VC2+YD+9MxcuucacCG4TTupXwSO+xY30ufc3Bw2btyIubk54yaiFRTB0KgdndvlG4Pb+pRBPSNDiDR3YkcjlAHf7IiMRJQB5tTRbuX1gDzf0jAi8G6Svxg0dEc0g8cREZWW5Qs+2zthH44oswMH0qNsKtr6lMno5NJoVUYlVaWmo2h3pwfoauzCKZGeXsK22ZEqHzveq0xYBwBtONSjNqrJo36mBrtqP6QfZAt2tC6y/W3Xrl249NJLsWvXLuMmoiLFIf+JyBqWLfik51SRm7nmDZ2u61PQAK9hEvNMw5gDQNijaR7blh4gPTKinXt9vuA2/XOlZ2d3wL6Iebruv/9+nD59GiMjIzh9+jTuv/9+YxGiFWJHq2Z27bBHaRa2t8KemiVbM3WBMuKvdkoDgEP+E5G1LF/wUedUOe5HoD9dHS/T900QmnloFjTohrNf8810ID1Y+7xgpWNPNY+pS6Z5vnL5/ve/D7/fj0cffRQA8Oijj8Lv9+P73/++sSjRCrChayQEhzJUv7PfhVBfm1wzOuBQmq7kZl75fG9DYMClfAlwYsihvmc45D8RWccyBh/Atr0T6PYimOpvkMXg3nk1PrnF4L83XeNj294Ju9oXCGHs7VZrgNrg7ojAe1DpsaDUNC12luNoNIpdu3bhyJEjsNnkjwSbzYYjR45g165diEajxocQrYA2BDI1T7WnJ+FNNylr159CoO9UeltjF05l2g8RUYlZ1uAjV6Fr+uuk2NB1nwsR5RumdNSNUIe2+SmL9kPwNSuT80lO4D4f7OosxY1dCPVA+ZYbQGuqjw/Q1iff2SJJEqRNck1TxonxFrBr1y54vV7cfPPNuvU333wzvF4v+/sQEREVgRKdsiIGf0sDej3RJTVpGd1xxx2YnJzEY489ZtyU8tnPfhZ1dXX45je/adxERLTi1JGQi2FE5GJ6rZRbIWYJ7Wta3hqflaQb30fbr+HCPPTQQzh58iSOHDli3KRz5MgRnDx5Eg899JBxE9GqkyTJuIqIyJJKJ/ho+zQY+zUs0ZNPPom7774bR44cQVnZwoeqrKwMR44cwd13340nn3zSuJmIiIgKwMKf5hb2+uuvY9euXejt7UVzs5lbzoDm5mb09vZi165deP31142biYiIaJUx+GSxa9cueDwe3HLLLcZNC7rlllvg8XjY2ZmIiKgAMfhksHv3btTV1eHAgQPGTaYcOHAAdXV12L17t3ETERERrSIGH4NHH30U4XA4Z2fmXI4cOYJwOJwa7JCIiIhWH4OPwenTp3HkyBGsXbvWuGlR1q5diyNHjuD06dPGTURERLRKGHwM9u/fj+uvv964ekmuv/56jktBRERUQBh8iIiIyDIYfIiIiMgyGHyIiIjIMhh8iIiIyDIYfIiIiMgyGHyIiIjIMhh8iIiIyDIkIYRQf9i6dSuefvppfQkiIiKiInbjjTfiqaeeAozBh4hKkyRJ4FvdWtTBU4thENVieq2UW6Ffb/4/A0aONyf6Hs0AAAAASUVORK5CYII=;" vertex="1" parent="1">
          <mxGeometry x="-376.19000000000005" y="258" width="363.19" height="143" as="geometry" />
        </mxCell>
        <mxCell id="g9klkTqwANIT1uOpOcKC-5" value="" style="shape=image;verticalLabelPosition=bottom;labelBackgroundColor=default;verticalAlign=top;aspect=fixed;imageAspect=0;image=data:image/png,iVBORw0KGgoAAAANSUhEUgAAAj4AAADiCAYAAABOUc3RAAAAAXNSR0IArs4c6QAAAARnQU1BAACxjwv8YQUAAAAJcEhZcwAAFiUAABYlAUlSJPAAADB+SURBVHhe7d17dBvXYSbwb/gmRVmOHcmWXccGQyUCQ0YGvYn7tNXkHDclTG2lrdY1UMJZcePdOGnXNSHGthRVUhSnpgAfp3WSNjZllyzQ5CiVdskAVVvHz6ZNYplMTEawTQaI3Mi15bcp8QGCuPvHzAAzQ4AYUiAJYL7fOXMkzlwMwOFg8OHeO/dKQggBIiIiIgsoM64gIiIiKlUMPkRERGQZDD5ERERkGZK2j8/WrVvx9NNP60sQERERFbEbb7wRTz31FGAMPpIkgX2diYiIqJRo8w2buoiIiMgyGHyIiIjIMhh8iIiIyDJy9vE5/I2g7udMdn/BZVxFREREVBC0+cZU8Ln9j526dVrf/rsQgw8REREVLHZuJiohYY8ESZq/uAeNJRdp0J2f/eRJ7HCT/Lu1+BEzbiQiMslU8Jmansb09Ez636n0z0RUCFwICQGhLKEOILjNjbCx2GK0ByCEQKDduGE1xHCsLyL/d7QXx8aN24mIzDEXfCancfnll2Hj5ZfL/26U/52aZPAhKkT2FjuAYUTG59fcyDUnTfCr4WHcj6ZMNUW6x8Xgb5FrW/ypGiZtsFK2K/toOqypk8m2f20tzrz9GYwfQ+8oYO9wwY4Ieo/P33+Txy0/j1IjpNu3rpYoDLe2dsyT+VnlmjQ3/Kn9aI4ZERUtU8Hn/PlJjIycmrecPz9pLEpEq06tHXHA3mjcZhSDf7sXkWYfomZqikZ7gX0CYswHO4LwKgEn7GmAd1SpdRpwIdLdkA5M2fY/7oezOwJ7TxRChOBCEM4sISR2vBcR2NG57xA6m4FI37F5zV2R4Vb5+Ue6YBt0o6E7AteAkPc96kWDsu+wx4nhniiEEIj22IF+5wLNeUEMbT6lvL4IvAczvz4iKh6mgs/k5BQmpzSL+vPklLEoEa2KIJypWowGeEcB10AAbcZi2Yx60dDih71PQIiFHqeEqUY7HAAiIxEAYQT6AXS45ce1u+ECMPyiJpossP9IdwOaDtsREAKiL9MzK0GuuRM7Gm3Y4bFnbO6ye3bApvw/fDQIwAV3OwC0wd0BYDiCGIC2PoFTuyNwSxIaupXms6zsaLUr/zan90FExctU8Dk/OYnz56fSi/ozgw9RgdD38Yn22BHcZmhyysiGrvuUuzJHvWiY1yxk0NwKu3HdeATDANDvVIKXE8FUKFpg/41d8HXImyLdDfObyFRqM5cSbGzbO+c3d+nEEBmGLgw6+wGMDiGSapJzAgNy7dTCzNSaEVExMRV8Tv78FZz8+WnNkv6ZiAqPHA5MUjoxy805ckBxZgog2Si1P+gIpYKX0NbeLLD/tj6lrBJAIt3Oef1owge9iGjCkbRJ/XlvliY5G+wOzAuDQgTQpoaonmiBdNomopWWM/js/oIr50JEhUXuEwM4NtsAu1xLIzc9ae6OAtIdfT1hAG0IKAHEsVltNDJDaUrqD8hBRNcpeoH9a8u1BxDqQIYaFqUZTekjpK3RAoIIZOmb07bTpdmueQ26JroY/PfmHqCViEqM0DD8SERFINQBAcxf7D3RDGXswtVhF4Bd+MaUjWM+Ydc+tiMkrx9wCQDCNSCEEFHha4ZAs0/Iew0Jl7asuj3Dc2fdvxAi2mPXvWb5uTSU16Dbn9DssyOU+r+xjG7fqddtXG/P+FiROmYuIb9a4+9PRMUEmnyTc+RmIiIiomKmzTc5m7qIiIiISgWDDxEREVkGgw8RERFZBoMPERERWQaDDxEREVkGgw8RERFZhu529muuuQanT3M0ZiIiIiodV199NX75y18CxuDDcXyIiIio1HAcHyIiIrIkBh8iIiKyDAYfIiIisgwGHyIiIrIMBh8iIiKyDAYfIiIisgwGHyIiIrIMBh8iIiKyDAYfIiIisgwGHyIiIrIMBh8iIiKyDAYfIiIisgwGHyIiIrIMBh8iIiKyDAYfIiIisgxJCCFSP0gSND+uuNV8bquRJMm4ioiIqCRp801BBB/1OY3PbfyZls4YdNSfjeuJiIhKTUEFHyEEysrY4rZS4vE4JEmat5B5PF4rZ6WvRyuJ59HKKeXziMwpmOAjhIAQAuXl5Tmfd6VfW7Exc3wkScK5c+dQVlaG8vJylJeXM/wsgdljnauMlZk5PmbKFDMzv5+ZMlZm5viYKUOlT3serHpVC0/IlTU1NYV4PI5EIoG5uTkefyIispRVCz5qbQ8/eFfW5OQkpqenMTs7mwo+/DsQEZFVrFrwUfEDd2VNTU1hZmYGs7OzSCaTPP5ERGQpDD4Wo23mYvAhIiKrWdXgww/dlTc3Nzcv9PDvQEREVrGqwQf80F1xxv48PP5ERJQvr0wnEXorgdBbCTz77hz+75sJHH8jgSffmcNP3p9LlfvFVFL3uJW0arezCyGQTCaRSCRQU1OT83lX8rUVIzPHR5IkPP/886ivr08t1dXVqKioQFlZGW9pN8nssc5VxsrMHB8zZYqZmd/PTBkrM3N8zJShpZtKAsffmMUT78zh5akk/svactyyoQLXX1RuLDrPf8wIVEjAByok1CxzNUxB3c5ORERExWVOAH99ZhYf/vdzePBXs7jpkgo8eW0dHmisNhV6AOCqagkbq5Y/9Bit8NMRERFRMRt8MwH7j8/jb16N4zsfq8VPrqvDf99QgfIiaTRgU1eJMHN82NSVH2aPda4yVmbm+JgpU8zM/H5myliZmeNjpgyZM5ME/nRsGt9+dRZtl1bg6MdqUJcl7bw5KzB6bg6vxgXenhWYE0B9hYT1lRI+UleGj9SWoSzzQ5eF9jxg8CkRZo4Pg09+mD3WucpYmZnjY6ZMMTPz+5kpY2Vmjo+ZMpRbbDqJ//rCFEbOJ3Hv1VU41FAN4yfGW7MCJ96ewz+9NYsfvJvEqzNyB+bfubgcH6iQMPBmIlV268Xl+NQHKvB7l5Tjkyabxi4Eg08JMnN8GHzyw+yxzlXGyswcHzNlipmZ389MGSszc3zMlKGFDU3M4Xd/OoX3EwJ/fk0V9tuqddunksDfvz6L75xN4F/eTocbAPj9Sytwz4eq8DsXl+Mf3kjgD0endNs/VC1h52WVuHVDJa5bu3y9b7TnwfI9CxERERW1V6aTuOlncui5ZUPFvNDz4mQSd45No/PF6XmhBwCEAM7NyYFjQvlX65UZAf8rcXz+5Wn0vzZr3LwsWONTIswcH9b45IfZY52rjJWZOT5myhQzM7+fmTJWZub4mClDmb2bEPjEyUmMTyXxyYvK8ePr6nTbn3xnDj3/EceJt+YHHq1NtWWoKQNGzi88ds/FFRLuuboK3R+qMm66YKzxISIiogV98eUZjE8lsaZcwnc+VqPb9txEEl/55UzO0AMAY1PJnKEHStDaE53B4Vfixk15xeBDREREOv/4VgKB1+Wmpwcaq2HTDLYTm0ri/tMzePLd9EjM2WyuK0PPh6txtLkWf3xZpXHzPAkB3Hc6jsf+c/mavRh8VON+NEkSJOPiCaeKhD0ZtktN8I+ndxM73KTb7h5MbyNaNlnO36bDsQW3a89vsiAT58WC172Mj9dfE6n4TCWBz700DQCw1ZTh9iv0geXR1xL4hzdy1/RcViXh36+rw+4PVeEP11egv6kGf/pruZux3k0IfPNMHKPncgerpWDw0bHDNybPZSUvIbj6nfrw0hHSbBcQ4hS6GuVNscNNaOh2IKR5PLaVZvgJeyRILX4oH6uFa9BdHK8zL+afv45up+ZDaP72eec3WZCJ82KB6968xw844N3E8FPMvnkmjjMzcn+YfTZ9UHnynQT+1mQn5J0bKnFxhb7v6F1X5a71gdKU9tjrucPVUjD4LKgN7g5g+EUzH5th7O2OwDUQQFtqXRsCAy4E7y21D94wAv0uuBy9OMaLWwGzo7U5gqGIcb1qMec3WccFnhftAYQ6IvAeZG1iMZpKAn9xWu5js7ZcgmuDPqgcfSOBV6Zz99cBgMoM98tULWLUwr/9z1n8WDOxab4w+CwojEA/4NhsM26YbzCAIFxwtxvWtwcgRrpgYg/FYzCAYIcbgZ0O3cUtdrgJkscPf4uhulypdfGrVeZqDcygG1KLG+6WdFltU6HcTBODv0VTazbuR1PGanY3Uq9Es959VF1pQePH0DtqR6vduEG1iPObLOTCz4u2nS5gOFJiX/is4e9fn8Wbs3Jtzx+sr0CVJiX87NycbhDC5famMiBivjH46ETg3aRtq3ZiuCeKgDbM9Dt17dm66uDmVmT9jCkh4aPD8O1rA9rdcPUH0oEDAPp7geMZqstHvRjaKSBEFD544VT7nowOo/W4gOhrAwbdmqbCEBzdDXAP2rDDY0fwqPIskSFEOnzoagzDvakXnUoVe7RnGE5PWA5K271ATxRCCLgRTL200mc4fzd54RjQNkmYOL/JgkycFwtd96ikhDR3ae1YX6Hb9qP3k6kmsJXyg3fyH7QYfHQ0bdUDLgAu+HYbvvUY2rp1F4fRIWRtVSgZYQSGO7GjEUqVeBABXV8An/JBa6gub/bhUDsAyEEmMqIeKQfsah+pF4eBDrfSVJh+vG17J+zKt8fw0SBcO9uA8QiGNRfshu4I0B9AWKnl6Nwu/93adrqU57ECY18Nw/lp5vwmCzJxXix03csg9uKwcRUVgTkBXQ2LcZb1kxPmmrjy6bn3k3ghz52cGXyyaQ8g1BGE02zH2HY3XDCEACjNLmb3UQRih70IjnrRoHzzc/YjXRuzXBp3oBO9ODYu9y1KNye6NB3JBYTQ9q+iBS32/CZryNN5ERmJAA57aTXxW8AP35vDpDK68iWVEjZW6fvj/CzPAcSM6aTAL6byW8vE4LOAtr4QXKNe7DWGmYzacKjHjuA2TV8ThOHe5AU8O0rkAhDDsb4IXAPasBGCq9+bvoMj1fRl6CcwqnaElvdhb5nfKGjb7MjyeBt2eIDe7V4E1RqhRjscCMKrNJnFDjfJfYcad6CzOYLe4/L68FErNXUtzuLOb7KKCz4vBt1w9tvl5nAqKtpg8/E1+ngwK4D/MNmpWZUprtSXy6FqMV5RJjvNFwafBWUKM9nZdp+S+5oY2spPGauNi9X4MfSOGjtwt8HdkQ4aaB6GV/ndgx0hXZV473YJktQAL3wIZTom7QHN8dP3M7Dt9sExGpGbuQD5jrkxH9DdoDR1ORAa6YINNnQdT68PYPFNXX6/HxMTE8bVJWhx5zctTvGeR4s9Lwx9hLYNwzem7VtWyuSbL1LjZS1aGO5c4x4tdkiODOXNnos/14yufJHhNnQhgNfiAp0bK/HPW2pxx5W5b0vPFG/Wlkt48to6rDPs38h1WSWOt9Tis5dX4v08d/PhXF0lwszxkZZ5rq7Y4SY09HUiaryLbdANaRsQKpKmqNraWiSTSXR3d6O7uxtr167VbTd7rHOVsTIzx8dMmULG82j5mTk+ZsosXQz+lgb0epb6BTcMt+RF60JBcdAN6d7W+dfVbDKUz3Uuqj7900k88Y5c6/NHGyrw9x+rTW2bSQrc/MIU/uVaeb6uH743B9ep6QVvbf+zq6rwQKN+UlPV8xNz2Do8lZrAVOvGi8vxlEN+nvBbCZycmMO+azLvxyztecAaHyKDr33ta6ioqMADDzyADRs24Mtf/rKpb0tEWjyPipduBH5N7Yl2FGvdnW0je9NDaKTWh+FO1f5ra3XkWiJJkiB5AqldpJrrU4/NUBO0xCE8zJ6L2gwjGb4IS5KE2jIJTynTVESnkkjkCJTRqeyh6Lq15fjHLbWoK5//hXtWyLfVA8DLk0lclKHMhWDwobyx7T6Vecyi9kBRdTy+8847UVNTg8nJSUxPT8Pv9y94sSDKhOdRsQpjbzeUO93k4Tf2Dqp9l5QbKsZ8GNY0BUaGWxESAtEeuzJgbQz+Fieg9occcMC7XQ41scNOeOFDVAiInVjEgBtLH8LD7LmY1OSY1+L60FIlAWdmkvjd4Ul86qeT+ItX4ng1x63t/+/NBP5kbMa4OuW315XjHz9eC800YACAf1Nqkz74r+fw5VgcVxkLXKD87o0K3nXXXYePfvSjuPLKK7Fu3TrU1NTomroWWkqJ8XczLm+//TbKyuS3x9TUFKanp9HT04Pbb7/duCtaRsa/S7EtPI8Kg/HvstCi9lv0bpIgtRzDjhH59n3dcBuNXTil+TJnV25gsW12KGsiGBoFgtuU/W4LKjd4KDd3qDe8tLvN90JcwhAeiz0XtTHm9fj8ULNlrXx7+5PvzOGUidnWAeChX8UXDD83XFyOf2iuzdgf6K1ZgemkwIdr8xtV8rs3KnjPP/88XnrpJZw5cwbvvfcepqenkUgkkEwm5W8mCyylxPi7GZdLLrkEyaT8xq6trUVNTQ26u7vx7W9/27grWkbGv0uxLTyPCoPx77LQAgBtfSJV29Ognex3UYzjai3Qj8e0xQ3hof29zJyLl2tuX//l9Pxr/nVrlxYZHvpVHF98WZ70NJO2Syvw6Q/oxwxSfWJtOa6tX9rzZpPfvRGVgAcffBDT09Opi0NXVxfOnj2Lr3zlK1k7BRIZ8TwqVmG4JTfCsKFrRCDUIa/VDbehnTonI3mevNSUPoNupU+OMoBr3zFl2p5AqmHKttmRHgRXsz7lAobwMHsuNmhqVibnBJ5V+vOofmNdBTYYxvYx6xtnZnHHAuGnsS5zHPn0JfrRo/Mh8zOVGG2HtPRi9lZNunCaznzaRZ3La7HbF3Nr5xLcc889mJ2dzXpxWG48X0sDz6Ni1YbAAFLDkjiHleE3tMNtbPICPaEFanBs6BqRp+2RJPUWf7l2xrY7lKpJko4i3dSlDILrNK5PWfoQHmbPxYYafah53DBdRGt9GbZ9cOlB5FtnZnH7S/PDz5wAnlbuJtO6qELC730g/zHFErezhz0SnAjJ80EpYoeb0DDi060rZmaOj7TMt7Nnl+GWz3E/mjb1onPsFLoaM2xPCcNtGA8p623zeeL3+3H77bdnvDBgEcc6V5lseL7KzJQpZDyPlp+Z42OmTKnLdS6qnnt/Dp98fjL180fqyvDS9Wt0Zf757TncFpnCaxn6AJnVubESj2yuAZQ7yf5HZArfOTt/sJ4/+bUq/OWmC7uNXaU9D/IfpYqEbbNDmT1YGYCqRb59Ub4VUV/DoJ+QT3uLYubbCfXfqvT7SrcVZ1tvEUr17FCuyc0GAwg26wc8tO0OIXrfDl2xfOrq6sp5gVhpPF+LD8+jTOdLtvW0nMyei5+4qBzrNaMqvzyZxDOG5q6bLimH5/LcgxcupPc/Z/HhH53Hbw9NYv2/nssYerbUl+Ozly+9dmkhlg0+4aNB3VwyEYcPQpl8L+yRRxeOCnnSvuA2tS03prtFMX07oTw1hUNZr53rJnbYCa9DneAvBEf3XoQXWG8Zyp0IrZqZKyJKVa32Imr8O8lssLXblqW2p1AZjwPPV1oKnkeUS7uhKetvXpXH09HatbESN196YaEkOpXED9+byziAYW2ZhDuurESrchdZvlkn+KhtrcriHPYhqqnuTc8dFUNkGHDdpzSjtB+CT+04Zpiywbb7lFxlPBhAEOn1bft8sGecqb0NgYy98LOtLy26YJOhjdyujEMhL/LxyDSnlyXwfKV84HlEi3TLBn2gCb4+ixfO6W9d/2hdGbo/VIXfuGh5IsQ9V1fh9isurFZpIcvzqgtRh/otQ1kM/UNSk2kq4y+k2WBPDc2Q6U2tUjqlKR/qEQwjMi5fJEJIX3zU6uNs60tZKtiM+WBHetyJhaSr5rXk6vKSPmY8XykfeB7RIt10SQU+arjD6k/H5ndI/p2Ly7HPVoMbL85frUx1GXDAVo17rq4ybsor6wQf0+xobdb+LH8Tkje1Imv9Q7NSRZxa0mM2yGNCyFW7SFUfZ19f8hq7cGrAAe8mE3eYtLvhGvXCqekLoI58ekg3WapV8XylfOB5RGn3GoLH0+/O4dsZmrw+c0k5HmisRkeOPj9fvqYKoY/X4uHNNVmbyD62pgx/uakG+66pQo75Sy8Yg8888jcdedhxAIN74VVHxVTGUQgo31JS4ygoH857tevVPioeYwc+B+yN2ddbRntA7hOQ8/baNgRECA5NM9ly3tFVfHi+Uj7wPKI0z+WV2Gyo9flfL03jxNvzOyG3ri3Hg43V+KtN1fitdZlrf/78mmq0XVqB/7mxEmsNqeaDlRL+9xWV+OuP1ixr85aO0DD8uKySyaRIJBJienra1POaKZNNqAMCHSHjakVU+JohXAPz1ykjeOu3jfmEXVkPuERqr7r1duEbUzeEhCu1XruvbOuXxszxASCef/558dJLL4kzZ86I9957T0xPT4tEIiGSyaSxOGVh9lgvFc9XmZkyxczM72emTDY8j2RmytB8P3w3IfDE+7plzdMT4ofvJoxFU05PzYm/PhMX21+YFPVPT6Qe99VfzgghhJhIJIXjJ+cEnnhfXPfcObF7fFo88fascTfLQnseWGIcHyswc3ykVRvHp7SYPda5yliZmeNjpkwxM/P7mSljZWaOj5kylNkdL0/jW2f0TVy1ZcDj19bhN7PU7qhiU0n8fDKJX00n8XZCHqRwTTlwWZWEj9SWYfOaMqzN86zrC9GeBww+JcLM8WHwyQ+zxzpXGSszc3zMlClmZn4/M2WszMzxMVOGMpucE/jNoUn8zHBXV125hH57DXasz9xfR2s6iXmzr68G7XlQAC+HiIiICk1duYQTW+p0k5dCCUT/bXQK/2dsBokcmfLzL00jOmVuJveVwuBDREREGV1eJSG8pQ6XaEZ0Vv3lr+LY/OPz+NvX5t/xpXp9VuA3hibx0mThhB8GHyIiIsrKUV+Gn35iDVrWzI8Mv5hK4rORaXz4R+dx9y9m8IRhslEJwNm4wA3Dk4gUSPiZ/1sQERERaVxVLeHfrquD67LMt5xHp5K4/5U4Pv3TSdQ9PYHf/9kUel6J481ZuS3sbFxg6/AkTp1f/fDD4ENEREQ51ZdLCDTV4J+21GKjod+P1lQSOPF2Al/6xQx+8n66BuhsXODG4Un8fJXDD4MPERERmXbTJRWIXL8GhxqqcdkCASiTN2cF/mBkyrh6RTH4EBER0aKsq5Cw5+oqvPZb9fi7phr80YYKXFGdOwRdVCHhux+rMa5eURzHp0SYOT4cxyc/zB7rXGWszMzxMVOmmJn5/cyUsTIzx8dMGcqflyeTGJtK4q1ZgbdmBb55Zhbjyu3sa8olPHFtLT550cKDHy4HjuNDREREefeRujI4L62A5/JK/NlVVdikzPlVVy7hB6sUeowYfIiIiGjZ1JQB/7SlFtcXQOgBgw8REREtlyoJCH28Dr+dY26vlcTgQ0RERHmzf//+1P//6iM1+NQHCif0gMGHiIiI8unAgQOp/19l4k6vlcbgQ0RERJbB4ENERESWweBjMepYPRyzh4iIrGjVBzCcm5tDdXW1cTMtk+HhYaxZswb19fVYs2YNampqUF5ezgEMF4HHaeWs1PVoNfA8WjmlfB4VopXMEmZpX9OqBh8hBBKJBGZmZjA5OYnz58/j/PnziMfjSCQSSCZXdyKzbCYnJ3Ho0CHs3bsXdXV1xs0FqaysDBUVFaiqqsKaNWuwZs0a1NXVpUZuliSJF+IStpLvbVpd6h012jtrCt3nPvc5AMDDDz9s3ERFqBCvNwUVfObm5hCPxzE1NYXJyUlMTU0hHo9jbm4u9VpW6jWZ9Y1vfAN9fX3weDz4whe+YNxcULRNW+Xl5aiqqkJtbS3q6upQW1uLqqoqlJeXM/iUuJV8b9PqKrbgMzExgQ9+8IMAgDfffBNr1641FqEiU4jXm4IKPslkErOzs4jH45iensbMzAwSiYQu+BSS8+fP49d//dcRj8dRVVWFH/3oR1izZo2xWMFRg09FRQWqq6tRU1ODqqoqVFZWppq5GHxK10q+t2l1FVvw2bNnD3w+HwDA6/Xiq1/9qrEIFZlCvN4URPCBoZ9PIpHA7OwsZmdnMTc3l2rmWsnXY8b999+Pb33rW5idnUVlZSU+//nP40tf+pKxWEFRA01ZWRnKy8tRWVmJyspKVFRUsH+PRaz0e5tWTzEFn4mJCaxfvx4zMzMAgOrqarzxxhus9SlyhXi9Kajgoy5zc3OpwJNMJlf0dZh17tw5NDQ0pN6kUN6o0WgU9fX1urKFSJIklJWVpQKQtomLwae0rfR7m1ZPMQUftbYnHo8DAKqqqljrUwIK8XpTMMEHhvCjXdRthWTfvn148MEHEY/HUV9fj3PnzqGqqgp33nknDh48aCxeUNRgow06DD3WsRrvbVodxRJ8tLU96p296v9Z61PcCvF6U1DBB5qAY3xu48+raWJiAhs2bEB9fT0qKytx9uxZbNiwAbOzszh37hzOnj1b0G9UY7jRBiEqfav13qaVVyzBZ8+ePfD7/aiqqsKll14KAHjrrbcQj8fR1dXFWp8iVojXG+1rKogBDI21D+qiNssUwvLII4+gsrIS+/btw2uvvQYAeO2117Bv3z5UVFTgkUcemfeYQlqMx1ZdiIhW2sTEBI4dO4YbbrgBjz/+OG677TbcdtttePzxx3HDDTfge9/7HiYmJowPI8qLgqjxKUY8VlRMeL5aR7HU+Jw5cwZXXnklkOE1a7dR8SnE6432NRVEjQ8REVnLQsFmoW1EF4rBh4iIiCyDwYeIiIgsg8GHiIiILIPBh4iIiCyDwYeIiIgsg8GHiIiILIPBh4iIiCyDwYeIiIgsg8GHiIiILIPBh4iIiCyDwYeIiIgsg8GHiIiILIPBh4iIiCyDwYeIiIgsg8GHiIiILIPBh4iIiCyDwYeIiIgsg8GHiIiILIPBh4iIiCyDwYeIiIgsg8GHiIiILIPBZ4mEEMZVREREVOAYfIiIiMgyLBB8YvC3SJAk7dIE/7ixnBlhuJf8WCIiIlptFgg+MntPFEIICCEQ7QG8B8PGIia0ISBOoavRuJ6IiIiKgWWCT2ZybVDT4Zj846AbUosfMQAY96NpXg2RWuMjP87tcadqkdyD6b2GPenapdS+M+5PX1byLCWMERERkVmWCT6R7oZUwGjo60S0r81YRCd80AsotUTZaoiCcCvb7QjeKwem2OEmOBFSapdCcHQ74R/Psr9xP7z9LoSUsq5+L5vRiIiIlpFlgo+uqcvTiwa1ZieLtp0uJSw14dj2UxAZgpK9xQ4AsG12pNZFRiJAv1MJWU4EEUHv8Vjm/TXuQGdzEE5JguQBm9GIiIiWmWWCj5Zteyfso0OIGDdotQfStTObpHQTmAnakCWEwKndtiz7s6FrRK3tkcOStsmMiIiI8suSwSd2vBeR5lbYYYPdodTSAAgfDabKhD1yCLHtPgUx4NI8emH2Fjsi3XshN4yF4VbCTMb9jfvR1OJHDG0IiCh8zfp9ERERUX5ZJvjo+vh0A77jXbApTVpq01QA6YDT1hcCtimdjrcNp8rnYtt9CqEOpflKcmK4J4pAe5b9NXYh5OlFgyRBkhrgdYQQaDfukYiIiPJFEpohiCVJ4ojERCWI723r2L9/v+7fYlCMr5myK8TrjfY1WabGh4iIiIjBh4iIiCyDwYeIiIgsg8GHiIiILIPBh4iIiCyDwQdIz+CuG6RQmY8rHwMKaucAIyIiolXD4KM16sXefAQdIiIiKkgMPhr2Hh+wza2Mumygm11dW0YenVlen551XVvefTRVmIiIiFYRg4/ODhzqGYb3sLFRKgz3pl50jimTnPYMw+kJK81hTmBAmZdrwAHvdj9iiMG/PT0buxvpqTCIiIho9TD4GNh2h9DZp861pRiPYBgReXJRSUJDdwToDyCMCIZGgWBqKoogMNqLYz84ht5ROzq3y5NctO00P9cXERERLR8Gn3ls6LoPcHqOGda7ENLMuC5EAG0AADt8Sk2QvJxC19WGhxIREVFBYPDJpD2AELzwjio/N9rhQDDVBBY73KTcpWVHa3ME3oNK/dCgW+7/07gDnc0R9B6Xy2tnfSciIqLVw+CTRds+H+zpnxAY8wHKDO8N3Q6ERrpggw1dIyG4lNndpW3D8I0F0AYbuo6ny2tnfSciIqLVw9nZiSyA723rKMaZzovxNVN2hXi94ezsREREZEkMPkRERGQZDD5LJEmScRUREREVOAYfIiIisgwGHyIiIrIMBh8iIiKyDAYfIiIisgwGHyIiIrIMBh8iIiKyDAYfIiIisgwGHyIiIrIMBh8iIiKyDAYfIiIisgwGHyIiIsqbQpuZ3YjBZxGee+453HbbbVi/fj0qKiqwfv163HbbbXjuueeMRYmIiKgAMfiY9PDDD+Omm27Cli1b8MILL2B2dhYvvPACtmzZgptuugkPP/yw8SFERERFJ+yR0HQ4ZlwNDLohtfiRYUtRYfAx4dlnn8WePXvwzDPP4K677sLGjRsBABs3bsRdd92FZ555Bnv27MGzzz5rfCgREVERiSEybFynaA9AjHTBZlxfZBh8TPj617+OgwcPoqWlxbgJANDS0oKDBw/i61//unETERFR0YgddsI7CkS6nfCPh+GWmuD2NEGS3Ahra3wG3ZAkCZK63ROWdzDuR5MkQZIkuD3aGqIw3Mp6SWqCf1x9viZIHjfcklzLFPaoZaT0PvOMwceEEydO4NZbbzWu1rn11ltx4sQJ42oiIqKiYdsdgq8ZsPeE0NUIABEMt4QgRABtqVJhuLcF4RoQECKE1uGIsj4G/3Yv0BOFEAJuBNPrW5zAgIAQAmLAAe92TZNZP+AWAqe2H4O334WQkPfr6vemAlI+MfjkkEgkEI/HsW7dOuMmnXXr1iEejxtXExERFTXHZkPj1mAAQbjgbgcAG3Z47PL68WPoHbWjc7tcvm2nS3lABEOjQHCbUpOzLQiM9uKYGmqaW2EHgMYd6GwOwilJkDxAQJxSwld+MfjkUFFRgcbGRpw8edK4SefkyZNobFyGvxAREVHRs8M3ptT4CAGRMdTY0DWi1vY45eayQWOZC1cCwScGf8vytQUCQEdHBx544AHjap0HHngAHR0dxtVERESlpd0NF4IIDAJADMf6lKauxh3obI6g97jSq+eo2tRlR2tzBN6Dyuf0oFvuM6RsTRn3o6nFjxjaEBBR+JqNBfJEaBh+LA4DLoEOl3DBJULGbXm0detWceeddxpXCyGEuPPOO8XWrVuNq4kKRlG+t4loVYQ6IAC78I2FhAsQrgFlw4BLoNknour/IZdzddgFOpRP4DGfsAMCgHB1aMoLeV/qY3xjcvFoj11TRvlZLafuMw+010BJWQEAkCSp4EdcNAp7JAR2CriPSvC2RHFqt9IWOeiGdG8rfA4vvP0A4EJIBNCGGPwtDRjy+DDc7UUEgL1H87gszp07hy9+8Yt44okn8JnPfAZXXHEFXn31VZw4cQKf+tSn8NBDD6G+vt74MKKCUIzvbSIqBvJnaq9n/udo2CPBiRBEX7pb9GrRXgOLvKkrjEC/3MGqbZ8P6DumH1hp1IveFrl3eagjCKemOSzYPQSfEBBjPqDbmbPneH19PR577DGEw2Fce+21OHDgAK699lqEw2E89thjDD1EtLouaHA5+bZl/7h6O3KGZgiiFO2t6Q3wwofQblu664myzdnvQqgAQo9Rcdf4DLohHXUraVK5Xe640mFq0A1pG5RaHuXNvGkIPnEIEUM6DXsMtUUmFN2xIkvj+WoBSi139EIHmDNeO4lKQMnU+ISPBgGl57ckNcA7mu5UBWhukctg3u15iu9973umlsWWJSJarEyDucUONxkGhUsPBgcMYa/6jVs70FyLH351Xy1+xDSDz8mPVfcjj88C6GvIs9N/w1efUx6Uzp/epn3tGdbLr9ENt+ZGldjhptR+5ekT5OdK3eUz7keTrpZKfR2srVptkiQZVxWU4g0+4354+w23x435gO696ZN+dAjqsEqIaP4PYPhFNSDph+ceHR3Fd7/73ZwLgHnrMi2jo6PpnRMRmTXuX/xgbqNB4D4BIaLwwQunOt/SqBdDO5X9jHrRcNQtl9HcgSNrQ2DAJfeJNNNEMR6B/bh6DQ7BpR2bpb8XOJ6+NTkVWLKtHx1G63Eh1+APutHQ7Uj97o7uBrgH5fFigkeVK3xkCJEOH7oaw3Bv6kWn8lkQ7Rk2GdrIsjSdnovqzg9jT3CZpge60uNc7Y0e6lB7iEeFrxnpx475hF3Tw9ysYjpWRDxfi5FyrTLc3aK/9oWES71+DbgENHe3RnuUO2106+V9aq+L9p7ogvvJTfM6lX2knluhPk+29cbnzFpuzCfsyu8e6lB+D81dROllMa+f8q0Qrzfa11SkNT7yuAF2zw5DW3Yb3B1A8F6lirfZBdyrdLIa9iGq+QbjcgyhQZIgbfLCMZBpICUiotW0MoO5XZBBNySpAUP3Ka/TuD3fGnegE704Np6+sUWm1oypC/snUXZFGnzkC0KmzshtfUIze2wrDo0obwRjh7+dgdSbJJB68xARFYgsg7nZNjvSzfiDgdRsSDL9oHL2lmy9HPOo2YdD7RleS39A6XYQRqBf068y23oN22ZHlnI27PAAvdu9CHa45XDTaIcDQXiVZj19Hyii+Yo0+BARlbjGLoQ8vXLNtNQAryMkf0lTRs11ShKkozDUsriAo0r51C3Gi2Rvhd1s5+Z2t9xnSJIgHW2FrzmCIbUzZfMwvJIESXIi2KG89oXWa7UH5L46SrnhnmiqnG23D47RCFw71TqdNgTGfEB3AyRJkvsGGb/oEmkU9+3sq4jHiooJz1daSbHDTWjo65x3a3229VRaCvF6o31NrPEhsoBCuwgREa0W1vgsEY8VERHRfIX4+cgaHyJSBpMz0Y+DitL+/fuxf/9+4+qCVEyvlYpf/oOPOiLovAuqOrcHR9UkIiKi1ZH/4AMAzXbYU7ciKgYDCDbbs04hQURLoB2qX3sLb2pKAsOXEM1UBXtH0qs55D8RWcXyBB90orNDHU9CFj4ahMvTqSmTeY6X1HwsnlwXbnnRDuiVntulCW6Pthpf/1zGuV6aWnixp2IUg3+7F+iJQgiBkEOZomDcj6Ztw8p0LlH4hp3KXEfyPEyuAXmwudZh9b5jDvlPRNaxTMEHsLdo5lSBMsrm9vT2sEcel0IeRFCeP2avJsQEh1sRFQJiwAWoc9ToLugC0R57epTmcT+c3VC2+YD+9MxcuucacCG4TTupXwSO+xY30ufc3Bw2btyIubk54yaiFRTB0KgdndvlG4Pb+pRBPSNDiDR3YkcjlAHf7IiMRJQB5tTRbuX1gDzf0jAi8G6Svxg0dEc0g8cREZWW5Qs+2zthH44oswMH0qNsKtr6lMno5NJoVUYlVaWmo2h3pwfoauzCKZGeXsK22ZEqHzveq0xYBwBtONSjNqrJo36mBrtqP6QfZAt2tC6y/W3Xrl249NJLsWvXLuMmoiLFIf+JyBqWLfik51SRm7nmDZ2u61PQAK9hEvNMw5gDQNijaR7blh4gPTKinXt9vuA2/XOlZ2d3wL6Iebruv/9+nD59GiMjIzh9+jTuv/9+YxGiFWJHq2Z27bBHaRa2t8KemiVbM3WBMuKvdkoDgEP+E5G1LF/wUedUOe5HoD9dHS/T900QmnloFjTohrNf8810ID1Y+7xgpWNPNY+pS6Z5vnL5/ve/D7/fj0cffRQA8Oijj8Lv9+P73/++sSjRCrChayQEhzJUv7PfhVBfm1wzOuBQmq7kZl75fG9DYMClfAlwYsihvmc45D8RWccyBh/Atr0T6PYimOpvkMXg3nk1PrnF4L83XeNj294Ju9oXCGHs7VZrgNrg7ojAe1DpsaDUNC12luNoNIpdu3bhyJEjsNnkjwSbzYYjR45g165diEajxocQrYA2BDI1T7WnJ+FNNylr159CoO9UeltjF05l2g8RUYlZ1uAjV6Fr+uuk2NB1nwsR5RumdNSNUIe2+SmL9kPwNSuT80lO4D4f7OosxY1dCPVA+ZYbQGuqjw/Q1iff2SJJEqRNck1TxonxFrBr1y54vV7cfPPNuvU333wzvF4v+/sQEREVgRKdsiIGf0sDej3RJTVpGd1xxx2YnJzEY489ZtyU8tnPfhZ1dXX45je/adxERLTi1JGQi2FE5GJ6rZRbIWYJ7Wta3hqflaQb30fbr+HCPPTQQzh58iSOHDli3KRz5MgRnDx5Eg899JBxE9GqkyTJuIqIyJJKJ/ho+zQY+zUs0ZNPPom7774bR44cQVnZwoeqrKwMR44cwd13340nn3zSuJmIiIgKwMKf5hb2+uuvY9euXejt7UVzs5lbzoDm5mb09vZi165deP31142biYiIaJUx+GSxa9cueDwe3HLLLcZNC7rlllvg8XjY2ZmIiKgAMfhksHv3btTV1eHAgQPGTaYcOHAAdXV12L17t3ETERERrSIGH4NHH30U4XA4Z2fmXI4cOYJwOJwa7JCIiIhWH4OPwenTp3HkyBGsXbvWuGlR1q5diyNHjuD06dPGTURERLRKGHwM9u/fj+uvv964ekmuv/56jktBRERUQBh8iIiIyDIYfIiIiMgyGHyIiIjIMhh8iIiIyDIYfIiIiMgyGHyIiIjIMhh8iIiIyDIkIYRQf9i6dSuefvppfQkiIiKiInbjjTfiqaeeAozBh4hKkyRJ4FvdWtTBU4thENVieq2UW6Ffb/4/A0aONyf6Hs0AAAAASUVORK5CYII=;" vertex="1" parent="1">
          <mxGeometry x="-413.19000000000005" y="336.63" width="363.19" height="143" as="geometry" />
        </mxCell>
        <mxCell id="g9klkTqwANIT1uOpOcKC-7" value="" style="shape=image;verticalLabelPosition=bottom;labelBackgroundColor=default;verticalAlign=top;aspect=fixed;imageAspect=0;image=data:image/png,iVBORw0KGgoAAAANSUhEUgAAAj4AAADiCAYAAABOUc3RAAAAAXNSR0IArs4c6QAAAARnQU1BAACxjwv8YQUAAAAJcEhZcwAAFiUAABYlAUlSJPAAADB+SURBVHhe7d17dBvXYSbwb/gmRVmOHcmWXccGQyUCQ0YGvYn7tNXkHDclTG2lrdY1UMJZcePdOGnXNSHGthRVUhSnpgAfp3WSNjZllyzQ5CiVdskAVVvHz6ZNYplMTEawTQaI3Mi15bcp8QGCuPvHzAAzQ4AYUiAJYL7fOXMkzlwMwOFg8OHeO/dKQggBIiIiIgsoM64gIiIiKlUMPkRERGQZDD5ERERkGZK2j8/WrVvx9NNP60sQERERFbEbb7wRTz31FGAMPpIkgX2diYiIqJRo8w2buoiIiMgyGHyIiIjIMhh8iIiIyDJy9vE5/I2g7udMdn/BZVxFREREVBC0+cZU8Ln9j526dVrf/rsQgw8REREVLHZuJiohYY8ESZq/uAeNJRdp0J2f/eRJ7HCT/Lu1+BEzbiQiMslU8Jmansb09Ez636n0z0RUCFwICQGhLKEOILjNjbCx2GK0ByCEQKDduGE1xHCsLyL/d7QXx8aN24mIzDEXfCancfnll2Hj5ZfL/26U/52aZPAhKkT2FjuAYUTG59fcyDUnTfCr4WHcj6ZMNUW6x8Xgb5FrW/ypGiZtsFK2K/toOqypk8m2f20tzrz9GYwfQ+8oYO9wwY4Ieo/P33+Txy0/j1IjpNu3rpYoDLe2dsyT+VnlmjQ3/Kn9aI4ZERUtU8Hn/PlJjIycmrecPz9pLEpEq06tHXHA3mjcZhSDf7sXkWYfomZqikZ7gX0CYswHO4LwKgEn7GmAd1SpdRpwIdLdkA5M2fY/7oezOwJ7TxRChOBCEM4sISR2vBcR2NG57xA6m4FI37F5zV2R4Vb5+Ue6YBt0o6E7AteAkPc96kWDsu+wx4nhniiEEIj22IF+5wLNeUEMbT6lvL4IvAczvz4iKh6mgs/k5BQmpzSL+vPklLEoEa2KIJypWowGeEcB10AAbcZi2Yx60dDih71PQIiFHqeEqUY7HAAiIxEAYQT6AXS45ce1u+ECMPyiJpossP9IdwOaDtsREAKiL9MzK0GuuRM7Gm3Y4bFnbO6ye3bApvw/fDQIwAV3OwC0wd0BYDiCGIC2PoFTuyNwSxIaupXms6zsaLUr/zan90FExctU8Dk/OYnz56fSi/ozgw9RgdD38Yn22BHcZmhyysiGrvuUuzJHvWiY1yxk0NwKu3HdeATDANDvVIKXE8FUKFpg/41d8HXImyLdDfObyFRqM5cSbGzbO+c3d+nEEBmGLgw6+wGMDiGSapJzAgNy7dTCzNSaEVExMRV8Tv78FZz8+WnNkv6ZiAqPHA5MUjoxy805ckBxZgog2Si1P+gIpYKX0NbeLLD/tj6lrBJAIt3Oef1owge9iGjCkbRJ/XlvliY5G+wOzAuDQgTQpoaonmiBdNomopWWM/js/oIr50JEhUXuEwM4NtsAu1xLIzc9ae6OAtIdfT1hAG0IKAHEsVltNDJDaUrqD8hBRNcpeoH9a8u1BxDqQIYaFqUZTekjpK3RAoIIZOmb07bTpdmueQ26JroY/PfmHqCViEqM0DD8SERFINQBAcxf7D3RDGXswtVhF4Bd+MaUjWM+Ydc+tiMkrx9wCQDCNSCEEFHha4ZAs0/Iew0Jl7asuj3Dc2fdvxAi2mPXvWb5uTSU16Dbn9DssyOU+r+xjG7fqddtXG/P+FiROmYuIb9a4+9PRMUEmnyTc+RmIiIiomKmzTc5m7qIiIiISgWDDxEREVkGgw8RERFZBoMPERERWQaDDxEREVkGgw8RERFZhu529muuuQanT3M0ZiIiIiodV199NX75y18CxuDDcXyIiIio1HAcHyIiIrIkBh8iIiKyDAYfIiIisgwGHyIiIrIMBh8iIiKyDAYfIiIisgwGHyIiIrIMBh8iIiKyDAYfIiIisgwGHyIiIrIMBh8iIiKyDAYfIiIisgwGHyIiIrIMBh8iIiKyDAYfIiIisgxJCCFSP0gSND+uuNV8bquRJMm4ioiIqCRp801BBB/1OY3PbfyZls4YdNSfjeuJiIhKTUEFHyEEysrY4rZS4vE4JEmat5B5PF4rZ6WvRyuJ59HKKeXziMwpmOAjhIAQAuXl5Tmfd6VfW7Exc3wkScK5c+dQVlaG8vJylJeXM/wsgdljnauMlZk5PmbKFDMzv5+ZMlZm5viYKUOlT3serHpVC0/IlTU1NYV4PI5EIoG5uTkefyIispRVCz5qbQ8/eFfW5OQkpqenMTs7mwo+/DsQEZFVrFrwUfEDd2VNTU1hZmYGs7OzSCaTPP5ERGQpDD4Wo23mYvAhIiKrWdXgww/dlTc3Nzcv9PDvQEREVrGqwQf80F1xxv48PP5ERJQvr0wnEXorgdBbCTz77hz+75sJHH8jgSffmcNP3p9LlfvFVFL3uJW0arezCyGQTCaRSCRQU1OT83lX8rUVIzPHR5IkPP/886ivr08t1dXVqKioQFlZGW9pN8nssc5VxsrMHB8zZYqZmd/PTBkrM3N8zJShpZtKAsffmMUT78zh5akk/svactyyoQLXX1RuLDrPf8wIVEjAByok1CxzNUxB3c5ORERExWVOAH99ZhYf/vdzePBXs7jpkgo8eW0dHmisNhV6AOCqagkbq5Y/9Bit8NMRERFRMRt8MwH7j8/jb16N4zsfq8VPrqvDf99QgfIiaTRgU1eJMHN82NSVH2aPda4yVmbm+JgpU8zM/H5myliZmeNjpgyZM5ME/nRsGt9+dRZtl1bg6MdqUJcl7bw5KzB6bg6vxgXenhWYE0B9hYT1lRI+UleGj9SWoSzzQ5eF9jxg8CkRZo4Pg09+mD3WucpYmZnjY6ZMMTPz+5kpY2Vmjo+ZMpRbbDqJ//rCFEbOJ3Hv1VU41FAN4yfGW7MCJ96ewz+9NYsfvJvEqzNyB+bfubgcH6iQMPBmIlV268Xl+NQHKvB7l5Tjkyabxi4Eg08JMnN8GHzyw+yxzlXGyswcHzNlipmZ389MGSszc3zMlKGFDU3M4Xd/OoX3EwJ/fk0V9tuqddunksDfvz6L75xN4F/eTocbAPj9Sytwz4eq8DsXl+Mf3kjgD0endNs/VC1h52WVuHVDJa5bu3y9b7TnwfI9CxERERW1V6aTuOlncui5ZUPFvNDz4mQSd45No/PF6XmhBwCEAM7NyYFjQvlX65UZAf8rcXz+5Wn0vzZr3LwsWONTIswcH9b45IfZY52rjJWZOT5myhQzM7+fmTJWZub4mClDmb2bEPjEyUmMTyXxyYvK8ePr6nTbn3xnDj3/EceJt+YHHq1NtWWoKQNGzi88ds/FFRLuuboK3R+qMm66YKzxISIiogV98eUZjE8lsaZcwnc+VqPb9txEEl/55UzO0AMAY1PJnKEHStDaE53B4Vfixk15xeBDREREOv/4VgKB1+Wmpwcaq2HTDLYTm0ri/tMzePLd9EjM2WyuK0PPh6txtLkWf3xZpXHzPAkB3Hc6jsf+c/mavRh8VON+NEkSJOPiCaeKhD0ZtktN8I+ndxM73KTb7h5MbyNaNlnO36bDsQW3a89vsiAT58WC172Mj9dfE6n4TCWBz700DQCw1ZTh9iv0geXR1xL4hzdy1/RcViXh36+rw+4PVeEP11egv6kGf/pruZux3k0IfPNMHKPncgerpWDw0bHDNybPZSUvIbj6nfrw0hHSbBcQ4hS6GuVNscNNaOh2IKR5PLaVZvgJeyRILX4oH6uFa9BdHK8zL+afv45up+ZDaP72eec3WZCJ82KB6968xw844N3E8FPMvnkmjjMzcn+YfTZ9UHnynQT+1mQn5J0bKnFxhb7v6F1X5a71gdKU9tjrucPVUjD4LKgN7g5g+EUzH5th7O2OwDUQQFtqXRsCAy4E7y21D94wAv0uuBy9OMaLWwGzo7U5gqGIcb1qMec3WccFnhftAYQ6IvAeZG1iMZpKAn9xWu5js7ZcgmuDPqgcfSOBV6Zz99cBgMoM98tULWLUwr/9z1n8WDOxab4w+CwojEA/4NhsM26YbzCAIFxwtxvWtwcgRrpgYg/FYzCAYIcbgZ0O3cUtdrgJkscPf4uhulypdfGrVeZqDcygG1KLG+6WdFltU6HcTBODv0VTazbuR1PGanY3Uq9Es959VF1pQePH0DtqR6vduEG1iPObLOTCz4u2nS5gOFJiX/is4e9fn8Wbs3Jtzx+sr0CVJiX87NycbhDC5famMiBivjH46ETg3aRtq3ZiuCeKgDbM9Dt17dm66uDmVmT9jCkh4aPD8O1rA9rdcPUH0oEDAPp7geMZqstHvRjaKSBEFD544VT7nowOo/W4gOhrAwbdmqbCEBzdDXAP2rDDY0fwqPIskSFEOnzoagzDvakXnUoVe7RnGE5PWA5K271ATxRCCLgRTL200mc4fzd54RjQNkmYOL/JgkycFwtd96ikhDR3ae1YX6Hb9qP3k6kmsJXyg3fyH7QYfHQ0bdUDLgAu+HYbvvUY2rp1F4fRIWRtVSgZYQSGO7GjEUqVeBABXV8An/JBa6gub/bhUDsAyEEmMqIeKQfsah+pF4eBDrfSVJh+vG17J+zKt8fw0SBcO9uA8QiGNRfshu4I0B9AWKnl6Nwu/93adrqU57ECY18Nw/lp5vwmCzJxXix03csg9uKwcRUVgTkBXQ2LcZb1kxPmmrjy6bn3k3ghz52cGXyyaQ8g1BGE02zH2HY3XDCEACjNLmb3UQRih70IjnrRoHzzc/YjXRuzXBp3oBO9ODYu9y1KNye6NB3JBYTQ9q+iBS32/CZryNN5ERmJAA57aTXxW8AP35vDpDK68iWVEjZW6fvj/CzPAcSM6aTAL6byW8vE4LOAtr4QXKNe7DWGmYzacKjHjuA2TV8ThOHe5AU8O0rkAhDDsb4IXAPasBGCq9+bvoMj1fRl6CcwqnaElvdhb5nfKGjb7MjyeBt2eIDe7V4E1RqhRjscCMKrNJnFDjfJfYcad6CzOYLe4/L68FErNXUtzuLOb7KKCz4vBt1w9tvl5nAqKtpg8/E1+ngwK4D/MNmpWZUprtSXy6FqMV5RJjvNFwafBWUKM9nZdp+S+5oY2spPGauNi9X4MfSOGjtwt8HdkQ4aaB6GV/ndgx0hXZV473YJktQAL3wIZTom7QHN8dP3M7Dt9sExGpGbuQD5jrkxH9DdoDR1ORAa6YINNnQdT68PYPFNXX6/HxMTE8bVJWhx5zctTvGeR4s9Lwx9hLYNwzem7VtWyuSbL1LjZS1aGO5c4x4tdkiODOXNnos/14yufJHhNnQhgNfiAp0bK/HPW2pxx5W5b0vPFG/Wlkt48to6rDPs38h1WSWOt9Tis5dX4v08d/PhXF0lwszxkZZ5rq7Y4SY09HUiaryLbdANaRsQKpKmqNraWiSTSXR3d6O7uxtr167VbTd7rHOVsTIzx8dMmULG82j5mTk+ZsosXQz+lgb0epb6BTcMt+RF60JBcdAN6d7W+dfVbDKUz3Uuqj7900k88Y5c6/NHGyrw9x+rTW2bSQrc/MIU/uVaeb6uH743B9ep6QVvbf+zq6rwQKN+UlPV8xNz2Do8lZrAVOvGi8vxlEN+nvBbCZycmMO+azLvxyztecAaHyKDr33ta6ioqMADDzyADRs24Mtf/rKpb0tEWjyPipduBH5N7Yl2FGvdnW0je9NDaKTWh+FO1f5ra3XkWiJJkiB5AqldpJrrU4/NUBO0xCE8zJ6L2gwjGb4IS5KE2jIJTynTVESnkkjkCJTRqeyh6Lq15fjHLbWoK5//hXtWyLfVA8DLk0lclKHMhWDwobyx7T6Vecyi9kBRdTy+8847UVNTg8nJSUxPT8Pv9y94sSDKhOdRsQpjbzeUO93k4Tf2Dqp9l5QbKsZ8GNY0BUaGWxESAtEeuzJgbQz+Fieg9occcMC7XQ41scNOeOFDVAiInVjEgBtLH8LD7LmY1OSY1+L60FIlAWdmkvjd4Ul86qeT+ItX4ng1x63t/+/NBP5kbMa4OuW315XjHz9eC800YACAf1Nqkz74r+fw5VgcVxkLXKD87o0K3nXXXYePfvSjuPLKK7Fu3TrU1NTomroWWkqJ8XczLm+//TbKyuS3x9TUFKanp9HT04Pbb7/duCtaRsa/S7EtPI8Kg/HvstCi9lv0bpIgtRzDjhH59n3dcBuNXTil+TJnV25gsW12KGsiGBoFgtuU/W4LKjd4KDd3qDe8tLvN90JcwhAeiz0XtTHm9fj8ULNlrXx7+5PvzOGUidnWAeChX8UXDD83XFyOf2iuzdgf6K1ZgemkwIdr8xtV8rs3KnjPP/88XnrpJZw5cwbvvfcepqenkUgkkEwm5W8mCyylxPi7GZdLLrkEyaT8xq6trUVNTQ26u7vx7W9/27grWkbGv0uxLTyPCoPx77LQAgBtfSJV29Ognex3UYzjai3Qj8e0xQ3hof29zJyLl2tuX//l9Pxr/nVrlxYZHvpVHF98WZ70NJO2Syvw6Q/oxwxSfWJtOa6tX9rzZpPfvRGVgAcffBDT09Opi0NXVxfOnj2Lr3zlK1k7BRIZ8TwqVmG4JTfCsKFrRCDUIa/VDbehnTonI3mevNSUPoNupU+OMoBr3zFl2p5AqmHKttmRHgRXsz7lAobwMHsuNmhqVibnBJ5V+vOofmNdBTYYxvYx6xtnZnHHAuGnsS5zHPn0JfrRo/Mh8zOVGG2HtPRi9lZNunCaznzaRZ3La7HbF3Nr5xLcc889mJ2dzXpxWG48X0sDz6Ni1YbAAFLDkjiHleE3tMNtbPICPaEFanBs6BqRp+2RJPUWf7l2xrY7lKpJko4i3dSlDILrNK5PWfoQHmbPxYYafah53DBdRGt9GbZ9cOlB5FtnZnH7S/PDz5wAnlbuJtO6qELC730g/zHFErezhz0SnAjJ80EpYoeb0DDi060rZmaOj7TMt7Nnl+GWz3E/mjb1onPsFLoaM2xPCcNtGA8p623zeeL3+3H77bdnvDBgEcc6V5lseL7KzJQpZDyPlp+Z42OmTKnLdS6qnnt/Dp98fjL180fqyvDS9Wt0Zf757TncFpnCaxn6AJnVubESj2yuAZQ7yf5HZArfOTt/sJ4/+bUq/OWmC7uNXaU9D/IfpYqEbbNDmT1YGYCqRb59Ub4VUV/DoJ+QT3uLYubbCfXfqvT7SrcVZ1tvEUr17FCuyc0GAwg26wc8tO0OIXrfDl2xfOrq6sp5gVhpPF+LD8+jTOdLtvW0nMyei5+4qBzrNaMqvzyZxDOG5q6bLimH5/LcgxcupPc/Z/HhH53Hbw9NYv2/nssYerbUl+Ozly+9dmkhlg0+4aNB3VwyEYcPQpl8L+yRRxeOCnnSvuA2tS03prtFMX07oTw1hUNZr53rJnbYCa9DneAvBEf3XoQXWG8Zyp0IrZqZKyJKVa32Imr8O8lssLXblqW2p1AZjwPPV1oKnkeUS7uhKetvXpXH09HatbESN196YaEkOpXED9+byziAYW2ZhDuurESrchdZvlkn+KhtrcriHPYhqqnuTc8dFUNkGHDdpzSjtB+CT+04Zpiywbb7lFxlPBhAEOn1bft8sGecqb0NgYy98LOtLy26YJOhjdyujEMhL/LxyDSnlyXwfKV84HlEi3TLBn2gCb4+ixfO6W9d/2hdGbo/VIXfuGh5IsQ9V1fh9isurFZpIcvzqgtRh/otQ1kM/UNSk2kq4y+k2WBPDc2Q6U2tUjqlKR/qEQwjMi5fJEJIX3zU6uNs60tZKtiM+WBHetyJhaSr5rXk6vKSPmY8XykfeB7RIt10SQU+arjD6k/H5ndI/p2Ly7HPVoMbL85frUx1GXDAVo17rq4ybsor6wQf0+xobdb+LH8Tkje1Imv9Q7NSRZxa0mM2yGNCyFW7SFUfZ19f8hq7cGrAAe8mE3eYtLvhGvXCqekLoI58ekg3WapV8XylfOB5RGn3GoLH0+/O4dsZmrw+c0k5HmisRkeOPj9fvqYKoY/X4uHNNVmbyD62pgx/uakG+66pQo75Sy8Yg8888jcdedhxAIN74VVHxVTGUQgo31JS4ygoH857tevVPioeYwc+B+yN2ddbRntA7hOQ8/baNgRECA5NM9ly3tFVfHi+Uj7wPKI0z+WV2Gyo9flfL03jxNvzOyG3ri3Hg43V+KtN1fitdZlrf/78mmq0XVqB/7mxEmsNqeaDlRL+9xWV+OuP1ixr85aO0DD8uKySyaRIJBJienra1POaKZNNqAMCHSHjakVU+JohXAPz1ykjeOu3jfmEXVkPuERqr7r1duEbUzeEhCu1XruvbOuXxszxASCef/558dJLL4kzZ86I9957T0xPT4tEIiGSyaSxOGVh9lgvFc9XmZkyxczM72emTDY8j2RmytB8P3w3IfDE+7plzdMT4ofvJoxFU05PzYm/PhMX21+YFPVPT6Qe99VfzgghhJhIJIXjJ+cEnnhfXPfcObF7fFo88fascTfLQnseWGIcHyswc3ykVRvHp7SYPda5yliZmeNjpkwxM/P7mSljZWaOj5kylNkdL0/jW2f0TVy1ZcDj19bhN7PU7qhiU0n8fDKJX00n8XZCHqRwTTlwWZWEj9SWYfOaMqzN86zrC9GeBww+JcLM8WHwyQ+zxzpXGSszc3zMlClmZn4/M2WszMzxMVOGMpucE/jNoUn8zHBXV125hH57DXasz9xfR2s6iXmzr68G7XlQAC+HiIiICk1duYQTW+p0k5dCCUT/bXQK/2dsBokcmfLzL00jOmVuJveVwuBDREREGV1eJSG8pQ6XaEZ0Vv3lr+LY/OPz+NvX5t/xpXp9VuA3hibx0mThhB8GHyIiIsrKUV+Gn35iDVrWzI8Mv5hK4rORaXz4R+dx9y9m8IRhslEJwNm4wA3Dk4gUSPiZ/1sQERERaVxVLeHfrquD67LMt5xHp5K4/5U4Pv3TSdQ9PYHf/9kUel6J481ZuS3sbFxg6/AkTp1f/fDD4ENEREQ51ZdLCDTV4J+21GKjod+P1lQSOPF2Al/6xQx+8n66BuhsXODG4Un8fJXDD4MPERERmXbTJRWIXL8GhxqqcdkCASiTN2cF/mBkyrh6RTH4EBER0aKsq5Cw5+oqvPZb9fi7phr80YYKXFGdOwRdVCHhux+rMa5eURzHp0SYOT4cxyc/zB7rXGWszMzxMVOmmJn5/cyUsTIzx8dMGcqflyeTGJtK4q1ZgbdmBb55Zhbjyu3sa8olPHFtLT550cKDHy4HjuNDREREefeRujI4L62A5/JK/NlVVdikzPlVVy7hB6sUeowYfIiIiGjZ1JQB/7SlFtcXQOgBgw8REREtlyoJCH28Dr+dY26vlcTgQ0RERHmzf//+1P//6iM1+NQHCif0gMGHiIiI8unAgQOp/19l4k6vlcbgQ0RERJbB4ENERESWweBjMepYPRyzh4iIrGjVBzCcm5tDdXW1cTMtk+HhYaxZswb19fVYs2YNampqUF5ezgEMF4HHaeWs1PVoNfA8WjmlfB4VopXMEmZpX9OqBh8hBBKJBGZmZjA5OYnz58/j/PnziMfjSCQSSCZXdyKzbCYnJ3Ho0CHs3bsXdXV1xs0FqaysDBUVFaiqqsKaNWuwZs0a1NXVpUZuliSJF+IStpLvbVpd6h012jtrCt3nPvc5AMDDDz9s3ERFqBCvNwUVfObm5hCPxzE1NYXJyUlMTU0hHo9jbm4u9VpW6jWZ9Y1vfAN9fX3weDz4whe+YNxcULRNW+Xl5aiqqkJtbS3q6upQW1uLqqoqlJeXM/iUuJV8b9PqKrbgMzExgQ9+8IMAgDfffBNr1641FqEiU4jXm4IKPslkErOzs4jH45iensbMzAwSiYQu+BSS8+fP49d//dcRj8dRVVWFH/3oR1izZo2xWMFRg09FRQWqq6tRU1ODqqoqVFZWppq5GHxK10q+t2l1FVvw2bNnD3w+HwDA6/Xiq1/9qrEIFZlCvN4URPCBoZ9PIpHA7OwsZmdnMTc3l2rmWsnXY8b999+Pb33rW5idnUVlZSU+//nP40tf+pKxWEFRA01ZWRnKy8tRWVmJyspKVFRUsH+PRaz0e5tWTzEFn4mJCaxfvx4zMzMAgOrqarzxxhus9SlyhXi9Kajgoy5zc3OpwJNMJlf0dZh17tw5NDQ0pN6kUN6o0WgU9fX1urKFSJIklJWVpQKQtomLwae0rfR7m1ZPMQUftbYnHo8DAKqqqljrUwIK8XpTMMEHhvCjXdRthWTfvn148MEHEY/HUV9fj3PnzqGqqgp33nknDh48aCxeUNRgow06DD3WsRrvbVodxRJ8tLU96p296v9Z61PcCvF6U1DBB5qAY3xu48+raWJiAhs2bEB9fT0qKytx9uxZbNiwAbOzszh37hzOnj1b0G9UY7jRBiEqfav13qaVVyzBZ8+ePfD7/aiqqsKll14KAHjrrbcQj8fR1dXFWp8iVojXG+1rKogBDI21D+qiNssUwvLII4+gsrIS+/btw2uvvQYAeO2117Bv3z5UVFTgkUcemfeYQlqMx1ZdiIhW2sTEBI4dO4YbbrgBjz/+OG677TbcdtttePzxx3HDDTfge9/7HiYmJowPI8qLgqjxKUY8VlRMeL5aR7HU+Jw5cwZXXnklkOE1a7dR8SnE6432NRVEjQ8REVnLQsFmoW1EF4rBh4iIiCyDwYeIiIgsg8GHiIiILIPBh4iIiCyDwYeIiIgsg8GHiIiILIPBh4iIiCyDwYeIiIgsg8GHiIiILIPBh4iIiCyDwYeIiIgsg8GHiIiILIPBh4iIiCyDwYeIiIgsg8GHiIiILIPBh4iIiCyDwYeIiIgsg8GHiIiILIPBh4iIiCyDwYeIiIgsg8GHiIiILIPBZ4mEEMZVREREVOAYfIiIiMgyLBB8YvC3SJAk7dIE/7ixnBlhuJf8WCIiIlptFgg+MntPFEIICCEQ7QG8B8PGIia0ISBOoavRuJ6IiIiKgWWCT2ZybVDT4Zj846AbUosfMQAY96NpXg2RWuMjP87tcadqkdyD6b2GPenapdS+M+5PX1byLCWMERERkVmWCT6R7oZUwGjo60S0r81YRCd80AsotUTZaoiCcCvb7QjeKwem2OEmOBFSapdCcHQ74R/Psr9xP7z9LoSUsq5+L5vRiIiIlpFlgo+uqcvTiwa1ZieLtp0uJSw14dj2UxAZgpK9xQ4AsG12pNZFRiJAv1MJWU4EEUHv8Vjm/TXuQGdzEE5JguQBm9GIiIiWmWWCj5Zteyfso0OIGDdotQfStTObpHQTmAnakCWEwKndtiz7s6FrRK3tkcOStsmMiIiI8suSwSd2vBeR5lbYYYPdodTSAAgfDabKhD1yCLHtPgUx4NI8emH2Fjsi3XshN4yF4VbCTMb9jfvR1OJHDG0IiCh8zfp9ERERUX5ZJvjo+vh0A77jXbApTVpq01QA6YDT1hcCtimdjrcNp8rnYtt9CqEOpflKcmK4J4pAe5b9NXYh5OlFgyRBkhrgdYQQaDfukYiIiPJFEpohiCVJ4ojERCWI723r2L9/v+7fYlCMr5myK8TrjfY1WabGh4iIiIjBh4iIiCyDwYeIiIgsg8GHiIiILIPBh4iIiCyDwQdIz+CuG6RQmY8rHwMKaucAIyIiolXD4KM16sXefAQdIiIiKkgMPhr2Hh+wza2Mumygm11dW0YenVlen551XVvefTRVmIiIiFYRg4/ODhzqGYb3sLFRKgz3pl50jimTnPYMw+kJK81hTmBAmZdrwAHvdj9iiMG/PT0buxvpqTCIiIho9TD4GNh2h9DZp861pRiPYBgReXJRSUJDdwToDyCMCIZGgWBqKoogMNqLYz84ht5ROzq3y5NctO00P9cXERERLR8Gn3ls6LoPcHqOGda7ENLMuC5EAG0AADt8Sk2QvJxC19WGhxIREVFBYPDJpD2AELzwjio/N9rhQDDVBBY73KTcpWVHa3ME3oNK/dCgW+7/07gDnc0R9B6Xy2tnfSciIqLVw+CTRds+H+zpnxAY8wHKDO8N3Q6ERrpggw1dIyG4lNndpW3D8I0F0AYbuo6ny2tnfSciIqLVw9nZiSyA723rKMaZzovxNVN2hXi94ezsREREZEkMPkRERGQZDD5LJEmScRUREREVOAYfIiIisgwGHyIiIrIMBh8iIiKyDAYfIiIisgwGHyIiIrIMBh8iIiKyDAYfIiIisgwGHyIiIrIMBh8iIiKyDAYfIiIisgwGHyIiIsqbQpuZ3YjBZxGee+453HbbbVi/fj0qKiqwfv163HbbbXjuueeMRYmIiKgAMfiY9PDDD+Omm27Cli1b8MILL2B2dhYvvPACtmzZgptuugkPP/yw8SFERERFJ+yR0HQ4ZlwNDLohtfiRYUtRYfAx4dlnn8WePXvwzDPP4K677sLGjRsBABs3bsRdd92FZ555Bnv27MGzzz5rfCgREVERiSEybFynaA9AjHTBZlxfZBh8TPj617+OgwcPoqWlxbgJANDS0oKDBw/i61//unETERFR0YgddsI7CkS6nfCPh+GWmuD2NEGS3Ahra3wG3ZAkCZK63ROWdzDuR5MkQZIkuD3aGqIw3Mp6SWqCf1x9viZIHjfcklzLFPaoZaT0PvOMwceEEydO4NZbbzWu1rn11ltx4sQJ42oiIqKiYdsdgq8ZsPeE0NUIABEMt4QgRABtqVJhuLcF4RoQECKE1uGIsj4G/3Yv0BOFEAJuBNPrW5zAgIAQAmLAAe92TZNZP+AWAqe2H4O334WQkPfr6vemAlI+MfjkkEgkEI/HsW7dOuMmnXXr1iEejxtXExERFTXHZkPj1mAAQbjgbgcAG3Z47PL68WPoHbWjc7tcvm2nS3lABEOjQHCbUpOzLQiM9uKYGmqaW2EHgMYd6GwOwilJkDxAQJxSwld+MfjkUFFRgcbGRpw8edK4SefkyZNobFyGvxAREVHRs8M3ptT4CAGRMdTY0DWi1vY45eayQWOZC1cCwScGf8vytQUCQEdHBx544AHjap0HHngAHR0dxtVERESlpd0NF4IIDAJADMf6lKauxh3obI6g97jSq+eo2tRlR2tzBN6Dyuf0oFvuM6RsTRn3o6nFjxjaEBBR+JqNBfJEaBh+LA4DLoEOl3DBJULGbXm0detWceeddxpXCyGEuPPOO8XWrVuNq4kKRlG+t4loVYQ6IAC78I2FhAsQrgFlw4BLoNknour/IZdzddgFOpRP4DGfsAMCgHB1aMoLeV/qY3xjcvFoj11TRvlZLafuMw+010BJWQEAkCSp4EdcNAp7JAR2CriPSvC2RHFqt9IWOeiGdG8rfA4vvP0A4EJIBNCGGPwtDRjy+DDc7UUEgL1H87gszp07hy9+8Yt44okn8JnPfAZXXHEFXn31VZw4cQKf+tSn8NBDD6G+vt74MKKCUIzvbSIqBvJnaq9n/udo2CPBiRBEX7pb9GrRXgOLvKkrjEC/3MGqbZ8P6DumH1hp1IveFrl3eagjCKemOSzYPQSfEBBjPqDbmbPneH19PR577DGEw2Fce+21OHDgAK699lqEw2E89thjDD1EtLouaHA5+bZl/7h6O3KGZgiiFO2t6Q3wwofQblu664myzdnvQqgAQo9Rcdf4DLohHXUraVK5Xe640mFq0A1pG5RaHuXNvGkIPnEIEUM6DXsMtUUmFN2xIkvj+WoBSi139EIHmDNeO4lKQMnU+ISPBgGl57ckNcA7mu5UBWhukctg3u15iu9973umlsWWJSJarEyDucUONxkGhUsPBgcMYa/6jVs70FyLH351Xy1+xDSDz8mPVfcjj88C6GvIs9N/w1efUx6Uzp/epn3tGdbLr9ENt+ZGldjhptR+5ekT5OdK3eUz7keTrpZKfR2srVptkiQZVxWU4g0+4354+w23x435gO696ZN+dAjqsEqIaP4PYPhFNSDph+ceHR3Fd7/73ZwLgHnrMi2jo6PpnRMRmTXuX/xgbqNB4D4BIaLwwQunOt/SqBdDO5X9jHrRcNQtl9HcgSNrQ2DAJfeJNNNEMR6B/bh6DQ7BpR2bpb8XOJ6+NTkVWLKtHx1G63Eh1+APutHQ7Uj97o7uBrgH5fFigkeVK3xkCJEOH7oaw3Bv6kWn8lkQ7Rk2GdrIsjSdnovqzg9jT3CZpge60uNc7Y0e6lB7iEeFrxnpx475hF3Tw9ysYjpWRDxfi5FyrTLc3aK/9oWES71+DbgENHe3RnuUO2106+V9aq+L9p7ogvvJTfM6lX2knluhPk+29cbnzFpuzCfsyu8e6lB+D81dROllMa+f8q0Qrzfa11SkNT7yuAF2zw5DW3Yb3B1A8F6lirfZBdyrdLIa9iGq+QbjcgyhQZIgbfLCMZBpICUiotW0MoO5XZBBNySpAUP3Ka/TuD3fGnegE704Np6+sUWm1oypC/snUXZFGnzkC0KmzshtfUIze2wrDo0obwRjh7+dgdSbJJB68xARFYgsg7nZNjvSzfiDgdRsSDL9oHL2lmy9HPOo2YdD7RleS39A6XYQRqBf068y23oN22ZHlnI27PAAvdu9CHa45XDTaIcDQXiVZj19Hyii+Yo0+BARlbjGLoQ8vXLNtNQAryMkf0lTRs11ShKkozDUsriAo0r51C3Gi2Rvhd1s5+Z2t9xnSJIgHW2FrzmCIbUzZfMwvJIESXIi2KG89oXWa7UH5L46SrnhnmiqnG23D47RCFw71TqdNgTGfEB3AyRJkvsGGb/oEmkU9+3sq4jHiooJz1daSbHDTWjo65x3a3229VRaCvF6o31NrPEhsoBCuwgREa0W1vgsEY8VERHRfIX4+cgaHyJSBpMz0Y+DitL+/fuxf/9+4+qCVEyvlYpf/oOPOiLovAuqOrcHR9UkIiKi1ZH/4AMAzXbYU7ciKgYDCDbbs04hQURLoB2qX3sLb2pKAsOXEM1UBXtH0qs55D8RWcXyBB90orNDHU9CFj4ahMvTqSmTeY6X1HwsnlwXbnnRDuiVntulCW6Pthpf/1zGuV6aWnixp2IUg3+7F+iJQgiBkEOZomDcj6Ztw8p0LlH4hp3KXEfyPEyuAXmwudZh9b5jDvlPRNaxTMEHsLdo5lSBMsrm9vT2sEcel0IeRFCeP2avJsQEh1sRFQJiwAWoc9ToLugC0R57epTmcT+c3VC2+YD+9MxcuucacCG4TTupXwSO+xY30ufc3Bw2btyIubk54yaiFRTB0KgdndvlG4Pb+pRBPSNDiDR3YkcjlAHf7IiMRJQB5tTRbuX1gDzf0jAi8G6Svxg0dEc0g8cREZWW5Qs+2zthH44oswMH0qNsKtr6lMno5NJoVUYlVaWmo2h3pwfoauzCKZGeXsK22ZEqHzveq0xYBwBtONSjNqrJo36mBrtqP6QfZAt2tC6y/W3Xrl249NJLsWvXLuMmoiLFIf+JyBqWLfik51SRm7nmDZ2u61PQAK9hEvNMw5gDQNijaR7blh4gPTKinXt9vuA2/XOlZ2d3wL6Iebruv/9+nD59GiMjIzh9+jTuv/9+YxGiFWJHq2Z27bBHaRa2t8KemiVbM3WBMuKvdkoDgEP+E5G1LF/wUedUOe5HoD9dHS/T900QmnloFjTohrNf8810ID1Y+7xgpWNPNY+pS6Z5vnL5/ve/D7/fj0cffRQA8Oijj8Lv9+P73/++sSjRCrChayQEhzJUv7PfhVBfm1wzOuBQmq7kZl75fG9DYMClfAlwYsihvmc45D8RWccyBh/Atr0T6PYimOpvkMXg3nk1PrnF4L83XeNj294Ju9oXCGHs7VZrgNrg7ojAe1DpsaDUNC12luNoNIpdu3bhyJEjsNnkjwSbzYYjR45g165diEajxocQrYA2BDI1T7WnJ+FNNylr159CoO9UeltjF05l2g8RUYlZ1uAjV6Fr+uuk2NB1nwsR5RumdNSNUIe2+SmL9kPwNSuT80lO4D4f7OosxY1dCPVA+ZYbQGuqjw/Q1iff2SJJEqRNck1TxonxFrBr1y54vV7cfPPNuvU333wzvF4v+/sQEREVgRKdsiIGf0sDej3RJTVpGd1xxx2YnJzEY489ZtyU8tnPfhZ1dXX45je/adxERLTi1JGQi2FE5GJ6rZRbIWYJ7Wta3hqflaQb30fbr+HCPPTQQzh58iSOHDli3KRz5MgRnDx5Eg899JBxE9GqkyTJuIqIyJJKJ/ho+zQY+zUs0ZNPPom7774bR44cQVnZwoeqrKwMR44cwd13340nn3zSuJmIiIgKwMKf5hb2+uuvY9euXejt7UVzs5lbzoDm5mb09vZi165deP31142biYiIaJUx+GSxa9cueDwe3HLLLcZNC7rlllvg8XjY2ZmIiKgAMfhksHv3btTV1eHAgQPGTaYcOHAAdXV12L17t3ETERERrSIGH4NHH30U4XA4Z2fmXI4cOYJwOJwa7JCIiIhWH4OPwenTp3HkyBGsXbvWuGlR1q5diyNHjuD06dPGTURERLRKGHwM9u/fj+uvv964ekmuv/56jktBRERUQBh8iIiIyDIYfIiIiMgyGHyIiIjIMhh8iIiIyDIYfIiIiMgyGHyIiIjIMhh8iIiIyDIkIYRQf9i6dSuefvppfQkiIiKiInbjjTfiqaeeAozBh4hKkyRJ4FvdWtTBU4thENVieq2UW6Ffb/4/A0aONyf6Hs0AAAAASUVORK5CYII=;" vertex="1" parent="1">
          <mxGeometry x="-372.19" y="-77" width="363.19" height="143" as="geometry" />
        </mxCell>
        <mxCell id="g9klkTqwANIT1uOpOcKC-6" value="" style="shape=image;verticalLabelPosition=bottom;labelBackgroundColor=default;verticalAlign=top;aspect=fixed;imageAspect=0;image=data:image/png,iVBORw0KGgoAAAANSUhEUgAAAj4AAADiCAYAAABOUc3RAAAAAXNSR0IArs4c6QAAAARnQU1BAACxjwv8YQUAAAAJcEhZcwAAFiUAABYlAUlSJPAAADB+SURBVHhe7d17dBvXYSbwb/gmRVmOHcmWXccGQyUCQ0YGvYn7tNXkHDclTG2lrdY1UMJZcePdOGnXNSHGthRVUhSnpgAfp3WSNjZllyzQ5CiVdskAVVvHz6ZNYplMTEawTQaI3Mi15bcp8QGCuPvHzAAzQ4AYUiAJYL7fOXMkzlwMwOFg8OHeO/dKQggBIiIiIgsoM64gIiIiKlUMPkRERGQZDD5ERERkGZK2j8/WrVvx9NNP60sQERERFbEbb7wRTz31FGAMPpIkgX2diYiIqJRo8w2buoiIiMgyGHyIiIjIMhh8iIiIyDJy9vE5/I2g7udMdn/BZVxFREREVBC0+cZU8Ln9j526dVrf/rsQgw8REREVLHZuJiohYY8ESZq/uAeNJRdp0J2f/eRJ7HCT/Lu1+BEzbiQiMslU8Jmansb09Ez636n0z0RUCFwICQGhLKEOILjNjbCx2GK0ByCEQKDduGE1xHCsLyL/d7QXx8aN24mIzDEXfCancfnll2Hj5ZfL/26U/52aZPAhKkT2FjuAYUTG59fcyDUnTfCr4WHcj6ZMNUW6x8Xgb5FrW/ypGiZtsFK2K/toOqypk8m2f20tzrz9GYwfQ+8oYO9wwY4Ieo/P33+Txy0/j1IjpNu3rpYoDLe2dsyT+VnlmjQ3/Kn9aI4ZERUtU8Hn/PlJjIycmrecPz9pLEpEq06tHXHA3mjcZhSDf7sXkWYfomZqikZ7gX0CYswHO4LwKgEn7GmAd1SpdRpwIdLdkA5M2fY/7oezOwJ7TxRChOBCEM4sISR2vBcR2NG57xA6m4FI37F5zV2R4Vb5+Ue6YBt0o6E7AteAkPc96kWDsu+wx4nhniiEEIj22IF+5wLNeUEMbT6lvL4IvAczvz4iKh6mgs/k5BQmpzSL+vPklLEoEa2KIJypWowGeEcB10AAbcZi2Yx60dDih71PQIiFHqeEqUY7HAAiIxEAYQT6AXS45ce1u+ECMPyiJpossP9IdwOaDtsREAKiL9MzK0GuuRM7Gm3Y4bFnbO6ye3bApvw/fDQIwAV3OwC0wd0BYDiCGIC2PoFTuyNwSxIaupXms6zsaLUr/zan90FExctU8Dk/OYnz56fSi/ozgw9RgdD38Yn22BHcZmhyysiGrvuUuzJHvWiY1yxk0NwKu3HdeATDANDvVIKXE8FUKFpg/41d8HXImyLdDfObyFRqM5cSbGzbO+c3d+nEEBmGLgw6+wGMDiGSapJzAgNy7dTCzNSaEVExMRV8Tv78FZz8+WnNkv6ZiAqPHA5MUjoxy805ckBxZgog2Si1P+gIpYKX0NbeLLD/tj6lrBJAIt3Oef1owge9iGjCkbRJ/XlvliY5G+wOzAuDQgTQpoaonmiBdNomopWWM/js/oIr50JEhUXuEwM4NtsAu1xLIzc9ae6OAtIdfT1hAG0IKAHEsVltNDJDaUrqD8hBRNcpeoH9a8u1BxDqQIYaFqUZTekjpK3RAoIIZOmb07bTpdmueQ26JroY/PfmHqCViEqM0DD8SERFINQBAcxf7D3RDGXswtVhF4Bd+MaUjWM+Ydc+tiMkrx9wCQDCNSCEEFHha4ZAs0/Iew0Jl7asuj3Dc2fdvxAi2mPXvWb5uTSU16Dbn9DssyOU+r+xjG7fqddtXG/P+FiROmYuIb9a4+9PRMUEmnyTc+RmIiIiomKmzTc5m7qIiIiISgWDDxEREVkGgw8RERFZBoMPERERWQaDDxEREVkGgw8RERFZhu529muuuQanT3M0ZiIiIiodV199NX75y18CxuDDcXyIiIio1HAcHyIiIrIkBh8iIiKyDAYfIiIisgwGHyIiIrIMBh8iIiKyDAYfIiIisgwGHyIiIrIMBh8iIiKyDAYfIiIisgwGHyIiIrIMBh8iIiKyDAYfIiIisgwGHyIiIrIMBh8iIiKyDAYfIiIisgxJCCFSP0gSND+uuNV8bquRJMm4ioiIqCRp801BBB/1OY3PbfyZls4YdNSfjeuJiIhKTUEFHyEEysrY4rZS4vE4JEmat5B5PF4rZ6WvRyuJ59HKKeXziMwpmOAjhIAQAuXl5Tmfd6VfW7Exc3wkScK5c+dQVlaG8vJylJeXM/wsgdljnauMlZk5PmbKFDMzv5+ZMlZm5viYKUOlT3serHpVC0/IlTU1NYV4PI5EIoG5uTkefyIispRVCz5qbQ8/eFfW5OQkpqenMTs7mwo+/DsQEZFVrFrwUfEDd2VNTU1hZmYGs7OzSCaTPP5ERGQpDD4Wo23mYvAhIiKrWdXgww/dlTc3Nzcv9PDvQEREVrGqwQf80F1xxv48PP5ERJQvr0wnEXorgdBbCTz77hz+75sJHH8jgSffmcNP3p9LlfvFVFL3uJW0arezCyGQTCaRSCRQU1OT83lX8rUVIzPHR5IkPP/886ivr08t1dXVqKioQFlZGW9pN8nssc5VxsrMHB8zZYqZmd/PTBkrM3N8zJShpZtKAsffmMUT78zh5akk/svactyyoQLXX1RuLDrPf8wIVEjAByok1CxzNUxB3c5ORERExWVOAH99ZhYf/vdzePBXs7jpkgo8eW0dHmisNhV6AOCqagkbq5Y/9Bit8NMRERFRMRt8MwH7j8/jb16N4zsfq8VPrqvDf99QgfIiaTRgU1eJMHN82NSVH2aPda4yVmbm+JgpU8zM/H5myliZmeNjpgyZM5ME/nRsGt9+dRZtl1bg6MdqUJcl7bw5KzB6bg6vxgXenhWYE0B9hYT1lRI+UleGj9SWoSzzQ5eF9jxg8CkRZo4Pg09+mD3WucpYmZnjY6ZMMTPz+5kpY2Vmjo+ZMpRbbDqJ//rCFEbOJ3Hv1VU41FAN4yfGW7MCJ96ewz+9NYsfvJvEqzNyB+bfubgcH6iQMPBmIlV268Xl+NQHKvB7l5Tjkyabxi4Eg08JMnN8GHzyw+yxzlXGyswcHzNlipmZ389MGSszc3zMlKGFDU3M4Xd/OoX3EwJ/fk0V9tuqddunksDfvz6L75xN4F/eTocbAPj9Sytwz4eq8DsXl+Mf3kjgD0endNs/VC1h52WVuHVDJa5bu3y9b7TnwfI9CxERERW1V6aTuOlncui5ZUPFvNDz4mQSd45No/PF6XmhBwCEAM7NyYFjQvlX65UZAf8rcXz+5Wn0vzZr3LwsWONTIswcH9b45IfZY52rjJWZOT5myhQzM7+fmTJWZub4mClDmb2bEPjEyUmMTyXxyYvK8ePr6nTbn3xnDj3/EceJt+YHHq1NtWWoKQNGzi88ds/FFRLuuboK3R+qMm66YKzxISIiogV98eUZjE8lsaZcwnc+VqPb9txEEl/55UzO0AMAY1PJnKEHStDaE53B4Vfixk15xeBDREREOv/4VgKB1+Wmpwcaq2HTDLYTm0ri/tMzePLd9EjM2WyuK0PPh6txtLkWf3xZpXHzPAkB3Hc6jsf+c/mavRh8VON+NEkSJOPiCaeKhD0ZtktN8I+ndxM73KTb7h5MbyNaNlnO36bDsQW3a89vsiAT58WC172Mj9dfE6n4TCWBz700DQCw1ZTh9iv0geXR1xL4hzdy1/RcViXh36+rw+4PVeEP11egv6kGf/pruZux3k0IfPNMHKPncgerpWDw0bHDNybPZSUvIbj6nfrw0hHSbBcQ4hS6GuVNscNNaOh2IKR5PLaVZvgJeyRILX4oH6uFa9BdHK8zL+afv45up+ZDaP72eec3WZCJ82KB6968xw844N3E8FPMvnkmjjMzcn+YfTZ9UHnynQT+1mQn5J0bKnFxhb7v6F1X5a71gdKU9tjrucPVUjD4LKgN7g5g+EUzH5th7O2OwDUQQFtqXRsCAy4E7y21D94wAv0uuBy9OMaLWwGzo7U5gqGIcb1qMec3WccFnhftAYQ6IvAeZG1iMZpKAn9xWu5js7ZcgmuDPqgcfSOBV6Zz99cBgMoM98tULWLUwr/9z1n8WDOxab4w+CwojEA/4NhsM26YbzCAIFxwtxvWtwcgRrpgYg/FYzCAYIcbgZ0O3cUtdrgJkscPf4uhulypdfGrVeZqDcygG1KLG+6WdFltU6HcTBODv0VTazbuR1PGanY3Uq9Es959VF1pQePH0DtqR6vduEG1iPObLOTCz4u2nS5gOFJiX/is4e9fn8Wbs3Jtzx+sr0CVJiX87NycbhDC5famMiBivjH46ETg3aRtq3ZiuCeKgDbM9Dt17dm66uDmVmT9jCkh4aPD8O1rA9rdcPUH0oEDAPp7geMZqstHvRjaKSBEFD544VT7nowOo/W4gOhrAwbdmqbCEBzdDXAP2rDDY0fwqPIskSFEOnzoagzDvakXnUoVe7RnGE5PWA5K271ATxRCCLgRTL200mc4fzd54RjQNkmYOL/JgkycFwtd96ikhDR3ae1YX6Hb9qP3k6kmsJXyg3fyH7QYfHQ0bdUDLgAu+HYbvvUY2rp1F4fRIWRtVSgZYQSGO7GjEUqVeBABXV8An/JBa6gub/bhUDsAyEEmMqIeKQfsah+pF4eBDrfSVJh+vG17J+zKt8fw0SBcO9uA8QiGNRfshu4I0B9AWKnl6Nwu/93adrqU57ECY18Nw/lp5vwmCzJxXix03csg9uKwcRUVgTkBXQ2LcZb1kxPmmrjy6bn3k3ghz52cGXyyaQ8g1BGE02zH2HY3XDCEACjNLmb3UQRih70IjnrRoHzzc/YjXRuzXBp3oBO9ODYu9y1KNye6NB3JBYTQ9q+iBS32/CZryNN5ERmJAA57aTXxW8AP35vDpDK68iWVEjZW6fvj/CzPAcSM6aTAL6byW8vE4LOAtr4QXKNe7DWGmYzacKjHjuA2TV8ThOHe5AU8O0rkAhDDsb4IXAPasBGCq9+bvoMj1fRl6CcwqnaElvdhb5nfKGjb7MjyeBt2eIDe7V4E1RqhRjscCMKrNJnFDjfJfYcad6CzOYLe4/L68FErNXUtzuLOb7KKCz4vBt1w9tvl5nAqKtpg8/E1+ngwK4D/MNmpWZUprtSXy6FqMV5RJjvNFwafBWUKM9nZdp+S+5oY2spPGauNi9X4MfSOGjtwt8HdkQ4aaB6GV/ndgx0hXZV473YJktQAL3wIZTom7QHN8dP3M7Dt9sExGpGbuQD5jrkxH9DdoDR1ORAa6YINNnQdT68PYPFNXX6/HxMTE8bVJWhx5zctTvGeR4s9Lwx9hLYNwzem7VtWyuSbL1LjZS1aGO5c4x4tdkiODOXNnos/14yufJHhNnQhgNfiAp0bK/HPW2pxx5W5b0vPFG/Wlkt48to6rDPs38h1WSWOt9Tis5dX4v08d/PhXF0lwszxkZZ5rq7Y4SY09HUiaryLbdANaRsQKpKmqNraWiSTSXR3d6O7uxtr167VbTd7rHOVsTIzx8dMmULG82j5mTk+ZsosXQz+lgb0epb6BTcMt+RF60JBcdAN6d7W+dfVbDKUz3Uuqj7900k88Y5c6/NHGyrw9x+rTW2bSQrc/MIU/uVaeb6uH743B9ep6QVvbf+zq6rwQKN+UlPV8xNz2Do8lZrAVOvGi8vxlEN+nvBbCZycmMO+azLvxyztecAaHyKDr33ta6ioqMADDzyADRs24Mtf/rKpb0tEWjyPipduBH5N7Yl2FGvdnW0je9NDaKTWh+FO1f5ra3XkWiJJkiB5AqldpJrrU4/NUBO0xCE8zJ6L2gwjGb4IS5KE2jIJTynTVESnkkjkCJTRqeyh6Lq15fjHLbWoK5//hXtWyLfVA8DLk0lclKHMhWDwobyx7T6Vecyi9kBRdTy+8847UVNTg8nJSUxPT8Pv9y94sSDKhOdRsQpjbzeUO93k4Tf2Dqp9l5QbKsZ8GNY0BUaGWxESAtEeuzJgbQz+Fieg9occcMC7XQ41scNOeOFDVAiInVjEgBtLH8LD7LmY1OSY1+L60FIlAWdmkvjd4Ul86qeT+ItX4ng1x63t/+/NBP5kbMa4OuW315XjHz9eC800YACAf1Nqkz74r+fw5VgcVxkLXKD87o0K3nXXXYePfvSjuPLKK7Fu3TrU1NTomroWWkqJ8XczLm+//TbKyuS3x9TUFKanp9HT04Pbb7/duCtaRsa/S7EtPI8Kg/HvstCi9lv0bpIgtRzDjhH59n3dcBuNXTil+TJnV25gsW12KGsiGBoFgtuU/W4LKjd4KDd3qDe8tLvN90JcwhAeiz0XtTHm9fj8ULNlrXx7+5PvzOGUidnWAeChX8UXDD83XFyOf2iuzdgf6K1ZgemkwIdr8xtV8rs3KnjPP/88XnrpJZw5cwbvvfcepqenkUgkkEwm5W8mCyylxPi7GZdLLrkEyaT8xq6trUVNTQ26u7vx7W9/27grWkbGv0uxLTyPCoPx77LQAgBtfSJV29Ognex3UYzjai3Qj8e0xQ3hof29zJyLl2tuX//l9Pxr/nVrlxYZHvpVHF98WZ70NJO2Syvw6Q/oxwxSfWJtOa6tX9rzZpPfvRGVgAcffBDT09Opi0NXVxfOnj2Lr3zlK1k7BRIZ8TwqVmG4JTfCsKFrRCDUIa/VDbehnTonI3mevNSUPoNupU+OMoBr3zFl2p5AqmHKttmRHgRXsz7lAobwMHsuNmhqVibnBJ5V+vOofmNdBTYYxvYx6xtnZnHHAuGnsS5zHPn0JfrRo/Mh8zOVGG2HtPRi9lZNunCaznzaRZ3La7HbF3Nr5xLcc889mJ2dzXpxWG48X0sDz6Ni1YbAAFLDkjiHleE3tMNtbPICPaEFanBs6BqRp+2RJPUWf7l2xrY7lKpJko4i3dSlDILrNK5PWfoQHmbPxYYafah53DBdRGt9GbZ9cOlB5FtnZnH7S/PDz5wAnlbuJtO6qELC730g/zHFErezhz0SnAjJ80EpYoeb0DDi060rZmaOj7TMt7Nnl+GWz3E/mjb1onPsFLoaM2xPCcNtGA8p623zeeL3+3H77bdnvDBgEcc6V5lseL7KzJQpZDyPlp+Z42OmTKnLdS6qnnt/Dp98fjL180fqyvDS9Wt0Zf757TncFpnCaxn6AJnVubESj2yuAZQ7yf5HZArfOTt/sJ4/+bUq/OWmC7uNXaU9D/IfpYqEbbNDmT1YGYCqRb59Ub4VUV/DoJ+QT3uLYubbCfXfqvT7SrcVZ1tvEUr17FCuyc0GAwg26wc8tO0OIXrfDl2xfOrq6sp5gVhpPF+LD8+jTOdLtvW0nMyei5+4qBzrNaMqvzyZxDOG5q6bLimH5/LcgxcupPc/Z/HhH53Hbw9NYv2/nssYerbUl+Ozly+9dmkhlg0+4aNB3VwyEYcPQpl8L+yRRxeOCnnSvuA2tS03prtFMX07oTw1hUNZr53rJnbYCa9DneAvBEf3XoQXWG8Zyp0IrZqZKyJKVa32Imr8O8lssLXblqW2p1AZjwPPV1oKnkeUS7uhKetvXpXH09HatbESN196YaEkOpXED9+byziAYW2ZhDuurESrchdZvlkn+KhtrcriHPYhqqnuTc8dFUNkGHDdpzSjtB+CT+04Zpiywbb7lFxlPBhAEOn1bft8sGecqb0NgYy98LOtLy26YJOhjdyujEMhL/LxyDSnlyXwfKV84HlEi3TLBn2gCb4+ixfO6W9d/2hdGbo/VIXfuGh5IsQ9V1fh9isurFZpIcvzqgtRh/otQ1kM/UNSk2kq4y+k2WBPDc2Q6U2tUjqlKR/qEQwjMi5fJEJIX3zU6uNs60tZKtiM+WBHetyJhaSr5rXk6vKSPmY8XykfeB7RIt10SQU+arjD6k/H5ndI/p2Ly7HPVoMbL85frUx1GXDAVo17rq4ybsor6wQf0+xobdb+LH8Tkje1Imv9Q7NSRZxa0mM2yGNCyFW7SFUfZ19f8hq7cGrAAe8mE3eYtLvhGvXCqekLoI58ekg3WapV8XylfOB5RGn3GoLH0+/O4dsZmrw+c0k5HmisRkeOPj9fvqYKoY/X4uHNNVmbyD62pgx/uakG+66pQo75Sy8Yg8888jcdedhxAIN74VVHxVTGUQgo31JS4ygoH857tevVPioeYwc+B+yN2ddbRntA7hOQ8/baNgRECA5NM9ly3tFVfHi+Uj7wPKI0z+WV2Gyo9flfL03jxNvzOyG3ri3Hg43V+KtN1fitdZlrf/78mmq0XVqB/7mxEmsNqeaDlRL+9xWV+OuP1ixr85aO0DD8uKySyaRIJBJienra1POaKZNNqAMCHSHjakVU+JohXAPz1ykjeOu3jfmEXVkPuERqr7r1duEbUzeEhCu1XruvbOuXxszxASCef/558dJLL4kzZ86I9957T0xPT4tEIiGSyaSxOGVh9lgvFc9XmZkyxczM72emTDY8j2RmytB8P3w3IfDE+7plzdMT4ofvJoxFU05PzYm/PhMX21+YFPVPT6Qe99VfzgghhJhIJIXjJ+cEnnhfXPfcObF7fFo88fascTfLQnseWGIcHyswc3ykVRvHp7SYPda5yliZmeNjpkwxM/P7mSljZWaOj5kylNkdL0/jW2f0TVy1ZcDj19bhN7PU7qhiU0n8fDKJX00n8XZCHqRwTTlwWZWEj9SWYfOaMqzN86zrC9GeBww+JcLM8WHwyQ+zxzpXGSszc3zMlClmZn4/M2WszMzxMVOGMpucE/jNoUn8zHBXV125hH57DXasz9xfR2s6iXmzr68G7XlQAC+HiIiICk1duYQTW+p0k5dCCUT/bXQK/2dsBokcmfLzL00jOmVuJveVwuBDREREGV1eJSG8pQ6XaEZ0Vv3lr+LY/OPz+NvX5t/xpXp9VuA3hibx0mThhB8GHyIiIsrKUV+Gn35iDVrWzI8Mv5hK4rORaXz4R+dx9y9m8IRhslEJwNm4wA3Dk4gUSPiZ/1sQERERaVxVLeHfrquD67LMt5xHp5K4/5U4Pv3TSdQ9PYHf/9kUel6J481ZuS3sbFxg6/AkTp1f/fDD4ENEREQ51ZdLCDTV4J+21GKjod+P1lQSOPF2Al/6xQx+8n66BuhsXODG4Un8fJXDD4MPERERmXbTJRWIXL8GhxqqcdkCASiTN2cF/mBkyrh6RTH4EBER0aKsq5Cw5+oqvPZb9fi7phr80YYKXFGdOwRdVCHhux+rMa5eURzHp0SYOT4cxyc/zB7rXGWszMzxMVOmmJn5/cyUsTIzx8dMGcqflyeTGJtK4q1ZgbdmBb55Zhbjyu3sa8olPHFtLT550cKDHy4HjuNDREREefeRujI4L62A5/JK/NlVVdikzPlVVy7hB6sUeowYfIiIiGjZ1JQB/7SlFtcXQOgBgw8REREtlyoJCH28Dr+dY26vlcTgQ0RERHmzf//+1P//6iM1+NQHCif0gMGHiIiI8unAgQOp/19l4k6vlcbgQ0RERJbB4ENERESWweBjMepYPRyzh4iIrGjVBzCcm5tDdXW1cTMtk+HhYaxZswb19fVYs2YNampqUF5ezgEMF4HHaeWs1PVoNfA8WjmlfB4VopXMEmZpX9OqBh8hBBKJBGZmZjA5OYnz58/j/PnziMfjSCQSSCZXdyKzbCYnJ3Ho0CHs3bsXdXV1xs0FqaysDBUVFaiqqsKaNWuwZs0a1NXVpUZuliSJF+IStpLvbVpd6h012jtrCt3nPvc5AMDDDz9s3ERFqBCvNwUVfObm5hCPxzE1NYXJyUlMTU0hHo9jbm4u9VpW6jWZ9Y1vfAN9fX3weDz4whe+YNxcULRNW+Xl5aiqqkJtbS3q6upQW1uLqqoqlJeXM/iUuJV8b9PqKrbgMzExgQ9+8IMAgDfffBNr1641FqEiU4jXm4IKPslkErOzs4jH45iensbMzAwSiYQu+BSS8+fP49d//dcRj8dRVVWFH/3oR1izZo2xWMFRg09FRQWqq6tRU1ODqqoqVFZWppq5GHxK10q+t2l1FVvw2bNnD3w+HwDA6/Xiq1/9qrEIFZlCvN4URPCBoZ9PIpHA7OwsZmdnMTc3l2rmWsnXY8b999+Pb33rW5idnUVlZSU+//nP40tf+pKxWEFRA01ZWRnKy8tRWVmJyspKVFRUsH+PRaz0e5tWTzEFn4mJCaxfvx4zMzMAgOrqarzxxhus9SlyhXi9Kajgoy5zc3OpwJNMJlf0dZh17tw5NDQ0pN6kUN6o0WgU9fX1urKFSJIklJWVpQKQtomLwae0rfR7m1ZPMQUftbYnHo8DAKqqqljrUwIK8XpTMMEHhvCjXdRthWTfvn148MEHEY/HUV9fj3PnzqGqqgp33nknDh48aCxeUNRgow06DD3WsRrvbVodxRJ8tLU96p296v9Z61PcCvF6U1DBB5qAY3xu48+raWJiAhs2bEB9fT0qKytx9uxZbNiwAbOzszh37hzOnj1b0G9UY7jRBiEqfav13qaVVyzBZ8+ePfD7/aiqqsKll14KAHjrrbcQj8fR1dXFWp8iVojXG+1rKogBDI21D+qiNssUwvLII4+gsrIS+/btw2uvvQYAeO2117Bv3z5UVFTgkUcemfeYQlqMx1ZdiIhW2sTEBI4dO4YbbrgBjz/+OG677TbcdtttePzxx3HDDTfge9/7HiYmJowPI8qLgqjxKUY8VlRMeL5aR7HU+Jw5cwZXXnklkOE1a7dR8SnE6432NRVEjQ8REVnLQsFmoW1EF4rBh4iIiCyDwYeIiIgsg8GHiIiILIPBh4iIiCyDwYeIiIgsg8GHiIiILIPBh4iIiCyDwYeIiIgsg8GHiIiILIPBh4iIiCyDwYeIiIgsg8GHiIiILIPBh4iIiCyDwYeIiIgsg8GHiIiILIPBh4iIiCyDwYeIiIgsg8GHiIiILIPBh4iIiCyDwYeIiIgsg8GHiIiILIPBZ4mEEMZVREREVOAYfIiIiMgyLBB8YvC3SJAk7dIE/7ixnBlhuJf8WCIiIlptFgg+MntPFEIICCEQ7QG8B8PGIia0ISBOoavRuJ6IiIiKgWWCT2ZybVDT4Zj846AbUosfMQAY96NpXg2RWuMjP87tcadqkdyD6b2GPenapdS+M+5PX1byLCWMERERkVmWCT6R7oZUwGjo60S0r81YRCd80AsotUTZaoiCcCvb7QjeKwem2OEmOBFSapdCcHQ74R/Psr9xP7z9LoSUsq5+L5vRiIiIlpFlgo+uqcvTiwa1ZieLtp0uJSw14dj2UxAZgpK9xQ4AsG12pNZFRiJAv1MJWU4EEUHv8Vjm/TXuQGdzEE5JguQBm9GIiIiWmWWCj5Zteyfso0OIGDdotQfStTObpHQTmAnakCWEwKndtiz7s6FrRK3tkcOStsmMiIiI8suSwSd2vBeR5lbYYYPdodTSAAgfDabKhD1yCLHtPgUx4NI8emH2Fjsi3XshN4yF4VbCTMb9jfvR1OJHDG0IiCh8zfp9ERERUX5ZJvjo+vh0A77jXbApTVpq01QA6YDT1hcCtimdjrcNp8rnYtt9CqEOpflKcmK4J4pAe5b9NXYh5OlFgyRBkhrgdYQQaDfukYiIiPJFEpohiCVJ4ojERCWI723r2L9/v+7fYlCMr5myK8TrjfY1WabGh4iIiIjBh4iIiCyDwYeIiIgsg8GHiIiILIPBh4iIiCyDwQdIz+CuG6RQmY8rHwMKaucAIyIiolXD4KM16sXefAQdIiIiKkgMPhr2Hh+wza2Mumygm11dW0YenVlen551XVvefTRVmIiIiFYRg4/ODhzqGYb3sLFRKgz3pl50jimTnPYMw+kJK81hTmBAmZdrwAHvdj9iiMG/PT0buxvpqTCIiIho9TD4GNh2h9DZp861pRiPYBgReXJRSUJDdwToDyCMCIZGgWBqKoogMNqLYz84ht5ROzq3y5NctO00P9cXERERLR8Gn3ls6LoPcHqOGda7ENLMuC5EAG0AADt8Sk2QvJxC19WGhxIREVFBYPDJpD2AELzwjio/N9rhQDDVBBY73KTcpWVHa3ME3oNK/dCgW+7/07gDnc0R9B6Xy2tnfSciIqLVw+CTRds+H+zpnxAY8wHKDO8N3Q6ERrpggw1dIyG4lNndpW3D8I0F0AYbuo6ny2tnfSciIqLVw9nZiSyA723rKMaZzovxNVN2hXi94ezsREREZEkMPkRERGQZDD5LJEmScRUREREVOAYfIiIisgwGHyIiIrIMBh8iIiKyDAYfIiIisgwGHyIiIrIMBh8iIiKyDAYfIiIisgwGHyIiIrIMBh8iIiKyDAYfIiIisgwGHyIiIsqbQpuZ3YjBZxGee+453HbbbVi/fj0qKiqwfv163HbbbXjuueeMRYmIiKgAMfiY9PDDD+Omm27Cli1b8MILL2B2dhYvvPACtmzZgptuugkPP/yw8SFERERFJ+yR0HQ4ZlwNDLohtfiRYUtRYfAx4dlnn8WePXvwzDPP4K677sLGjRsBABs3bsRdd92FZ555Bnv27MGzzz5rfCgREVERiSEybFynaA9AjHTBZlxfZBh8TPj617+OgwcPoqWlxbgJANDS0oKDBw/i61//unETERFR0YgddsI7CkS6nfCPh+GWmuD2NEGS3Ahra3wG3ZAkCZK63ROWdzDuR5MkQZIkuD3aGqIw3Mp6SWqCf1x9viZIHjfcklzLFPaoZaT0PvOMwceEEydO4NZbbzWu1rn11ltx4sQJ42oiIqKiYdsdgq8ZsPeE0NUIABEMt4QgRABtqVJhuLcF4RoQECKE1uGIsj4G/3Yv0BOFEAJuBNPrW5zAgIAQAmLAAe92TZNZP+AWAqe2H4O334WQkPfr6vemAlI+MfjkkEgkEI/HsW7dOuMmnXXr1iEejxtXExERFTXHZkPj1mAAQbjgbgcAG3Z47PL68WPoHbWjc7tcvm2nS3lABEOjQHCbUpOzLQiM9uKYGmqaW2EHgMYd6GwOwilJkDxAQJxSwld+MfjkUFFRgcbGRpw8edK4SefkyZNobFyGvxAREVHRs8M3ptT4CAGRMdTY0DWi1vY45eayQWOZC1cCwScGf8vytQUCQEdHBx544AHjap0HHngAHR0dxtVERESlpd0NF4IIDAJADMf6lKauxh3obI6g97jSq+eo2tRlR2tzBN6Dyuf0oFvuM6RsTRn3o6nFjxjaEBBR+JqNBfJEaBh+LA4DLoEOl3DBJULGbXm0detWceeddxpXCyGEuPPOO8XWrVuNq4kKRlG+t4loVYQ6IAC78I2FhAsQrgFlw4BLoNknour/IZdzddgFOpRP4DGfsAMCgHB1aMoLeV/qY3xjcvFoj11TRvlZLafuMw+010BJWQEAkCSp4EdcNAp7JAR2CriPSvC2RHFqt9IWOeiGdG8rfA4vvP0A4EJIBNCGGPwtDRjy+DDc7UUEgL1H87gszp07hy9+8Yt44okn8JnPfAZXXHEFXn31VZw4cQKf+tSn8NBDD6G+vt74MKKCUIzvbSIqBvJnaq9n/udo2CPBiRBEX7pb9GrRXgOLvKkrjEC/3MGqbZ8P6DumH1hp1IveFrl3eagjCKemOSzYPQSfEBBjPqDbmbPneH19PR577DGEw2Fce+21OHDgAK699lqEw2E89thjDD1EtLouaHA5+bZl/7h6O3KGZgiiFO2t6Q3wwofQblu664myzdnvQqgAQo9Rcdf4DLohHXUraVK5Xe640mFq0A1pG5RaHuXNvGkIPnEIEUM6DXsMtUUmFN2xIkvj+WoBSi139EIHmDNeO4lKQMnU+ISPBgGl57ckNcA7mu5UBWhukctg3u15iu9973umlsWWJSJarEyDucUONxkGhUsPBgcMYa/6jVs70FyLH351Xy1+xDSDz8mPVfcjj88C6GvIs9N/w1efUx6Uzp/epn3tGdbLr9ENt+ZGldjhptR+5ekT5OdK3eUz7keTrpZKfR2srVptkiQZVxWU4g0+4354+w23x435gO696ZN+dAjqsEqIaP4PYPhFNSDph+ceHR3Fd7/73ZwLgHnrMi2jo6PpnRMRmTXuX/xgbqNB4D4BIaLwwQunOt/SqBdDO5X9jHrRcNQtl9HcgSNrQ2DAJfeJNNNEMR6B/bh6DQ7BpR2bpb8XOJ6+NTkVWLKtHx1G63Eh1+APutHQ7Uj97o7uBrgH5fFigkeVK3xkCJEOH7oaw3Bv6kWn8lkQ7Rk2GdrIsjSdnovqzg9jT3CZpge60uNc7Y0e6lB7iEeFrxnpx475hF3Tw9ysYjpWRDxfi5FyrTLc3aK/9oWES71+DbgENHe3RnuUO2106+V9aq+L9p7ogvvJTfM6lX2knluhPk+29cbnzFpuzCfsyu8e6lB+D81dROllMa+f8q0Qrzfa11SkNT7yuAF2zw5DW3Yb3B1A8F6lirfZBdyrdLIa9iGq+QbjcgyhQZIgbfLCMZBpICUiotW0MoO5XZBBNySpAUP3Ka/TuD3fGnegE704Np6+sUWm1oypC/snUXZFGnzkC0KmzshtfUIze2wrDo0obwRjh7+dgdSbJJB68xARFYgsg7nZNjvSzfiDgdRsSDL9oHL2lmy9HPOo2YdD7RleS39A6XYQRqBf068y23oN22ZHlnI27PAAvdu9CHa45XDTaIcDQXiVZj19Hyii+Yo0+BARlbjGLoQ8vXLNtNQAryMkf0lTRs11ShKkozDUsriAo0r51C3Gi2Rvhd1s5+Z2t9xnSJIgHW2FrzmCIbUzZfMwvJIESXIi2KG89oXWa7UH5L46SrnhnmiqnG23D47RCFw71TqdNgTGfEB3AyRJkvsGGb/oEmkU9+3sq4jHiooJz1daSbHDTWjo65x3a3229VRaCvF6o31NrPEhsoBCuwgREa0W1vgsEY8VERHRfIX4+cgaHyJSBpMz0Y+DitL+/fuxf/9+4+qCVEyvlYpf/oOPOiLovAuqOrcHR9UkIiKi1ZH/4AMAzXbYU7ciKgYDCDbbs04hQURLoB2qX3sLb2pKAsOXEM1UBXtH0qs55D8RWcXyBB90orNDHU9CFj4ahMvTqSmTeY6X1HwsnlwXbnnRDuiVntulCW6Pthpf/1zGuV6aWnixp2IUg3+7F+iJQgiBkEOZomDcj6Ztw8p0LlH4hp3KXEfyPEyuAXmwudZh9b5jDvlPRNaxTMEHsLdo5lSBMsrm9vT2sEcel0IeRFCeP2avJsQEh1sRFQJiwAWoc9ToLugC0R57epTmcT+c3VC2+YD+9MxcuucacCG4TTupXwSO+xY30ufc3Bw2btyIubk54yaiFRTB0KgdndvlG4Pb+pRBPSNDiDR3YkcjlAHf7IiMRJQB5tTRbuX1gDzf0jAi8G6Svxg0dEc0g8cREZWW5Qs+2zthH44oswMH0qNsKtr6lMno5NJoVUYlVaWmo2h3pwfoauzCKZGeXsK22ZEqHzveq0xYBwBtONSjNqrJo36mBrtqP6QfZAt2tC6y/W3Xrl249NJLsWvXLuMmoiLFIf+JyBqWLfik51SRm7nmDZ2u61PQAK9hEvNMw5gDQNijaR7blh4gPTKinXt9vuA2/XOlZ2d3wL6Iebruv/9+nD59GiMjIzh9+jTuv/9+YxGiFWJHq2Z27bBHaRa2t8KemiVbM3WBMuKvdkoDgEP+E5G1LF/wUedUOe5HoD9dHS/T900QmnloFjTohrNf8810ID1Y+7xgpWNPNY+pS6Z5vnL5/ve/D7/fj0cffRQA8Oijj8Lv9+P73/++sSjRCrChayQEhzJUv7PfhVBfm1wzOuBQmq7kZl75fG9DYMClfAlwYsihvmc45D8RWccyBh/Atr0T6PYimOpvkMXg3nk1PrnF4L83XeNj294Ju9oXCGHs7VZrgNrg7ojAe1DpsaDUNC12luNoNIpdu3bhyJEjsNnkjwSbzYYjR45g165diEajxocQrYA2BDI1T7WnJ+FNNylr159CoO9UeltjF05l2g8RUYlZ1uAjV6Fr+uuk2NB1nwsR5RumdNSNUIe2+SmL9kPwNSuT80lO4D4f7OosxY1dCPVA+ZYbQGuqjw/Q1iff2SJJEqRNck1TxonxFrBr1y54vV7cfPPNuvU333wzvF4v+/sQEREVgRKdsiIGf0sDej3RJTVpGd1xxx2YnJzEY489ZtyU8tnPfhZ1dXX45je/adxERLTi1JGQi2FE5GJ6rZRbIWYJ7Wta3hqflaQb30fbr+HCPPTQQzh58iSOHDli3KRz5MgRnDx5Eg899JBxE9GqkyTJuIqIyJJKJ/ho+zQY+zUs0ZNPPom7774bR44cQVnZwoeqrKwMR44cwd13340nn3zSuJmIiIgKwMKf5hb2+uuvY9euXejt7UVzs5lbzoDm5mb09vZi165deP31142biYiIaJUx+GSxa9cueDwe3HLLLcZNC7rlllvg8XjY2ZmIiKgAMfhksHv3btTV1eHAgQPGTaYcOHAAdXV12L17t3ETERERrSIGH4NHH30U4XA4Z2fmXI4cOYJwOJwa7JCIiIhWH4OPwenTp3HkyBGsXbvWuGlR1q5diyNHjuD06dPGTURERLRKGHwM9u/fj+uvv964ekmuv/56jktBRERUQBh8iIiIyDIYfIiIiMgyGHyIiIjIMhh8iIiIyDIYfIiIiMgyGHyIiIjIMhh8iIiIyDIkIYRQf9i6dSuefvppfQkiIiKiInbjjTfiqaeeAozBh4hKkyRJ4FvdWtTBU4thENVieq2UW6Ffb/4/A0aONyf6Hs0AAAAASUVORK5CYII=;" vertex="1" parent="1">
          <mxGeometry x="-327" y="9.260000000000002" width="363.19" height="143" as="geometry" />
        </mxCell>
        <mxCell id="g9klkTqwANIT1uOpOcKC-1" value="" style="shape=image;verticalLabelPosition=bottom;labelBackgroundColor=default;verticalAlign=top;aspect=fixed;imageAspect=0;image=data:image/png,iVBORw0KGgoAAAANSUhEUgAAAj4AAADiCAYAAABOUc3RAAAAAXNSR0IArs4c6QAAAARnQU1BAACxjwv8YQUAAAAJcEhZcwAAFiUAABYlAUlSJPAAADB+SURBVHhe7d17dBvXYSbwb/gmRVmOHcmWXccGQyUCQ0YGvYn7tNXkHDclTG2lrdY1UMJZcePdOGnXNSHGthRVUhSnpgAfp3WSNjZllyzQ5CiVdskAVVvHz6ZNYplMTEawTQaI3Mi15bcp8QGCuPvHzAAzQ4AYUiAJYL7fOXMkzlwMwOFg8OHeO/dKQggBIiIiIgsoM64gIiIiKlUMPkRERGQZDD5ERERkGZK2j8/WrVvx9NNP60sQERERFbEbb7wRTz31FGAMPpIkgX2diYiIqJRo8w2buoiIiMgyGHyIiIjIMhh8iIiIyDJy9vE5/I2g7udMdn/BZVxFREREVBC0+cZU8Ln9j526dVrf/rsQgw8REREVLHZuJiohYY8ESZq/uAeNJRdp0J2f/eRJ7HCT/Lu1+BEzbiQiMslU8Jmansb09Ez636n0z0RUCFwICQGhLKEOILjNjbCx2GK0ByCEQKDduGE1xHCsLyL/d7QXx8aN24mIzDEXfCancfnll2Hj5ZfL/26U/52aZPAhKkT2FjuAYUTG59fcyDUnTfCr4WHcj6ZMNUW6x8Xgb5FrW/ypGiZtsFK2K/toOqypk8m2f20tzrz9GYwfQ+8oYO9wwY4Ieo/P33+Txy0/j1IjpNu3rpYoDLe2dsyT+VnlmjQ3/Kn9aI4ZERUtU8Hn/PlJjIycmrecPz9pLEpEq06tHXHA3mjcZhSDf7sXkWYfomZqikZ7gX0CYswHO4LwKgEn7GmAd1SpdRpwIdLdkA5M2fY/7oezOwJ7TxRChOBCEM4sISR2vBcR2NG57xA6m4FI37F5zV2R4Vb5+Ue6YBt0o6E7AteAkPc96kWDsu+wx4nhniiEEIj22IF+5wLNeUEMbT6lvL4IvAczvz4iKh6mgs/k5BQmpzSL+vPklLEoEa2KIJypWowGeEcB10AAbcZi2Yx60dDih71PQIiFHqeEqUY7HAAiIxEAYQT6AXS45ce1u+ECMPyiJpossP9IdwOaDtsREAKiL9MzK0GuuRM7Gm3Y4bFnbO6ye3bApvw/fDQIwAV3OwC0wd0BYDiCGIC2PoFTuyNwSxIaupXms6zsaLUr/zan90FExctU8Dk/OYnz56fSi/ozgw9RgdD38Yn22BHcZmhyysiGrvuUuzJHvWiY1yxk0NwKu3HdeATDANDvVIKXE8FUKFpg/41d8HXImyLdDfObyFRqM5cSbGzbO+c3d+nEEBmGLgw6+wGMDiGSapJzAgNy7dTCzNSaEVExMRV8Tv78FZz8+WnNkv6ZiAqPHA5MUjoxy805ckBxZgog2Si1P+gIpYKX0NbeLLD/tj6lrBJAIt3Oef1owge9iGjCkbRJ/XlvliY5G+wOzAuDQgTQpoaonmiBdNomopWWM/js/oIr50JEhUXuEwM4NtsAu1xLIzc9ae6OAtIdfT1hAG0IKAHEsVltNDJDaUrqD8hBRNcpeoH9a8u1BxDqQIYaFqUZTekjpK3RAoIIZOmb07bTpdmueQ26JroY/PfmHqCViEqM0DD8SERFINQBAcxf7D3RDGXswtVhF4Bd+MaUjWM+Ydc+tiMkrx9wCQDCNSCEEFHha4ZAs0/Iew0Jl7asuj3Dc2fdvxAi2mPXvWb5uTSU16Dbn9DssyOU+r+xjG7fqddtXG/P+FiROmYuIb9a4+9PRMUEmnyTc+RmIiIiomKmzTc5m7qIiIiISgWDDxEREVkGgw8RERFZBoMPERERWQaDDxEREVkGgw8RERFZhu529muuuQanT3M0ZiIiIiodV199NX75y18CxuDDcXyIiIio1HAcHyIiIrIkBh8iIiKyDAYfIiIisgwGHyIiIrIMBh8iIiKyDAYfIiIisgwGHyIiIrIMBh8iIiKyDAYfIiIisgwGHyIiIrIMBh8iIiKyDAYfIiIisgwGHyIiIrIMBh8iIiKyDAYfIiIisgxJCCFSP0gSND+uuNV8bquRJMm4ioiIqCRp801BBB/1OY3PbfyZls4YdNSfjeuJiIhKTUEFHyEEysrY4rZS4vE4JEmat5B5PF4rZ6WvRyuJ59HKKeXziMwpmOAjhIAQAuXl5Tmfd6VfW7Exc3wkScK5c+dQVlaG8vJylJeXM/wsgdljnauMlZk5PmbKFDMzv5+ZMlZm5viYKUOlT3serHpVC0/IlTU1NYV4PI5EIoG5uTkefyIispRVCz5qbQ8/eFfW5OQkpqenMTs7mwo+/DsQEZFVrFrwUfEDd2VNTU1hZmYGs7OzSCaTPP5ERGQpDD4Wo23mYvAhIiKrWdXgww/dlTc3Nzcv9PDvQEREVrGqwQf80F1xxv48PP5ERJQvr0wnEXorgdBbCTz77hz+75sJHH8jgSffmcNP3p9LlfvFVFL3uJW0arezCyGQTCaRSCRQU1OT83lX8rUVIzPHR5IkPP/886ivr08t1dXVqKioQFlZGW9pN8nssc5VxsrMHB8zZYqZmd/PTBkrM3N8zJShpZtKAsffmMUT78zh5akk/svactyyoQLXX1RuLDrPf8wIVEjAByok1CxzNUxB3c5ORERExWVOAH99ZhYf/vdzePBXs7jpkgo8eW0dHmisNhV6AOCqagkbq5Y/9Bit8NMRERFRMRt8MwH7j8/jb16N4zsfq8VPrqvDf99QgfIiaTRgU1eJMHN82NSVH2aPda4yVmbm+JgpU8zM/H5myliZmeNjpgyZM5ME/nRsGt9+dRZtl1bg6MdqUJcl7bw5KzB6bg6vxgXenhWYE0B9hYT1lRI+UleGj9SWoSzzQ5eF9jxg8CkRZo4Pg09+mD3WucpYmZnjY6ZMMTPz+5kpY2Vmjo+ZMpRbbDqJ//rCFEbOJ3Hv1VU41FAN4yfGW7MCJ96ewz+9NYsfvJvEqzNyB+bfubgcH6iQMPBmIlV268Xl+NQHKvB7l5Tjkyabxi4Eg08JMnN8GHzyw+yxzlXGyswcHzNlipmZ389MGSszc3zMlKGFDU3M4Xd/OoX3EwJ/fk0V9tuqddunksDfvz6L75xN4F/eTocbAPj9Sytwz4eq8DsXl+Mf3kjgD0endNs/VC1h52WVuHVDJa5bu3y9b7TnwfI9CxERERW1V6aTuOlncui5ZUPFvNDz4mQSd45No/PF6XmhBwCEAM7NyYFjQvlX65UZAf8rcXz+5Wn0vzZr3LwsWONTIswcH9b45IfZY52rjJWZOT5myhQzM7+fmTJWZub4mClDmb2bEPjEyUmMTyXxyYvK8ePr6nTbn3xnDj3/EceJt+YHHq1NtWWoKQNGzi88ds/FFRLuuboK3R+qMm66YKzxISIiogV98eUZjE8lsaZcwnc+VqPb9txEEl/55UzO0AMAY1PJnKEHStDaE53B4Vfixk15xeBDREREOv/4VgKB1+Wmpwcaq2HTDLYTm0ri/tMzePLd9EjM2WyuK0PPh6txtLkWf3xZpXHzPAkB3Hc6jsf+c/mavRh8VON+NEkSJOPiCaeKhD0ZtktN8I+ndxM73KTb7h5MbyNaNlnO36bDsQW3a89vsiAT58WC172Mj9dfE6n4TCWBz700DQCw1ZTh9iv0geXR1xL4hzdy1/RcViXh36+rw+4PVeEP11egv6kGf/pruZux3k0IfPNMHKPncgerpWDw0bHDNybPZSUvIbj6nfrw0hHSbBcQ4hS6GuVNscNNaOh2IKR5PLaVZvgJeyRILX4oH6uFa9BdHK8zL+afv45up+ZDaP72eec3WZCJ82KB6968xw844N3E8FPMvnkmjjMzcn+YfTZ9UHnynQT+1mQn5J0bKnFxhb7v6F1X5a71gdKU9tjrucPVUjD4LKgN7g5g+EUzH5th7O2OwDUQQFtqXRsCAy4E7y21D94wAv0uuBy9OMaLWwGzo7U5gqGIcb1qMec3WccFnhftAYQ6IvAeZG1iMZpKAn9xWu5js7ZcgmuDPqgcfSOBV6Zz99cBgMoM98tULWLUwr/9z1n8WDOxab4w+CwojEA/4NhsM26YbzCAIFxwtxvWtwcgRrpgYg/FYzCAYIcbgZ0O3cUtdrgJkscPf4uhulypdfGrVeZqDcygG1KLG+6WdFltU6HcTBODv0VTazbuR1PGanY3Uq9Es959VF1pQePH0DtqR6vduEG1iPObLOTCz4u2nS5gOFJiX/is4e9fn8Wbs3Jtzx+sr0CVJiX87NycbhDC5famMiBivjH46ETg3aRtq3ZiuCeKgDbM9Dt17dm66uDmVmT9jCkh4aPD8O1rA9rdcPUH0oEDAPp7geMZqstHvRjaKSBEFD544VT7nowOo/W4gOhrAwbdmqbCEBzdDXAP2rDDY0fwqPIskSFEOnzoagzDvakXnUoVe7RnGE5PWA5K271ATxRCCLgRTL200mc4fzd54RjQNkmYOL/JgkycFwtd96ikhDR3ae1YX6Hb9qP3k6kmsJXyg3fyH7QYfHQ0bdUDLgAu+HYbvvUY2rp1F4fRIWRtVSgZYQSGO7GjEUqVeBABXV8An/JBa6gub/bhUDsAyEEmMqIeKQfsah+pF4eBDrfSVJh+vG17J+zKt8fw0SBcO9uA8QiGNRfshu4I0B9AWKnl6Nwu/93adrqU57ECY18Nw/lp5vwmCzJxXix03csg9uKwcRUVgTkBXQ2LcZb1kxPmmrjy6bn3k3ghz52cGXyyaQ8g1BGE02zH2HY3XDCEACjNLmb3UQRih70IjnrRoHzzc/YjXRuzXBp3oBO9ODYu9y1KNye6NB3JBYTQ9q+iBS32/CZryNN5ERmJAA57aTXxW8AP35vDpDK68iWVEjZW6fvj/CzPAcSM6aTAL6byW8vE4LOAtr4QXKNe7DWGmYzacKjHjuA2TV8ThOHe5AU8O0rkAhDDsb4IXAPasBGCq9+bvoMj1fRl6CcwqnaElvdhb5nfKGjb7MjyeBt2eIDe7V4E1RqhRjscCMKrNJnFDjfJfYcad6CzOYLe4/L68FErNXUtzuLOb7KKCz4vBt1w9tvl5nAqKtpg8/E1+ngwK4D/MNmpWZUprtSXy6FqMV5RJjvNFwafBWUKM9nZdp+S+5oY2spPGauNi9X4MfSOGjtwt8HdkQ4aaB6GV/ndgx0hXZV473YJktQAL3wIZTom7QHN8dP3M7Dt9sExGpGbuQD5jrkxH9DdoDR1ORAa6YINNnQdT68PYPFNXX6/HxMTE8bVJWhx5zctTvGeR4s9Lwx9hLYNwzem7VtWyuSbL1LjZS1aGO5c4x4tdkiODOXNnos/14yufJHhNnQhgNfiAp0bK/HPW2pxx5W5b0vPFG/Wlkt48to6rDPs38h1WSWOt9Tis5dX4v08d/PhXF0lwszxkZZ5rq7Y4SY09HUiaryLbdANaRsQKpKmqNraWiSTSXR3d6O7uxtr167VbTd7rHOVsTIzx8dMmULG82j5mTk+ZsosXQz+lgb0epb6BTcMt+RF60JBcdAN6d7W+dfVbDKUz3Uuqj7900k88Y5c6/NHGyrw9x+rTW2bSQrc/MIU/uVaeb6uH743B9ep6QVvbf+zq6rwQKN+UlPV8xNz2Do8lZrAVOvGi8vxlEN+nvBbCZycmMO+azLvxyztecAaHyKDr33ta6ioqMADDzyADRs24Mtf/rKpb0tEWjyPipduBH5N7Yl2FGvdnW0je9NDaKTWh+FO1f5ra3XkWiJJkiB5AqldpJrrU4/NUBO0xCE8zJ6L2gwjGb4IS5KE2jIJTynTVESnkkjkCJTRqeyh6Lq15fjHLbWoK5//hXtWyLfVA8DLk0lclKHMhWDwobyx7T6Vecyi9kBRdTy+8847UVNTg8nJSUxPT8Pv9y94sSDKhOdRsQpjbzeUO93k4Tf2Dqp9l5QbKsZ8GNY0BUaGWxESAtEeuzJgbQz+Fieg9occcMC7XQ41scNOeOFDVAiInVjEgBtLH8LD7LmY1OSY1+L60FIlAWdmkvjd4Ul86qeT+ItX4ng1x63t/+/NBP5kbMa4OuW315XjHz9eC800YACAf1Nqkz74r+fw5VgcVxkLXKD87o0K3nXXXYePfvSjuPLKK7Fu3TrU1NTomroWWkqJ8XczLm+//TbKyuS3x9TUFKanp9HT04Pbb7/duCtaRsa/S7EtPI8Kg/HvstCi9lv0bpIgtRzDjhH59n3dcBuNXTil+TJnV25gsW12KGsiGBoFgtuU/W4LKjd4KDd3qDe8tLvN90JcwhAeiz0XtTHm9fj8ULNlrXx7+5PvzOGUidnWAeChX8UXDD83XFyOf2iuzdgf6K1ZgemkwIdr8xtV8rs3KnjPP/88XnrpJZw5cwbvvfcepqenkUgkkEwm5W8mCyylxPi7GZdLLrkEyaT8xq6trUVNTQ26u7vx7W9/27grWkbGv0uxLTyPCoPx77LQAgBtfSJV29Ognex3UYzjai3Qj8e0xQ3hof29zJyLl2tuX//l9Pxr/nVrlxYZHvpVHF98WZ70NJO2Syvw6Q/oxwxSfWJtOa6tX9rzZpPfvRGVgAcffBDT09Opi0NXVxfOnj2Lr3zlK1k7BRIZ8TwqVmG4JTfCsKFrRCDUIa/VDbehnTonI3mevNSUPoNupU+OMoBr3zFl2p5AqmHKttmRHgRXsz7lAobwMHsuNmhqVibnBJ5V+vOofmNdBTYYxvYx6xtnZnHHAuGnsS5zHPn0JfrRo/Mh8zOVGG2HtPRi9lZNunCaznzaRZ3La7HbF3Nr5xLcc889mJ2dzXpxWG48X0sDz6Ni1YbAAFLDkjiHleE3tMNtbPICPaEFanBs6BqRp+2RJPUWf7l2xrY7lKpJko4i3dSlDILrNK5PWfoQHmbPxYYafah53DBdRGt9GbZ9cOlB5FtnZnH7S/PDz5wAnlbuJtO6qELC730g/zHFErezhz0SnAjJ80EpYoeb0DDi060rZmaOj7TMt7Nnl+GWz3E/mjb1onPsFLoaM2xPCcNtGA8p623zeeL3+3H77bdnvDBgEcc6V5lseL7KzJQpZDyPlp+Z42OmTKnLdS6qnnt/Dp98fjL180fqyvDS9Wt0Zf757TncFpnCaxn6AJnVubESj2yuAZQ7yf5HZArfOTt/sJ4/+bUq/OWmC7uNXaU9D/IfpYqEbbNDmT1YGYCqRb59Ub4VUV/DoJ+QT3uLYubbCfXfqvT7SrcVZ1tvEUr17FCuyc0GAwg26wc8tO0OIXrfDl2xfOrq6sp5gVhpPF+LD8+jTOdLtvW0nMyei5+4qBzrNaMqvzyZxDOG5q6bLimH5/LcgxcupPc/Z/HhH53Hbw9NYv2/nssYerbUl+Ozly+9dmkhlg0+4aNB3VwyEYcPQpl8L+yRRxeOCnnSvuA2tS03prtFMX07oTw1hUNZr53rJnbYCa9DneAvBEf3XoQXWG8Zyp0IrZqZKyJKVa32Imr8O8lssLXblqW2p1AZjwPPV1oKnkeUS7uhKetvXpXH09HatbESN196YaEkOpXED9+byziAYW2ZhDuurESrchdZvlkn+KhtrcriHPYhqqnuTc8dFUNkGHDdpzSjtB+CT+04Zpiywbb7lFxlPBhAEOn1bft8sGecqb0NgYy98LOtLy26YJOhjdyujEMhL/LxyDSnlyXwfKV84HlEi3TLBn2gCb4+ixfO6W9d/2hdGbo/VIXfuGh5IsQ9V1fh9isurFZpIcvzqgtRh/otQ1kM/UNSk2kq4y+k2WBPDc2Q6U2tUjqlKR/qEQwjMi5fJEJIX3zU6uNs60tZKtiM+WBHetyJhaSr5rXk6vKSPmY8XykfeB7RIt10SQU+arjD6k/H5ndI/p2Ly7HPVoMbL85frUx1GXDAVo17rq4ybsor6wQf0+xobdb+LH8Tkje1Imv9Q7NSRZxa0mM2yGNCyFW7SFUfZ19f8hq7cGrAAe8mE3eYtLvhGvXCqekLoI58ekg3WapV8XylfOB5RGn3GoLH0+/O4dsZmrw+c0k5HmisRkeOPj9fvqYKoY/X4uHNNVmbyD62pgx/uakG+66pQo75Sy8Yg8888jcdedhxAIN74VVHxVTGUQgo31JS4ygoH857tevVPioeYwc+B+yN2ddbRntA7hOQ8/baNgRECA5NM9ly3tFVfHi+Uj7wPKI0z+WV2Gyo9flfL03jxNvzOyG3ri3Hg43V+KtN1fitdZlrf/78mmq0XVqB/7mxEmsNqeaDlRL+9xWV+OuP1ixr85aO0DD8uKySyaRIJBJienra1POaKZNNqAMCHSHjakVU+JohXAPz1ykjeOu3jfmEXVkPuERqr7r1duEbUzeEhCu1XruvbOuXxszxASCef/558dJLL4kzZ86I9957T0xPT4tEIiGSyaSxOGVh9lgvFc9XmZkyxczM72emTDY8j2RmytB8P3w3IfDE+7plzdMT4ofvJoxFU05PzYm/PhMX21+YFPVPT6Qe99VfzgghhJhIJIXjJ+cEnnhfXPfcObF7fFo88fascTfLQnseWGIcHyswc3ykVRvHp7SYPda5yliZmeNjpkwxM/P7mSljZWaOj5kylNkdL0/jW2f0TVy1ZcDj19bhN7PU7qhiU0n8fDKJX00n8XZCHqRwTTlwWZWEj9SWYfOaMqzN86zrC9GeBww+JcLM8WHwyQ+zxzpXGSszc3zMlClmZn4/M2WszMzxMVOGMpucE/jNoUn8zHBXV125hH57DXasz9xfR2s6iXmzr68G7XlQAC+HiIiICk1duYQTW+p0k5dCCUT/bXQK/2dsBokcmfLzL00jOmVuJveVwuBDREREGV1eJSG8pQ6XaEZ0Vv3lr+LY/OPz+NvX5t/xpXp9VuA3hibx0mThhB8GHyIiIsrKUV+Gn35iDVrWzI8Mv5hK4rORaXz4R+dx9y9m8IRhslEJwNm4wA3Dk4gUSPiZ/1sQERERaVxVLeHfrquD67LMt5xHp5K4/5U4Pv3TSdQ9PYHf/9kUel6J481ZuS3sbFxg6/AkTp1f/fDD4ENEREQ51ZdLCDTV4J+21GKjod+P1lQSOPF2Al/6xQx+8n66BuhsXODG4Un8fJXDD4MPERERmXbTJRWIXL8GhxqqcdkCASiTN2cF/mBkyrh6RTH4EBER0aKsq5Cw5+oqvPZb9fi7phr80YYKXFGdOwRdVCHhux+rMa5eURzHp0SYOT4cxyc/zB7rXGWszMzxMVOmmJn5/cyUsTIzx8dMGcqflyeTGJtK4q1ZgbdmBb55Zhbjyu3sa8olPHFtLT550cKDHy4HjuNDREREefeRujI4L62A5/JK/NlVVdikzPlVVy7hB6sUeowYfIiIiGjZ1JQB/7SlFtcXQOgBgw8REREtlyoJCH28Dr+dY26vlcTgQ0RERHmzf//+1P//6iM1+NQHCif0gMGHiIiI8unAgQOp/19l4k6vlcbgQ0RERJbB4ENERESWweBjMepYPRyzh4iIrGjVBzCcm5tDdXW1cTMtk+HhYaxZswb19fVYs2YNampqUF5ezgEMF4HHaeWs1PVoNfA8WjmlfB4VopXMEmZpX9OqBh8hBBKJBGZmZjA5OYnz58/j/PnziMfjSCQSSCZXdyKzbCYnJ3Ho0CHs3bsXdXV1xs0FqaysDBUVFaiqqsKaNWuwZs0a1NXVpUZuliSJF+IStpLvbVpd6h012jtrCt3nPvc5AMDDDz9s3ERFqBCvNwUVfObm5hCPxzE1NYXJyUlMTU0hHo9jbm4u9VpW6jWZ9Y1vfAN9fX3weDz4whe+YNxcULRNW+Xl5aiqqkJtbS3q6upQW1uLqqoqlJeXM/iUuJV8b9PqKrbgMzExgQ9+8IMAgDfffBNr1641FqEiU4jXm4IKPslkErOzs4jH45iensbMzAwSiYQu+BSS8+fP49d//dcRj8dRVVWFH/3oR1izZo2xWMFRg09FRQWqq6tRU1ODqqoqVFZWppq5GHxK10q+t2l1FVvw2bNnD3w+HwDA6/Xiq1/9qrEIFZlCvN4URPCBoZ9PIpHA7OwsZmdnMTc3l2rmWsnXY8b999+Pb33rW5idnUVlZSU+//nP40tf+pKxWEFRA01ZWRnKy8tRWVmJyspKVFRUsH+PRaz0e5tWTzEFn4mJCaxfvx4zMzMAgOrqarzxxhus9SlyhXi9Kajgoy5zc3OpwJNMJlf0dZh17tw5NDQ0pN6kUN6o0WgU9fX1urKFSJIklJWVpQKQtomLwae0rfR7m1ZPMQUftbYnHo8DAKqqqljrUwIK8XpTMMEHhvCjXdRthWTfvn148MEHEY/HUV9fj3PnzqGqqgp33nknDh48aCxeUNRgow06DD3WsRrvbVodxRJ8tLU96p296v9Z61PcCvF6U1DBB5qAY3xu48+raWJiAhs2bEB9fT0qKytx9uxZbNiwAbOzszh37hzOnj1b0G9UY7jRBiEqfav13qaVVyzBZ8+ePfD7/aiqqsKll14KAHjrrbcQj8fR1dXFWp8iVojXG+1rKogBDI21D+qiNssUwvLII4+gsrIS+/btw2uvvQYAeO2117Bv3z5UVFTgkUcemfeYQlqMx1ZdiIhW2sTEBI4dO4YbbrgBjz/+OG677TbcdtttePzxx3HDDTfge9/7HiYmJowPI8qLgqjxKUY8VlRMeL5aR7HU+Jw5cwZXXnklkOE1a7dR8SnE6432NRVEjQ8REVnLQsFmoW1EF4rBh4iIiCyDwYeIiIgsg8GHiIiILIPBh4iIiCyDwYeIiIgsg8GHiIiILIPBh4iIiCyDwYeIiIgsg8GHiIiILIPBh4iIiCyDwYeIiIgsg8GHiIiILIPBh4iIiCyDwYeIiIgsg8GHiIiILIPBh4iIiCyDwYeIiIgsg8GHiIiILIPBh4iIiCyDwYeIiIgsg8GHiIiILIPBZ4mEEMZVREREVOAYfIiIiMgyLBB8YvC3SJAk7dIE/7ixnBlhuJf8WCIiIlptFgg+MntPFEIICCEQ7QG8B8PGIia0ISBOoavRuJ6IiIiKgWWCT2ZybVDT4Zj846AbUosfMQAY96NpXg2RWuMjP87tcadqkdyD6b2GPenapdS+M+5PX1byLCWMERERkVmWCT6R7oZUwGjo60S0r81YRCd80AsotUTZaoiCcCvb7QjeKwem2OEmOBFSapdCcHQ74R/Psr9xP7z9LoSUsq5+L5vRiIiIlpFlgo+uqcvTiwa1ZieLtp0uJSw14dj2UxAZgpK9xQ4AsG12pNZFRiJAv1MJWU4EEUHv8Vjm/TXuQGdzEE5JguQBm9GIiIiWmWWCj5Zteyfso0OIGDdotQfStTObpHQTmAnakCWEwKndtiz7s6FrRK3tkcOStsmMiIiI8suSwSd2vBeR5lbYYYPdodTSAAgfDabKhD1yCLHtPgUx4NI8emH2Fjsi3XshN4yF4VbCTMb9jfvR1OJHDG0IiCh8zfp9ERERUX5ZJvjo+vh0A77jXbApTVpq01QA6YDT1hcCtimdjrcNp8rnYtt9CqEOpflKcmK4J4pAe5b9NXYh5OlFgyRBkhrgdYQQaDfukYiIiPJFEpohiCVJ4ojERCWI723r2L9/v+7fYlCMr5myK8TrjfY1WabGh4iIiIjBh4iIiCyDwYeIiIgsg8GHiIiILIPBh4iIiCyDwQdIz+CuG6RQmY8rHwMKaucAIyIiolXD4KM16sXefAQdIiIiKkgMPhr2Hh+wza2Mumygm11dW0YenVlen551XVvefTRVmIiIiFYRg4/ODhzqGYb3sLFRKgz3pl50jimTnPYMw+kJK81hTmBAmZdrwAHvdj9iiMG/PT0buxvpqTCIiIho9TD4GNh2h9DZp861pRiPYBgReXJRSUJDdwToDyCMCIZGgWBqKoogMNqLYz84ht5ROzq3y5NctO00P9cXERERLR8Gn3ls6LoPcHqOGda7ENLMuC5EAG0AADt8Sk2QvJxC19WGhxIREVFBYPDJpD2AELzwjio/N9rhQDDVBBY73KTcpWVHa3ME3oNK/dCgW+7/07gDnc0R9B6Xy2tnfSciIqLVw+CTRds+H+zpnxAY8wHKDO8N3Q6ERrpggw1dIyG4lNndpW3D8I0F0AYbuo6ny2tnfSciIqLVw9nZiSyA723rKMaZzovxNVN2hXi94ezsREREZEkMPkRERGQZDD5LJEmScRUREREVOAYfIiIisgwGHyIiIrIMBh8iIiKyDAYfIiIisgwGHyIiIrIMBh8iIiKyDAYfIiIisgwGHyIiIrIMBh8iIiKyDAYfIiIisgwGHyIiIsqbQpuZ3YjBZxGee+453HbbbVi/fj0qKiqwfv163HbbbXjuueeMRYmIiKgAMfiY9PDDD+Omm27Cli1b8MILL2B2dhYvvPACtmzZgptuugkPP/yw8SFERERFJ+yR0HQ4ZlwNDLohtfiRYUtRYfAx4dlnn8WePXvwzDPP4K677sLGjRsBABs3bsRdd92FZ555Bnv27MGzzz5rfCgREVERiSEybFynaA9AjHTBZlxfZBh8TPj617+OgwcPoqWlxbgJANDS0oKDBw/i61//unETERFR0YgddsI7CkS6nfCPh+GWmuD2NEGS3Ahra3wG3ZAkCZK63ROWdzDuR5MkQZIkuD3aGqIw3Mp6SWqCf1x9viZIHjfcklzLFPaoZaT0PvOMwceEEydO4NZbbzWu1rn11ltx4sQJ42oiIqKiYdsdgq8ZsPeE0NUIABEMt4QgRABtqVJhuLcF4RoQECKE1uGIsj4G/3Yv0BOFEAJuBNPrW5zAgIAQAmLAAe92TZNZP+AWAqe2H4O334WQkPfr6vemAlI+MfjkkEgkEI/HsW7dOuMmnXXr1iEejxtXExERFTXHZkPj1mAAQbjgbgcAG3Z47PL68WPoHbWjc7tcvm2nS3lABEOjQHCbUpOzLQiM9uKYGmqaW2EHgMYd6GwOwilJkDxAQJxSwld+MfjkUFFRgcbGRpw8edK4SefkyZNobFyGvxAREVHRs8M3ptT4CAGRMdTY0DWi1vY45eayQWOZC1cCwScGf8vytQUCQEdHBx544AHjap0HHngAHR0dxtVERESlpd0NF4IIDAJADMf6lKauxh3obI6g97jSq+eo2tRlR2tzBN6Dyuf0oFvuM6RsTRn3o6nFjxjaEBBR+JqNBfJEaBh+LA4DLoEOl3DBJULGbXm0detWceeddxpXCyGEuPPOO8XWrVuNq4kKRlG+t4loVYQ6IAC78I2FhAsQrgFlw4BLoNknour/IZdzddgFOpRP4DGfsAMCgHB1aMoLeV/qY3xjcvFoj11TRvlZLafuMw+010BJWQEAkCSp4EdcNAp7JAR2CriPSvC2RHFqt9IWOeiGdG8rfA4vvP0A4EJIBNCGGPwtDRjy+DDc7UUEgL1H87gszp07hy9+8Yt44okn8JnPfAZXXHEFXn31VZw4cQKf+tSn8NBDD6G+vt74MKKCUIzvbSIqBvJnaq9n/udo2CPBiRBEX7pb9GrRXgOLvKkrjEC/3MGqbZ8P6DumH1hp1IveFrl3eagjCKemOSzYPQSfEBBjPqDbmbPneH19PR577DGEw2Fce+21OHDgAK699lqEw2E89thjDD1EtLouaHA5+bZl/7h6O3KGZgiiFO2t6Q3wwofQblu664myzdnvQqgAQo9Rcdf4DLohHXUraVK5Xe640mFq0A1pG5RaHuXNvGkIPnEIEUM6DXsMtUUmFN2xIkvj+WoBSi139EIHmDNeO4lKQMnU+ISPBgGl57ckNcA7mu5UBWhukctg3u15iu9973umlsWWJSJarEyDucUONxkGhUsPBgcMYa/6jVs70FyLH351Xy1+xDSDz8mPVfcjj88C6GvIs9N/w1efUx6Uzp/epn3tGdbLr9ENt+ZGldjhptR+5ekT5OdK3eUz7keTrpZKfR2srVptkiQZVxWU4g0+4354+w23x435gO696ZN+dAjqsEqIaP4PYPhFNSDph+ceHR3Fd7/73ZwLgHnrMi2jo6PpnRMRmTXuX/xgbqNB4D4BIaLwwQunOt/SqBdDO5X9jHrRcNQtl9HcgSNrQ2DAJfeJNNNEMR6B/bh6DQ7BpR2bpb8XOJ6+NTkVWLKtHx1G63Eh1+APutHQ7Uj97o7uBrgH5fFigkeVK3xkCJEOH7oaw3Bv6kWn8lkQ7Rk2GdrIsjSdnovqzg9jT3CZpge60uNc7Y0e6lB7iEeFrxnpx475hF3Tw9ysYjpWRDxfi5FyrTLc3aK/9oWES71+DbgENHe3RnuUO2106+V9aq+L9p7ogvvJTfM6lX2knluhPk+29cbnzFpuzCfsyu8e6lB+D81dROllMa+f8q0Qrzfa11SkNT7yuAF2zw5DW3Yb3B1A8F6lirfZBdyrdLIa9iGq+QbjcgyhQZIgbfLCMZBpICUiotW0MoO5XZBBNySpAUP3Ka/TuD3fGnegE704Np6+sUWm1oypC/snUXZFGnzkC0KmzshtfUIze2wrDo0obwRjh7+dgdSbJJB68xARFYgsg7nZNjvSzfiDgdRsSDL9oHL2lmy9HPOo2YdD7RleS39A6XYQRqBf068y23oN22ZHlnI27PAAvdu9CHa45XDTaIcDQXiVZj19Hyii+Yo0+BARlbjGLoQ8vXLNtNQAryMkf0lTRs11ShKkozDUsriAo0r51C3Gi2Rvhd1s5+Z2t9xnSJIgHW2FrzmCIbUzZfMwvJIESXIi2KG89oXWa7UH5L46SrnhnmiqnG23D47RCFw71TqdNgTGfEB3AyRJkvsGGb/oEmkU9+3sq4jHiooJz1daSbHDTWjo65x3a3229VRaCvF6o31NrPEhsoBCuwgREa0W1vgsEY8VERHRfIX4+cgaHyJSBpMz0Y+DitL+/fuxf/9+4+qCVEyvlYpf/oOPOiLovAuqOrcHR9UkIiKi1ZH/4AMAzXbYU7ciKgYDCDbbs04hQURLoB2qX3sLb2pKAsOXEM1UBXtH0qs55D8RWcXyBB90orNDHU9CFj4ahMvTqSmTeY6X1HwsnlwXbnnRDuiVntulCW6Pthpf/1zGuV6aWnixp2IUg3+7F+iJQgiBkEOZomDcj6Ztw8p0LlH4hp3KXEfyPEyuAXmwudZh9b5jDvlPRNaxTMEHsLdo5lSBMsrm9vT2sEcel0IeRFCeP2avJsQEh1sRFQJiwAWoc9ToLugC0R57epTmcT+c3VC2+YD+9MxcuucacCG4TTupXwSO+xY30ufc3Bw2btyIubk54yaiFRTB0KgdndvlG4Pb+pRBPSNDiDR3YkcjlAHf7IiMRJQB5tTRbuX1gDzf0jAi8G6Svxg0dEc0g8cREZWW5Qs+2zthH44oswMH0qNsKtr6lMno5NJoVUYlVaWmo2h3pwfoauzCKZGeXsK22ZEqHzveq0xYBwBtONSjNqrJo36mBrtqP6QfZAt2tC6y/W3Xrl249NJLsWvXLuMmoiLFIf+JyBqWLfik51SRm7nmDZ2u61PQAK9hEvNMw5gDQNijaR7blh4gPTKinXt9vuA2/XOlZ2d3wL6Iebruv/9+nD59GiMjIzh9+jTuv/9+YxGiFWJHq2Z27bBHaRa2t8KemiVbM3WBMuKvdkoDgEP+E5G1LF/wUedUOe5HoD9dHS/T900QmnloFjTohrNf8810ID1Y+7xgpWNPNY+pS6Z5vnL5/ve/D7/fj0cffRQA8Oijj8Lv9+P73/++sSjRCrChayQEhzJUv7PfhVBfm1wzOuBQmq7kZl75fG9DYMClfAlwYsihvmc45D8RWccyBh/Atr0T6PYimOpvkMXg3nk1PrnF4L83XeNj294Ju9oXCGHs7VZrgNrg7ojAe1DpsaDUNC12luNoNIpdu3bhyJEjsNnkjwSbzYYjR45g165diEajxocQrYA2BDI1T7WnJ+FNNylr159CoO9UeltjF05l2g8RUYlZ1uAjV6Fr+uuk2NB1nwsR5RumdNSNUIe2+SmL9kPwNSuT80lO4D4f7OosxY1dCPVA+ZYbQGuqjw/Q1iff2SJJEqRNck1TxonxFrBr1y54vV7cfPPNuvU333wzvF4v+/sQEREVgRKdsiIGf0sDej3RJTVpGd1xxx2YnJzEY489ZtyU8tnPfhZ1dXX45je/adxERLTi1JGQi2FE5GJ6rZRbIWYJ7Wta3hqflaQb30fbr+HCPPTQQzh58iSOHDli3KRz5MgRnDx5Eg899JBxE9GqkyTJuIqIyJJKJ/ho+zQY+zUs0ZNPPom7774bR44cQVnZwoeqrKwMR44cwd13340nn3zSuJmIiIgKwMKf5hb2+uuvY9euXejt7UVzs5lbzoDm5mb09vZi165deP31142biYiIaJUx+GSxa9cueDwe3HLLLcZNC7rlllvg8XjY2ZmIiKgAMfhksHv3btTV1eHAgQPGTaYcOHAAdXV12L17t3ETERERrSIGH4NHH30U4XA4Z2fmXI4cOYJwOJwa7JCIiIhWH4OPwenTp3HkyBGsXbvWuGlR1q5diyNHjuD06dPGTURERLRKGHwM9u/fj+uvv964ekmuv/56jktBRERUQBh8iIiIyDIYfIiIiMgyGHyIiIjIMhh8iIiIyDIYfIiIiMgyGHyIiIjIMhh8iIiIyDIkIYRQf9i6dSuefvppfQkiIiKiInbjjTfiqaeeAozBh4hKkyRJ4FvdWtTBU4thENVieq2UW6Ffb/4/A0aONyf6Hs0AAAAASUVORK5CYII=;" vertex="1" parent="1">
          <mxGeometry x="-301" y="78" width="363.19" height="143" as="geometry" />
        </mxCell>
      </root>
    </mxGraphModel>
  </diagram>
  <diagram name="PR Process" id="cToSKy1VQ13M2CRxWGTL">
    <mxGraphModel dx="1418" dy="1955" grid="1" gridSize="10" guides="1" tooltips="1" connect="1" arrows="1" fold="1" page="1" pageScale="1" pageWidth="827" pageHeight="1169" math="0" shadow="0">
      <root>
        <mxCell id="QjBHDyu-TX_5AiQOqdF3-0" />
        <mxCell id="QjBHDyu-TX_5AiQOqdF3-1" parent="QjBHDyu-TX_5AiQOqdF3-0" />
        <mxCell id="QjBHDyu-TX_5AiQOqdF3-39" value="" style="edgeStyle=orthogonalEdgeStyle;rounded=0;orthogonalLoop=1;jettySize=auto;html=1;" edge="1" parent="QjBHDyu-TX_5AiQOqdF3-1" source="QjBHDyu-TX_5AiQOqdF3-40" target="QjBHDyu-TX_5AiQOqdF3-51">
          <mxGeometry relative="1" as="geometry" />
        </mxCell>
        <mxCell id="QjBHDyu-TX_5AiQOqdF3-40" value="Create Pull Request" style="rounded=0;whiteSpace=wrap;html=1;" vertex="1" parent="QjBHDyu-TX_5AiQOqdF3-1">
          <mxGeometry x="260" y="-390" width="120" height="60" as="geometry" />
        </mxCell>
        <mxCell id="QjBHDyu-TX_5AiQOqdF3-41" value="" style="edgeStyle=orthogonalEdgeStyle;rounded=0;orthogonalLoop=1;jettySize=auto;html=1;" edge="1" parent="QjBHDyu-TX_5AiQOqdF3-1" source="QjBHDyu-TX_5AiQOqdF3-42" target="QjBHDyu-TX_5AiQOqdF3-44">
          <mxGeometry relative="1" as="geometry" />
        </mxCell>
        <mxCell id="QjBHDyu-TX_5AiQOqdF3-42" value="Deploy to Test" style="rounded=0;whiteSpace=wrap;html=1;" vertex="1" parent="QjBHDyu-TX_5AiQOqdF3-1">
          <mxGeometry x="260" y="-190" width="120" height="60" as="geometry" />
        </mxCell>
        <mxCell id="QjBHDyu-TX_5AiQOqdF3-43" style="edgeStyle=orthogonalEdgeStyle;rounded=0;orthogonalLoop=1;jettySize=auto;html=1;" edge="1" parent="QjBHDyu-TX_5AiQOqdF3-1" source="QjBHDyu-TX_5AiQOqdF3-44" target="QjBHDyu-TX_5AiQOqdF3-47">
          <mxGeometry relative="1" as="geometry" />
        </mxCell>
        <mxCell id="QjBHDyu-TX_5AiQOqdF3-44" value="Business Area Testing" style="rounded=0;whiteSpace=wrap;html=1;" vertex="1" parent="QjBHDyu-TX_5AiQOqdF3-1">
          <mxGeometry x="260" y="-90" width="120" height="60" as="geometry" />
        </mxCell>
        <mxCell id="QjBHDyu-TX_5AiQOqdF3-45" value="Deploy to Prod" style="rounded=0;whiteSpace=wrap;html=1;" vertex="1" parent="QjBHDyu-TX_5AiQOqdF3-1">
          <mxGeometry x="268" y="130" width="120" height="60" as="geometry" />
        </mxCell>
        <mxCell id="QjBHDyu-TX_5AiQOqdF3-46" value="fail" style="edgeStyle=orthogonalEdgeStyle;rounded=0;orthogonalLoop=1;jettySize=auto;html=1;entryX=1;entryY=0.5;entryDx=0;entryDy=0;exitX=1;exitY=0.5;exitDx=0;exitDy=0;" edge="1" parent="QjBHDyu-TX_5AiQOqdF3-1" source="QjBHDyu-TX_5AiQOqdF3-47" target="QjBHDyu-TX_5AiQOqdF3-50">
          <mxGeometry relative="1" as="geometry">
            <Array as="points">
              <mxPoint x="480" y="40" />
              <mxPoint x="480" y="-450" />
            </Array>
          </mxGeometry>
        </mxCell>
        <mxCell id="QjBHDyu-TX_5AiQOqdF3-47" value="Success?" style="rhombus;whiteSpace=wrap;html=1;" vertex="1" parent="QjBHDyu-TX_5AiQOqdF3-1">
          <mxGeometry x="280" width="80" height="80" as="geometry" />
        </mxCell>
        <mxCell id="QjBHDyu-TX_5AiQOqdF3-48" value="pass" style="edgeStyle=orthogonalEdgeStyle;rounded=0;orthogonalLoop=1;jettySize=auto;html=1;entryX=0.433;entryY=0.083;entryDx=0;entryDy=0;entryPerimeter=0;" edge="1" parent="QjBHDyu-TX_5AiQOqdF3-1" source="QjBHDyu-TX_5AiQOqdF3-47" target="QjBHDyu-TX_5AiQOqdF3-45">
          <mxGeometry relative="1" as="geometry" />
        </mxCell>
        <mxCell id="QjBHDyu-TX_5AiQOqdF3-49" style="edgeStyle=orthogonalEdgeStyle;rounded=0;orthogonalLoop=1;jettySize=auto;html=1;entryX=0.5;entryY=0;entryDx=0;entryDy=0;" edge="1" parent="QjBHDyu-TX_5AiQOqdF3-1" source="QjBHDyu-TX_5AiQOqdF3-50" target="QjBHDyu-TX_5AiQOqdF3-40">
          <mxGeometry relative="1" as="geometry" />
        </mxCell>
        <mxCell id="QjBHDyu-TX_5AiQOqdF3-50" value="Develop" style="rounded=0;whiteSpace=wrap;html=1;" vertex="1" parent="QjBHDyu-TX_5AiQOqdF3-1">
          <mxGeometry x="260" y="-480" width="120" height="60" as="geometry" />
        </mxCell>
        <mxCell id="c7reC8xYuBF2I2LxxRL2-0" value="" style="edgeStyle=orthogonalEdgeStyle;rounded=0;orthogonalLoop=1;jettySize=auto;html=1;" edge="1" parent="QjBHDyu-TX_5AiQOqdF3-1" source="QjBHDyu-TX_5AiQOqdF3-51" target="QjBHDyu-TX_5AiQOqdF3-42">
          <mxGeometry relative="1" as="geometry" />
        </mxCell>
        <mxCell id="QjBHDyu-TX_5AiQOqdF3-51" value="Review/Approve" style="rounded=0;whiteSpace=wrap;html=1;" vertex="1" parent="QjBHDyu-TX_5AiQOqdF3-1">
          <mxGeometry x="260" y="-295" width="120" height="60" as="geometry" />
        </mxCell>
      </root>
    </mxGraphModel>
  </diagram>
</mxfile>
